<svg width="490.983" height="817.012" viewBox="0 0 129.906 216.168" xml:space="preserve" xmlns="http://www.w3.org/2000/svg"><defs><clipPath id="a" clipPathUnits="userSpaceOnUse"><path style="clip-rule:evenodd" d="M1893.18 920.949H574.824l-45.379-99.508H1847.8Z"/></clipPath><clipPath id="b" clipPathUnits="userSpaceOnUse"><path d="M529.445 821.441H1893.18v99.508H529.445Z"/></clipPath><clipPath id="e" clipPathUnits="userSpaceOnUse"><path style="clip-rule:evenodd" d="M4529.87 920.949H3211.52l-45.38-99.508h1318.35z"/></clipPath><clipPath id="f" clipPathUnits="userSpaceOnUse"><path d="M3166.14 821.441h1363.73v99.508H3166.14Z"/></clipPath><clipPath id="h" clipPathUnits="userSpaceOnUse"><path style="clip-rule:evenodd" d="M3211.52 920.949H1893.18l-45.38-99.508h1318.34z"/></clipPath><clipPath id="i" clipPathUnits="userSpaceOnUse"><path d="M1847.8 821.441h1363.72v99.508H1847.8Z"/></clipPath><clipPath id="k" clipPathUnits="userSpaceOnUse"><path d="m2529.67 7814.43-.01.01v-.01l-623.11-394.86 451-1050.24h344.23l451 1050.24z"/></clipPath><clipPath id="m" clipPathUnits="userSpaceOnUse"><path d="m4212.41 6748.09-856.94 543.04s-596.57-1389.6-661.52-1540.45c-64.96-150.85-61.43-347.93-1.33-477.21 52.01-111.89 190.14-406.8 223.36-478.42 33.22-71.62 41.62-174.7 16.66-263.28-25.38-90.07-303.89-1083.63-303.89-1083.63s892.89 841.7 1004.62 947.4c110.92 104.93 135.56 289.08 76.84 428.93-24.19 57.63-33.39 80.43-93.8 224.48-60.42 144.05-73.45 321.67.54 474.02 73.16 150.63 595.46 1225.12 595.46 1225.12z"/></clipPath><clipPath id="o" clipPathUnits="userSpaceOnUse"><path d="m846.922 6748.09 856.938 543.03s596.57-1389.6 661.53-1540.45c64.95-150.85 61.42-347.92 1.32-477.21-52.01-111.89-190.14-406.8-223.36-478.42-33.22-71.62-41.61-174.7-16.65-263.28 25.37-90.07 303.88-1083.63 303.88-1083.63s-892.89 841.7-1004.62 947.4c-110.92 104.93-135.56 289.09-76.84 428.93 24.2 57.63 33.39 80.43 93.8 224.49 60.42 144.05 73.45 321.67-.53 474.01-73.16 150.63-595.468 1225.13-595.468 1225.13z"/></clipPath><linearGradient id="c" spreadMethod="pad" gradientTransform="matrix(0 99.5028 99.5028 0 1211.31 821.441)" gradientUnits="userSpaceOnUse" y2="0" x2="1" y1="0" x1="0"><stop offset="0" style="stop-opacity:1;stop-color:#1e5e2e"/><stop offset=".28" style="stop-opacity:1;stop-color:#26803a"/><stop offset=".93" style="stop-opacity:1;stop-color:#288e3e"/><stop offset="1" style="stop-opacity:1;stop-color:#26803a"/></linearGradient><linearGradient id="d" spreadMethod="pad" gradientTransform="matrix(1363.73 0 0 -1363.73 3166.14 871.2)" gradientUnits="userSpaceOnUse" y2="0" x2="1" y1="0" x1="0"><stop offset="0" style="stop-opacity:1;stop-color:#891a1d"/><stop offset=".28" style="stop-opacity:1;stop-color:#be1e24"/><stop offset=".93" style="stop-opacity:1;stop-color:#d11d2a"/><stop offset="1" style="stop-opacity:1;stop-color:#be1e24"/></linearGradient><linearGradient id="g" spreadMethod="pad" gradientTransform="matrix(0 99.5028 99.5028 0 3848.01 821.441)" gradientUnits="userSpaceOnUse" y2="0" x2="1" y1="0" x1="0"><stop offset="0" style="stop-opacity:1;stop-color:#891a1d"/><stop offset=".28" style="stop-opacity:1;stop-color:#be1e24"/><stop offset=".93" style="stop-opacity:1;stop-color:#d11d2a"/><stop offset="1" style="stop-opacity:1;stop-color:#be1e24"/></linearGradient><linearGradient id="j" spreadMethod="pad" gradientTransform="matrix(0 99.5028 99.5028 0 2529.66 821.441)" gradientUnits="userSpaceOnUse" y2="0" x2="1" y1="0" x1="0"><stop offset="0" style="stop-opacity:1;stop-color:#d1d1cf"/><stop offset=".279" style="stop-opacity:1;stop-color:#f3f3f3"/><stop offset=".93" style="stop-opacity:1;stop-color:#f7f8f2"/><stop offset="1" style="stop-opacity:1;stop-color:#e5e5e3"/></linearGradient><linearGradient id="l" spreadMethod="pad" gradientTransform="matrix(0 1395.94 1395.94 0 2529.66 6358.37)" gradientUnits="userSpaceOnUse" y2="0" x2="1" y1="0" x1="0"><stop offset="0" style="stop-opacity:1;stop-color:#f69011"/><stop offset="1" style="stop-opacity:1;stop-color:#fbc907"/></linearGradient><linearGradient id="n" spreadMethod="pad" gradientTransform="scale(3901.18) rotate(-90 1.38 .503)" gradientUnits="userSpaceOnUse" y2="0" x2="1" y1="0" x1="0"><stop offset="0" style="stop-opacity:1;stop-color:#f1483a"/><stop offset=".041" style="stop-opacity:1;stop-color:#f1483a"/><stop offset=".977" style="stop-opacity:1;stop-color:#cc1e25"/><stop offset="1" style="stop-opacity:1;stop-color:#cc1e25"/></linearGradient><linearGradient id="p" spreadMethod="pad" gradientTransform="rotate(-90 4492.865 2854.115) scale(3901.18)" gradientUnits="userSpaceOnUse" y2="0" x2="1" y1="0" x1="0"><stop offset="0" style="stop-opacity:1;stop-color:#50be3e"/><stop offset=".143" style="stop-opacity:1;stop-color:#50be3e"/><stop offset=".179" style="stop-opacity:1;stop-color:#50be3e"/><stop offset="1" style="stop-opacity:1;stop-color:#287f39"/></linearGradient></defs><path style="fill:#d01e27;fill-opacity:1;fill-rule:nonzero;stroke:none" d="M5059.33 0H0v2134.14h5059.33V0" transform="matrix(.02568 0 0 -.02568 0 216.168)"/><path style="fill:#fff;fill-opacity:1;fill-rule:evenodd;stroke:none" d="M4387.67 1156.56h57.22l3.07 69.95zm142.09-137.57h-90.68l2.87 67.69h-114.91l-57.45-67.69h-93.74L4448.81 1321h81.78zm-292.69 232.15h-162.5c-28.64 0-47.77-10.53-57.44-31.59-1.57-3.42-2.33-6.23-2.33-8.48 0-5.69 6.35-8.55 19.05-8.55h83.14c32.01 0 54.02-4.38 66.02-13.08 10.79-7.95 16.19-19.26 16.19-33.96 0-12.85-4.12-28.33-12.38-46.35-14.31-31.43-34.13-54.42-59.47-69-24.45-14.1-55.63-21.14-93.5-21.15h-183.98l31.84 69.87h164.71c14.61 0 25.79 1.64 33.54 4.92 9.23 3.8 16.12 10.65 20.63 20.58 3.1 6.88 4.42 11.66 3.91 14.36-.12.66-.33 1.14-.62 1.47-2.68 2.76-10.46 4.14-23.28 4.14h-74.15c-56.1 0-84.12 17.32-84.12 51.95 0 12.54 3.81 27.14 11.44 43.81 27.62 60.62 78.74 90.94 153.28 90.94h181.98zm-348.06 0h-162.5c-28.64 0-47.77-10.53-57.44-31.59-1.57-3.42-2.33-6.23-2.33-8.48 0-5.69 6.35-8.55 19.04-8.55h83.16c32.01 0 54.01-4.38 66.02-13.08 10.78-7.95 16.18-19.26 16.18-33.96 0-12.85-4.12-28.33-12.38-46.35-14.3-31.43-34.13-54.42-59.45-69-24.47-14.1-55.65-21.14-93.53-21.15h-183.97l31.84 69.87h164.73c14.58 0 25.77 1.64 33.52 4.92 9.23 3.8 16.13 10.65 20.63 20.58 3.12 6.88 4.42 11.66 3.91 14.36-.12.66-.33 1.14-.62 1.47-2.67 2.76-10.44 4.14-23.28 4.14h-74.15c-56.08 0-84.12 17.32-84.12 51.95 0 12.54 3.81 27.14 11.43 43.81 27.65 60.62 78.75 90.94 153.28 90.94h181.99zm-489.79 7.67c-50.29 0-89.46-30.68-117.53-92.01-12.07-26.44-18.11-46.16-18.11-59.15 0-1.25.07-2.4.2-3.45 1.68-15.87 16.54-23.81 44.47-23.81 28.7 0 53.24 9.16 73.62 27.46 16.28 14.7 31.1 36.62 44.43 65.83 10.59 23.22 15.86 41.8 15.86 55.72 0 6.09-1.01 11.11-3.07 15.05-5.07 9.57-18.36 14.36-39.87 14.36zm114.89-92.8c-46.61-102.03-122.25-153.03-226.83-153.03-75.97 0-113.95 26.91-113.95 80.8 0 23.01 7.1 50.04 21.26 81.08 22.58 49.33 50.88 86.3 84.86 110.92 37.89 27.29 84.86 40.93 140.93 40.96 78.36 0 117.51-25.48 117.53-76.39 0-21.44-7.94-49.56-23.8-84.34zm-464.81 84.74h-69.81l-23.71-51.86h60.73c18.9 0 31.93 1.34 39.15 4.01 10.49 3.94 18.86 12.73 25.07 26.39 4.09 8.87 4.87 14.2 2.33 16.03-4.87 3.62-16.13 5.42-33.76 5.43zm20.63-111.01 19.25-120.76h-90.98l-16.29 110.41h-58.28l-50.48-110.41h-85.69l137.95 302.04h162.08c58.76 0 88.12-17.59 88.13-52.76 0-12.99-4.06-28.42-12.16-46.25-19.19-42-50.36-69.43-93.53-82.27zm-2073.61 115.5H887.609c-39.562 0-70.687-16.7-93.308-50.06h179.097l-31.109-68.06h-180.48l-53.211-116.54h-86.719l65.711 143.9c16.488 36.07 30.043 61.82 40.664 77.22 18.32 26.61 40.48 46.25 66.461 58.97 31.351 15.34 71.48 23 120.402 23.02h112.523zm231.13-113.47 19.32-121.19h-91.31l-16.34 110.82h-58.51l-50.63-110.82h-86.015l138.465 303.09h162.65c58.95 0 88.42-17.63 88.42-52.92 0-13.03-4.07-28.53-12.21-46.42-19.25-42.16-50.54-69.68-93.84-82.56zm-20.71 111.39h-70.07l-23.78-52.04h60.94c18.97 0 32.05 1.35 39.29 4.04 10.54 3.95 18.93 12.78 25.15 26.48 4.11 8.89 4.89 14.26 2.34 16.08-4.89 3.63-16.18 5.44-33.87 5.44zm434.71 2.08H1530.5c-34.39 0-62.16-15.75-83.24-47.21h172.64l-31.54-68.93h-175.07c-4.59-11.84-6.9-21.44-6.9-28.75 0-4.74.99-8.51 2.98-11.34 4.71-6.59 16.65-9.89 35.76-9.89h120.4l-31.32-68.54h-113.49c-47.5 0-79.45 12.14-95.87 36.44-7.71 11.41-11.56 25.02-11.56 40.89 0 20.49 6.43 44.8 19.3 72.98 25.7 56.24 57.27 96.42 94.71 120.6 33.34 21.45 74.75 32.18 124.22 32.2h121.24zm328.43.79h-110.84c-25.92 0-48.14-8.69-66.69-26.07-14.36-13.57-27.97-34.2-40.86-61.92-2.7-5.41-6.67-13.83-11.9-25.28-4.87-11.6-7.32-21.02-7.32-28.25 0-16.93 13.65-25.37 40.99-25.37h120.39l-31.32-68.56h-113.49c-47.51 0-79.45 12.16-95.86 36.44-7.73 11.39-11.59 25.02-11.59 40.88 0 20.5 6.44 44.81 19.33 73.01 46.49 101.84 119.47 152.75 218.91 152.76h121.26zm307.96 0h-110.83c-25.92 0-48.14-8.69-66.68-26.07-14.37-13.57-27.99-34.2-40.87-61.92-2.69-5.41-6.66-13.83-11.89-25.28-4.89-11.6-7.31-21.02-7.31-28.25 0-16.93 13.64-25.37 40.97-25.37h120.4l-31.32-68.56h-113.49c-47.52 0-79.47 12.16-95.89 36.44-7.71 11.39-11.55 25.02-11.55 40.88 0 20.5 6.42 44.81 19.32 73.01 46.49 101.84 119.45 152.75 218.91 152.76h121.23zm51.21-235.45h-88.97l138.44 303.09h89.08zm409.29 0h-90.99l2.87 67.96h-115.29l-57.67-67.96h-94.07l273.93 303.09h82.07zm-142.6 138.07h57.46l3.07 70.2zM565.793 935H4551.72l-58.19-127.59H507.613L565.793 935" transform="matrix(.02568 0 0 -.02568 0 216.168)"/><g clip-path="url(#a)" transform="matrix(.02568 0 0 -.02568 0 216.168)"><g clip-path="url(#b)"><path style="fill:url(#c);fill-opacity:1;fill-rule:nonzero;stroke:none" d="M529 821v2h1v2h1v3h1v2h1v2h1v2h1v2h1v3h1v2h1v2h1v2h1v2h1v2h1v3h1v2h1v2h1v2h1v2h1v3h1v2h1v2h1v2h1v2h1v3h1v2h1v2h1v2h1v2h1v3h1v2h1v2h1v2h1v2h1v3h1v2h1v2h1v2h1v2h1v2h1v3h1v2h1v2h1v2h1v2h1v3h1v1h1320v-1h-1v-2h-1v-2h-1v-3h-1v-2h-1v-2h-1v-2h-1v-2h-1v-2h-1v-3h-1v-2h-1v-2h-1v-2h-1v-2h-1v-3h-1v-2h-1v-2h-1v-2h-1v-2h-1v-3h-1v-2h-1v-2h-1v-2h-1v-2h-1v-3h-1v-2h-1v-2h-1v-2h-1v-2h-1v-3h-1v-2h-1v-2h-1v-2h-1v-2h-1v-2h-1v-3h-1v-2h-1v-2h-1v-2h-1v-2h-1v-3h-1v-2h-1v-2h-1v-2h-1v-2h-1v-3"/></g></g><path style="fill:url(#d);fill-opacity:1;fill-rule:evenodd;stroke:none" d="M4529.87 920.949H3211.52l-45.38-99.508h1318.35l45.38 99.508" transform="matrix(.02568 0 0 -.02568 0 216.168)"/><g clip-path="url(#e)" transform="matrix(.02568 0 0 -.02568 0 216.168)"><g clip-path="url(#f)"><path style="fill:url(#g);fill-opacity:1;fill-rule:nonzero;stroke:none" d="M3166 821v3h1v2h1v2h1v2h1v3h1v2h1v2h1v2h1v2h1v3h1v2h1v2h1v2h1v2h1v3h1v2h1v2h1v2h1v2h1v2h1v3h1v2h1v2h1v2h1v2h1v3h1v2h1v2h1v2h1v2h1v3h1v2h1v2h1v2h1v2h1v3h1v2h1v2h1v2h1v2h1v3h1v2h1v2h1v2h1v2h1v1h1319v-2h-1v-3h-1v-2h-1v-2h-1v-2h-1v-2h-1v-3h-1v-2h-1v-2h-1v-2h-1v-2h-1v-3h-1v-2h-1v-2h-1v-2h-1v-2h-1v-3h-1v-2h-1v-2h-1v-2h-1v-2h-1v-3h-1v-2h-1v-2h-1v-2h-1v-2h-1v-2h-1v-3h-1v-2h-1v-2h-1v-2h-1v-2h-1v-3h-1v-2h-1v-2h-1v-2h-1v-2h-1v-3h-1v-2h-1v-2h-1v-2h-1v-2h-1v-3h-1v-2h-1v-2h-1v-1"/></g></g><g clip-path="url(#h)" transform="matrix(.02568 0 0 -.02568 0 216.168)"><g clip-path="url(#i)"><path style="fill:url(#j);fill-opacity:1;fill-rule:nonzero;stroke:none" d="M1847 821v1h1v3h1v2h1v2h1v2h1v2h1v3h1v2h1v2h1v2h1v2h1v2h1v3h1v2h1v2h1v2h1v2h1v3h1v2h1v2h1v2h1v2h1v3h1v2h1v2h1v2h1v2h1v3h1v2h1v2h1v2h1v2h1v3h1v2h1v2h1v2h1v2h1v3h1v2h1v2h1v2h1v2h1v2h1v3h1v2h1v2h1320v-2h-1v-2h-1v-2h-1v-2h-1v-2h-1v-3h-1v-2h-1v-2h-1v-2h-1v-2h-1v-3h-1v-2h-1v-2h-1v-2h-1v-2h-1v-3h-1v-2h-1v-2h-1v-2h-1v-2h-1v-3h-1v-2h-1v-2h-1v-2h-1v-2h-1v-3h-1v-2h-1v-2h-1v-2h-1v-2h-1v-2h-1v-3h-1v-2h-1v-2h-1v-2h-1v-2h-1v-3h-1v-2h-1v-2h-1v-2h-1v-2h-1v-3h-1v-2h-1v-2h-1v-2h-1v-2"/></g></g><path style="fill:#fff;fill-opacity:1;fill-rule:nonzero;stroke:none" d="M5059.33 2134.14H0V8418.9h5059.33V2134.14" transform="matrix(.02568 0 0 -.02568 0 216.168)"/><path style="fill:#222353;fill-opacity:1;fill-rule:nonzero;stroke:none" d="M392.277 3006.94c0 82.58 3.063 108.57 13.754 140.69 26.77 84.86 92.512 127.67 180.434 127.67 83.332 0 146.015-42.81 175.844-111.63 1.531-3.82 0-7.63-3.832-9.16l-64.989-31.35c-4.574-2.3-8.406 0-9.937 3.82-16.813 36.69-45.867 67.27-97.086 67.27-49.703 0-78.738-26.75-93.266-68.8-6.894-21.4-9.183-42.05-9.183-118.51 0-76.45 2.289-97.08 9.183-118.49 14.528-42.05 43.563-68.8 93.266-68.8 51.219 0 80.273 30.57 97.086 67.27 1.531 3.82 5.363 6.12 9.937 3.82l64.989-31.34c3.832-1.53 5.363-5.35 3.832-9.18-29.829-68.81-92.512-111.62-175.844-111.62-87.922 0-153.664 42.81-180.434 127.67-10.691 32.12-13.754 58.12-13.754 140.67M1103.67 2887.68c6.12 19.12 9.18 45.87 9.18 119.26 0 74.17-3.06 100.17-9.18 119.27-14.52 42.05-45.09 68.04-97.08 68.04-51.235 0-81.805-25.99-96.328-68.04-6.121-19.1-9.184-45.1-9.184-119.27 0-73.39 3.063-100.14 9.184-119.26 14.523-42.05 45.093-68.03 96.328-68.03 51.99 0 82.56 25.98 97.08 68.03zm-280.576-23.69c-10.692 32.1-13.754 61.15-13.754 142.95 0 81.82 3.062 110.86 13.754 142.98 26.769 82.57 94.043 125.38 183.496 125.38 90.21 0 157.48-42.81 184.25-125.38 10.69-32.12 13.75-61.16 13.75-142.98 0-81.8-3.06-110.85-13.75-142.95-26.77-82.58-94.04-125.39-184.25-125.39-89.453 0-156.727 42.81-183.496 125.39M1565.09 3105.58c0 47.4-32.87 80.27-86.39 80.27h-102.45c-3.06 0-4.59-1.53-4.59-4.59v-151.38c0-3.05 1.53-4.58 4.59-4.58h102.45c53.52 0 86.39 32.1 86.39 80.28zm-275.99-358.57c-4.59 0-7.65 3.06-7.65 7.65v504.58c0 4.59 3.06 7.65 7.65 7.65h194.95c100.92 0 171.25-64.99 171.25-161.31 0-97.11-70.33-162.09-171.25-162.09h-107.8c-3.06 0-4.59-1.52-4.59-4.58v-184.25c0-4.59-3.04-7.65-7.63-7.65h-74.93M1999.74 3105.58c0 47.4-32.87 80.27-86.39 80.27H1810.9c-3.06 0-4.59-1.53-4.59-4.59v-151.38c0-3.05 1.53-4.58 4.59-4.58h102.45c53.52 0 86.39 32.1 86.39 80.28zm-275.99-358.57c-4.59 0-7.65 3.06-7.65 7.65v504.58c0 4.59 3.06 7.65 7.65 7.65h194.95c100.92 0 171.25-64.99 171.25-161.31 0-97.11-70.33-162.09-171.25-162.09h-107.8c-3.06 0-4.59-1.52-4.59-4.58v-184.25c0-4.59-3.04-7.65-7.63-7.65h-74.93M2348 2935.85l-68.8 201.84h-2.29l-69.58-201.84zm-113.9 323.39c1.53 4.59 4.57 7.65 9.94 7.65h70.33c5.35 0 8.41-3.06 9.94-7.65l175.84-504.58c1.53-4.59 0-7.65-5.36-7.65h-74.91c-5.36 0-8.42 2.29-9.95 7.65l-34.4 100.92h-195.72l-34.4-100.92c-1.53-5.36-4.59-7.65-9.94-7.65h-74.15c-5.37 0-6.9 3.06-5.37 7.65l178.15 504.58M2721 3259.24c0 4.59 3.06 7.65 7.66 7.65h74.92c4.59 0 7.63-3.06 7.63-7.65v-504.58c0-4.59-3.04-7.65-7.63-7.65h-74.92c-4.6 0-7.66 3.06-7.66 7.65v504.58M3018.84 2747.01c-4.59 0-7.65 3.06-7.65 7.65v426.6c0 3.06-1.53 4.59-4.59 4.59h-136.08c-4.59 0-7.65 3.06-7.65 7.65v65.74c0 4.59 3.06 7.65 7.65 7.65h371.56c4.59 0 7.63-3.06 7.63-7.65v-65.74c0-4.59-3.04-7.65-7.63-7.65h-136.09c-3.06 0-4.58-1.53-4.58-4.59v-426.6c0-4.59-3.06-7.65-7.65-7.65h-74.92M3488.65 2935.85l-68.81 201.84h-2.28l-69.58-201.84zm-113.9 323.39c1.53 4.59 4.57 7.65 9.93 7.65h70.34c5.35 0 8.41-3.06 9.94-7.65l175.84-504.58c1.53-4.59 0-7.65-5.36-7.65h-74.91c-5.37 0-8.43 2.29-9.96 7.65l-34.4 100.92h-195.72l-34.4-100.92c-1.53-5.36-4.59-7.65-9.94-7.65h-74.15c-5.36 0-6.89 3.06-5.36 7.65l178.15 504.58M3689.36 3259.24c0 4.59 3.06 7.65 7.65 7.65h74.93c4.59 0 7.63-3.06 7.63-7.65v-426.61c0-3.04 1.53-4.57 4.59-4.57h238.54c4.58 0 7.64-3.06 7.64-7.65v-65.75c0-4.59-3.06-7.65-7.64-7.65h-325.69c-4.59 0-7.65 3.06-7.65 7.65v504.58M4083.49 3259.24c0 4.59 3.06 7.65 7.65 7.65h74.92c4.59 0 7.64-3.06 7.64-7.65v-504.58c0-4.59-3.05-7.65-7.64-7.65h-74.92c-4.59 0-7.65 3.06-7.65 7.65v504.58M4514.36 2935.85l-68.82 201.84h-2.29l-69.58-201.84zm-113.92 323.39c1.53 4.59 4.57 7.65 9.94 7.65h70.33c5.35 0 8.41-3.06 9.94-7.65l175.84-504.58c1.53-4.59 0-7.65-5.34-7.65h-74.93c-5.36 0-8.42 2.29-9.95 7.65l-34.41 100.92h-195.71l-34.41-100.92c-1.53-5.36-4.59-7.65-9.93-7.65h-74.15c-5.37 0-6.88 3.06-5.37 7.65l178.15 504.58" transform="matrix(.02568 0 0 -.02568 0 216.168)"/><g clip-path="url(#k)" transform="matrix(.02568 0 0 -.02568 0 216.168)"><path style="fill:url(#l);fill-opacity:1;fill-rule:nonzero;stroke:none" d="m2529.67 7814.43-.01.01v-.01l-623.11-394.86 451-1050.24h344.23l451 1050.24-623.11 394.86"/></g><g clip-path="url(#m)" transform="matrix(.02568 0 0 -.02568 0 216.168)"><path style="fill:url(#n);fill-opacity:1;fill-rule:nonzero;stroke:none" d="m4212.41 6748.09-856.94 543.04s-596.57-1389.6-661.52-1540.45c-64.96-150.85-61.43-347.93-1.33-477.21 52.01-111.89 190.14-406.8 223.36-478.42 33.22-71.62 41.62-174.7 16.66-263.28-25.38-90.07-303.89-1083.63-303.89-1083.63s892.89 841.7 1004.62 947.4c110.92 104.93 135.56 289.08 76.84 428.93-24.19 57.63-33.39 80.43-93.8 224.48-60.42 144.05-73.45 321.67.54 474.02 73.16 150.63 595.46 1225.12 595.46 1225.12"/></g><g clip-path="url(#o)" transform="matrix(.02568 0 0 -.02568 0 216.168)"><path style="fill:url(#p);fill-opacity:1;fill-rule:nonzero;stroke:none" d="m846.922 6748.09 856.938 543.03s596.57-1389.6 661.53-1540.45c64.95-150.85 61.42-347.92 1.32-477.21-52.01-111.89-190.14-406.8-223.36-478.42-33.22-71.62-41.61-174.7-16.65-263.28 25.37-90.07 303.88-1083.63 303.88-1083.63s-892.89 841.7-1004.62 947.4c-110.92 104.93-135.56 289.09-76.84 428.93 24.2 57.63 33.39 80.43 93.8 224.49 60.42 144.05 73.45 321.67-.53 474.01-73.16 150.63-595.468 1225.13-595.468 1225.13"/></g></svg>