<?xml version="1.0" encoding="UTF-8" standalone="no"?>
<!-- Created with Inkscape (http://www.inkscape.org/) -->

<svg
   width="79.298157mm"
   height="76.700584mm"
   viewBox="0 0 79.298157 76.700584"
   version="1.1"
   id="svg1"
   xml:space="preserve"
   inkscape:version="1.4 (86a8ad7, 2024-10-11)"
   sodipodi:docname="描画.svg"
   xmlns:inkscape="http://www.inkscape.org/namespaces/inkscape"
   xmlns:sodipodi="http://sodipodi.sourceforge.net/DTD/sodipodi-0.dtd"
   xmlns="http://www.w3.org/2000/svg"
   xmlns:svg="http://www.w3.org/2000/svg"><sodipodi:namedview
     id="namedview1"
     pagecolor="#ffffff"
     bordercolor="#000000"
     borderopacity="0.25"
     inkscape:showpageshadow="2"
     inkscape:pageopacity="0.0"
     inkscape:pagecheckerboard="0"
     inkscape:deskcolor="#d1d1d1"
     inkscape:document-units="mm"
     inkscape:zoom="0.53273008"
     inkscape:cx="177.38814"
     inkscape:cy="73.207806"
     inkscape:window-width="1368"
     inkscape:window-height="842"
     inkscape:window-x="-6"
     inkscape:window-y="-6"
     inkscape:window-maximized="1"
     inkscape:current-layer="layer1" /><defs
     id="defs1" /><g
     inkscape:label="Layer 1"
     inkscape:groupmode="layer"
     id="layer1"
     transform="translate(-58.238516,-129.31401)"><path
       style="fill:#000000"
       d="m 82.050381,205.1381 c -8.506699,-3.73414 -15.51364,-10.47148 -19.572731,-18.81962 -1.716767,-3.53079 -3.097308,-7.46061 -2.737181,-7.79161 0.238686,-0.21937 6.17503,-1.18969 6.294199,-1.02881 0.03633,0.049 0.338398,0.92261 0.671266,1.94126 2.473882,7.57061 8.654042,14.80231 15.924558,18.63408 l 1.720965,0.907 6.794802,-3.48356 6.794802,-3.48356 6.777109,3.47449 6.77711,3.47449 1.22654,-0.59485 c 3.94995,-1.91567 8.74916,-5.95613 11.65479,-9.81219 1.75564,-2.32991 3.93421,-6.46771 4.79958,-9.1159 0.33286,-1.01865 0.63957,-1.89685 0.68157,-1.95157 0.16996,-0.22142 6.24891,0.88864 6.35308,1.16012 0.19302,0.503 -1.74431,5.69674 -3.14104,8.42073 -3.08769,6.02182 -7.54026,10.97284 -13.30062,14.7896 -2.54797,1.68826 -6.73877,3.81293 -8.03026,4.07123 -0.6501,0.13002 -1.92008,-0.41841 -7.28481,-3.14591 l -6.497454,-3.30339 -6.423943,3.2665 c -3.533169,1.79657 -6.662068,3.26716 -6.95311,3.26796 -0.291042,8.1e-4 -1.429191,-0.39361 -2.529222,-0.87649 z M 111.7561,194.91273 c -0.51553,-0.90274 -0.70094,-1.03482 -1.25677,-0.89532 -1.07067,0.26872 -0.75955,-0.35498 0.59883,-1.20046 0.85419,-0.53167 1.30961,-0.68348 1.43615,-0.47874 0.10191,0.1649 -0.001,0.43611 -0.22892,0.60269 -0.368,0.26909 -0.3364,0.43567 0.2832,1.49293 0.38358,0.65453 0.61824,1.26923 0.52147,1.366 -0.38281,0.38281 -0.77578,0.12535 -1.35396,-0.8871 z m 1.94093,-1.49586 c -0.79213,-1.73025 -0.80508,-1.83237 -0.25886,-2.04198 0.24179,-0.0928 0.81539,0.14455 1.37034,0.56701 l 0.95447,0.72658 -0.18178,-0.66145 c -0.1,-0.36381 -0.25047,-0.91813 -0.33442,-1.23183 -0.11441,-0.42748 -0.01,-0.61581 0.41888,-0.75176 0.31434,-0.0998 0.59994,-0.14076 0.63467,-0.0911 0.0347,0.0497 0.51524,0.6545 1.06781,1.34409 0.84842,1.05877 0.9366,1.2799 0.56697,1.42174 -0.24074,0.0924 -0.46995,0.1235 -0.50936,0.0691 -0.0394,-0.0544 -0.3485,-0.45602 -0.68688,-0.89258 l -0.61523,-0.79375 0.18169,0.79375 c 0.0999,0.43656 0.24378,1.0027 0.31966,1.25808 0.23828,0.80189 -0.65305,0.86287 -1.45014,0.0992 -1.0147,-0.97215 -1.19291,-0.86822 -0.578,0.3371 0.43682,0.85623 0.46264,1.05762 0.15093,1.17724 -0.25906,0.0994 -0.5859,-0.31413 -1.05075,-1.3295 z M 85.505645,168.19453 v -4.23333 h 3.175 c 1.74625,0 3.175,0.0418 3.175,0.0928 0,0.0511 -0.13071,0.46776 -0.290467,0.92604 -0.285408,0.81872 -0.320257,0.83323 -2.001138,0.83323 h -1.710673 l 0.08291,0.8599 c 0.0795,0.8245 0.134635,0.86321 1.33968,0.94053 0.691224,0.0444 1.256771,0.1259 1.256771,0.18122 0,0.0553 -0.113251,0.39844 -0.25167,0.76251 -0.197684,0.51995 -0.467271,0.67972 -1.256771,0.74483 l -1.005101,0.0829 -0.07935,1.52135 -0.07935,1.52136 h -1.177421 -1.177421 z m 7.408333,0 v -4.23333 h 1.322917 1.322916 v 4.23333 4.23333 h -1.322916 -1.322917 z m 4.497917,0 v -4.23333 h 3.282525 3.28253 l -0.28421,0.92604 -0.28421,0.92604 h -1.6754 -1.6754 v 0.92604 0.92604 h 1.30915 1.30915 l -0.27156,0.77902 c -0.225,0.64544 -0.43814,0.79288 -1.24301,0.85989 l -0.97144,0.0809 -0.0794,1.52136 -0.0794,1.52135 h -1.309713 -1.309712 z m 5.552705,4.0349 c -0.002,-0.10915 0.6654,-2.01415 1.48301,-4.23334 l 1.48656,-4.03489 h 1.3769 1.3769 l 0.41656,1.25677 c 0.22911,0.69122 0.90313,2.59622 1.49783,4.23333 l 1.08128,2.97656 h -1.28418 c -1.06167,0 -1.30816,-0.0917 -1.42256,-0.52916 -0.11907,-0.45532 -0.3609,-0.52917 -1.73282,-0.52917 -1.36207,0 -1.61892,0.0771 -1.76239,0.52917 -0.13468,0.42432 -0.40033,0.52916 -1.34075,0.52916 -0.64504,0 -1.17439,-0.0893 -1.17634,-0.19843 z m 5.27471,-2.91042 c -0.0345,-0.7785 -0.93194,-3.09753 -1.09537,-2.83043 -0.0844,0.13791 -0.29115,0.7642 -0.45947,1.39177 -0.16833,0.62756 -0.37173,1.31217 -0.45199,1.52135 -0.11231,0.29267 0.1045,0.38033 0.94069,0.38033 0.86632,0 1.08248,-0.0939 1.06614,-0.46302 z m -49.815463,1.73326 c -0.628753,-2.34744 0.417663,-10.13014 2.002865,-14.89628 3.557633,-10.69654 12.517391,-20.14362 22.823112,-24.06447 3.752374,-1.4276 5.541896,-1.88045 10.52405,-2.6632 l 0.727604,-0.11431 v 6.73522 6.73522 l -0.727604,0.14945 c -1.780747,0.36578 -4.238638,1.02023 -5.027084,1.33855 l -0.859895,0.34716 v -3.5762 -3.5762 l -0.595313,0.17597 c -0.327422,0.0968 -1.636002,0.62887 -2.907955,1.18242 -6.466631,2.81424 -12.42509,8.49607 -15.77,15.03785 -1.306152,2.55449 -2.731158,6.58532 -3.078752,8.70868 -0.22024,1.34539 -0.381407,1.31517 3.626549,0.67995 1.56094,-0.2474 2.905385,-0.3825 2.987656,-0.30023 0.08227,0.0823 0.02643,0.90858 -0.124095,1.83624 -0.150522,0.92766 -0.274577,2.3618 -0.275676,3.18698 -0.0023,1.76298 0.803041,1.44683 -6.616582,2.59727 -2.837656,0.43998 -5.471324,0.86494 -5.852597,0.94434 -0.561857,0.11702 -0.724122,0.029 -0.856283,-0.46441 z m 72.325543,-0.48749 c -3.41974,-0.56004 -6.28951,-1.0248 -6.37727,-1.0328 -0.0878,-0.008 -0.23218,-1.11586 -0.32093,-2.46193 -0.0888,-1.34607 -0.23773,-2.87447 -0.33108,-3.39645 l -0.16971,-0.94905 2.87189,0.47362 c 4.2629,0.70302 4.14456,0.72187 3.93021,-0.62604 -0.32128,-2.02027 -1.9866,-6.62937 -3.28982,-9.1052 -3.33734,-6.34023 -9.23246,-11.8858 -15.56418,-14.64133 -1.27196,-0.55355 -2.58054,-1.08564 -2.90796,-1.18242 l -0.59531,-0.17597 v 3.5762 3.5762 l -0.88699,-0.3706 c -0.78004,-0.32592 -2.726,-0.83668 -4.99999,-1.31236 l -0.7276,-0.1522 v -6.7252 -6.7252 l 0.99218,0.13325 c 8.05745,1.08213 14.45107,3.78058 20.52762,8.66375 6.86674,5.51818 11.92422,13.77934 13.78848,22.52285 0.858,4.0241 1.15596,11.04936 0.46462,10.95468 -0.10255,-0.014 -2.98442,-0.48376 -6.40416,-1.0438 z"
       id="path1" /></g></svg>
