<?xml version="1.0" encoding="utf-8"?><!-- Uploaded to: SVG Repo, www.svgrepo.com, Generator: SVG Repo Mixer Tools -->
<svg width="800px" height="800px" viewBox="0 0 64 64" xmlns="http://www.w3.org/2000/svg" xmlns:xlink="http://www.w3.org/1999/xlink" aria-hidden="true" role="img" class="iconify iconify--emojione" preserveAspectRatio="xMidYMid meet"><path d="M11 32v21.4c5.4 5.3 12.8 8.6 21 8.6c16.6 0 30-13.4 30-30H11" fill="#83bf4f"></path><path d="M11 32h51C62 15.4 48.6 2 32 2c-8.2 0-15.6 3.3-21 8.6V32" fill="#42ade2"></path><path d="M11 10.6C5.4 16 2 23.6 2 32s3.4 16 9 21.4L32.4 32L11 10.6z" fill="#f9f9f9"></path><path fill="#c94747" d="M14 35.7l4.3 3.3l-1.6-5.3l4.3-3.5h-5.3L14 25l-1.6 5.2H7l4.3 3.5L9.7 39z"></path></svg>