<svg xmlns="http://www.w3.org/2000/svg" xml:space="preserve" style="enable-background:new 0 0 640 480" viewBox="0 0 640 480"><path d="M-1 0h640v480H-1z" style="fill:#0061ff"/><path d="m296 177 1 1-2-1h1zm-135-41h-1l-2-1 2-1v-1h1l-2-1h-4l-1 1 2 1-1 2-2-1-1 1 4 3 2 1 1-1c1 0 4-1 2-2h1l-1-1zm133 41 1 1v-1h-1zm-104-26c1 1 2 2 3 1v-2c-1-2-4 0-3 1zm9-11h-3l-2-3-4-1h-1l-2 1-1 1c-1 0-2 0-1-1v-2l-1-1-1-1h-1l-4 1v-1h-4c-1 1-2 1-2 3l-1 2v2l4 1h-3l2 2h1c2 0 1 0 1 1h6l1 1v-1l2 1-2-1h5l-1-1c1-1 1 0 1 1h1v1c1-1 3 1 3 1l-1 2 2-1 1 1 2 1 1 3c1 0 0 0 0 0l-3 3s2 1 1 2h-5l-1 2 1 1h4v-1l1 1c1-1 1 0 2 1l2 1h-2l2 1 2 1 1 1 5 1v-1l-2-1-2-1v-2l1 1v-1l3 2 1 1v-1l1 1-1-2 1 1v-2l-2-1v-2l-2 1v-2h-1v-2l1 1-1-2h2l1 1h2l-1 1c1 1 1 2 3 2v-2l2-1h-1 2l-1-3-2 1v-1l-2-1-1-2-5-2h1v-1h2-2l-1-1h2l-1-2-2 1-1-1 2-1s-3-2-4-1h-1l1-1zm-47-14h-1 1c-1 1 1 1 2 1h3-1l-1 1h1-1l1 1h1l3-1h-1v-1h1v-2l-1-2h-4c-1 1 1 1 1 1h-1l1 2c0-1-3-4-3-2h1v1l-2 1zm0 20c0-2 1-1 2-1 1 1 1-1 1-2-1 1-3 0-4-1l-2-1v-2l-2-4-2-1h-1v2l1 3-1-1-1-2-3-1 1 1h-1l-1 1v-1l-3-1v1h-2l1-2h-2l-5 2 1 1-2 2h5l-3 2 1 1h4l4 1h-3l-5 1c1 3 4 2 6 2l1 2h5l2-1 2-1h1-1l3 1h-1 5v-1h-2v-1l1 1zm5 1v1l1-1v1-1l3 1 2-1-3-2h-1l-1 1-1 1zm138 29h1v-1s-2 0-1 1zm-109-15h-3c1-1-2-3-2-3h-3v-2l-1 2-1 1 1 1-2 2 2-1 1 2 2-1 1-2c0 2 2 2 3 2l2-1zm-18-32h2l1 1 1-1 1 1v-1l1 1h7v-1l1 1h4l1-1-1-1h1c-2-2-3-3-5-2h-3l-2 1h-3l-2-1-2-1 2-1h-1l-1-1h-3l-2-1h-3v2h3l2 1 1 2v2zm26 21c-1 1 2 1 2 1 0-1-1-2-2-1zm-21-45-2 2h4l4-1-4 1-3 1h4l3-1-3 2h3l1-1h2-1 2l-1 1h2l2-1 4-2-2 1 2 1-8 2 2 2-4-2h-3c-2 2 1 2 2 3l2 3h-6c-1 2 0 2 2 2l2-2c-1 2-2 3 0 4 1 1 3-1 3-2-1 2-2 3-4 3l-2-2h-2c0 1 0 2 2 2l-3 1h-1v1h1c0 1 2 2 2 0l2 1h3l1-1c0 1 2 2 2 0l1 1 1 1 2-1h2v-2h-2l2-2v-1h2l2-2h-2l3-1-3-1h3l-4-1 6-1v-1h2l2-1h-2l3-1 3-2c1 0 5-1 5-3l-8 2 5-2h-3l6-1 5-2-5-2-5 1 2-1-5-1-5 1 1 1-3-2h-4l3 2-3-1-3-1-1 1h-2l-2 2 5 2-5-1-2-1-2-1v1h-2l1 1c-1 0-4-1-5 1-1-1-2 0-4 1l3 1 2-1zm-18 14h-2v1l2-1zm31 48 1-2-1 1v1zm105 23h-1c2 2 4-1 5-1h1l1-2-1-2 1-2-1-1h-1c-1-1-2 1-3 1l1 1h-2v1l-1 1 2 1-1 1h1-1l-1 1h1l-1 1h1zm-111-25v1c2 0 3-1 3-3l-1 1h-1l-1 1zm-14-37s-1-2-2-1l-3 1 3 2c1 0 2 0 2-2zm-17-12 1-1 1 1-3 1c1 2 3 0 4 0l2 1 1 1s3 0 2-1l-1-1v-1h-2c1-2-2-1-2-1l-2-2c-1 1-2 0-3 2h2v1zm0 5c0 1 1 0 0 0v-1l-2-1v2h2zm9-10c0-1-3-1-2 1 1 0 3 1 2-1zm3 7h-2l2 1h1l1-1 1-1h-2l-1-1h-2l-1 1 3 1zm-23 0c-1 1-2 0-2 2l2 1 3-1v-1h-1l2-1h-4zm3 6 1 1-1 1 2 1h-4l-1-1-2-2h-4l2 1h-3v1h3l-4 1 4-1-4 2h2v1h1c-1-1 0-1 0 0l2-2v2l2-1h2l-5 2h5l3-1h2l1-1h1l2-1-1-2c-2 0-1 1-1 2l-1-1-1-2c-1 0 0-2-2-1l-1 1zm20-13 3 1-1 1c-1 0-1 0 0 0l1 1 1-1v1l1-1s0 1 0 0h3l-2 1h3l-5 1h1l-1 1h3l-1 1 4 1-1-1 2 1-1-2 2 2v-2c2 1 0-1 1-2l1 2v-1l4-1-2-2v1h-2c1-2 1-2-1-2 1-1 0-2-1-2l1 2-2-1v-1l-2-1-3-2h-3l2 1c0 1-2-1-3 1h2l-3 1-1 1h4l-1 1h-3zm-12 14c1 0 3 1 3-1l-3 1zm-19 0-3 2h2l1-2zm166 53zm-150-44h1l1 1 1-1-1-2c-1 1-2 0-2 2zm5-6-2-1c-1 2 1 1 2 1zm-2-5v1h3l-1-1h-2zm17-3v-1l-4 1h4zm20 15 1 1 2-1 3 1-3-3h-2l-2-1v2l1 1zm-17-15 1 1h2c0-1-2-2-3-1zm1 3 2 1-1-1h-1zm356 7 4-1 1-1h-4v-1h-2l-2 1 3 2zm-143 10 4 2h4c-1-1-3-2-3-4s2-3 3-5l2-2 2-1 4-3 5-1c1-1 4-1 5-3 0-2-4-1-5 0l-4 2h-5l-4 2-3 3-2 2v2l-2 1v2l-1 1v2zm4-30h-4l2 1 2-1zm6-4-1-1 2-1-3 1-3 1 3 1 2-1zm0 37c0 1 2 3 3 2l-2-2h-1zm2-32h-2l1 1 1-1zm-3-3-3-1-3 1 3 1 3-1zm-15 1-2 1 4 1-1-2 5-1h-5l-5 1h4zm1 39 2-1-1-1c-2 0-2 1-1 2zm-40-4 3-2-1 1h-2v1zm-200-27h4l-3-1-3 1h2zm255-8-4 1c0 2 3 1 4 1l-1-1h2l-1-1zm118 20 2 1 1-1c1 1 2 0 3-1l1 1h2l-1-1h2l1-1-4-2h-2v2c-1-1-3-3-4-2l-2 2 1 2zm-215 53v-1 1zm221-48h3l-2-1-1-1c0-1-1-2-2-1s0 1 1 2l-2 1h3zm-114-26v-2h-1l-1 1-2 1h4zm-9 1 2 1 2-1c1-1-1-2-1-2l-3 1v1zm60 9 4-1 1 1 2-1h2l-1-2-1-1h-2 1-3l-3 3v1zm-12-6 3 1 3 2h6v-3h-3l2-1-3-1 1-2-3-2-1 1h-2l-1 2-2 1-1 1 1 1zm132 30h1l3-2-1-1h-3l-2 1v2h2zm-244 4-1 1h1v-1zm-4 4v-1 1zm2-3-1 1h1v-1zm-27 27v-1l-1 1h1zm39-31v-1h-2l2 1zm-43 38v-1 1zm31-32h-1 1zm-31 32 1 1-1-1zm0-4v2h-1v1l1-1h1l-1 1v2-1l1-1c-1 0 0 1 0 0v4-1h3v4-1 1h-2v-1l-1 2h1v1l-1 1h1l1 1 2-1-1 1-2 1-2 2h3c1-2 1-1 2-1l2-1h4c1-1-1-1-2-1 1-1 2-1 2-3h-2c1-1-1-2-1-2h1c0-2-2-2-2-3-1-2-2-2-3-2l1-1c-1-1 2-2 1-3h-4l1-1h-1l2-2-2 1h-1c0-1 0 0 0 0h-1v1h1-1v1zm2 7-1 1h1v-1zm31-36 2-2-1 1-1 1zm3-4-1 1h1v-1zm-2 2c0 2 1 0 2 0h-2zm4-2h-1v1l1-1zm-5 3-1 1v-1 1h-1v1h1l1-1v-1zm-2 3h-1l1 1v-1zm1-1v1l1-1h-1zm7-5-2 1h1l1-1zm1 0h-1 1zm74-10-1 1h2l-1-1zm88 93v1l1-1v2s0 3 1 2l2-3-1-1-1-1 2-1h2l3-1v3l2-2v-1l3-1v1l1-1v1l2-1v-4c0-1 0-2 1-1v-2l1-2-1-1v-2l-1 1c-1-1-2 1-2 2l1 1-1 2-2 2-1 1v-1l-1 1-1 1-1 2-1-1-3 1-3 2-2 2zm-2 52-1 2v3l1 1s0-2 1-1l-1-2v-1l1-1-1-1zm34 45-1-3-1 1-1-2-1-3-3-2-1-3-1-3c0-1-1-2-2-1l-2-6-1 3v3c0 2-1 6-3 5l-2-1-3-3-1-2 2-3-3-1h-4v1c-1 0-2-1-3 1l-1 3-4-1-2 1c-2 2-4 3-5 6l-2 2-5 2-3 1-2 3v-2l-1 6v2l1 3 2 6v3l-1 2 3 2h3l2-2h5l1-1 2-2h3l2-1 7 1 2 2 1 2c2-1 3-2 3-4 1 2 0 3-1 5l2-2 1 3 1 2c1 3 2 3 5 4l2-1c1-1 1 0 2 1l2-1 3-1c2 0 2-3 2-5 1-2 3-3 3-5l2-7-1-6-3-2zm-37-35c-1 1 1 1 2 1l-2-1zm7 13-2 1h2v-1zm33-10v-2h-1v-1l-3-1c0 1 4 1 3 3l1 1zm-8 63-2 1-2-2v4c1 2 1 2 3 2 1 1 3-5 1-5zm3-62h-2c0 1 2 2 3 1l2-1v-2 1s-3 2-2 0l-1 1zm-6 0-1-2-2-1-3-2-5-2-3 1-1 2-2-1v-2l-2-1c-1-1-2 0-3 1h1l1 1h2v1h-3l2 2 1-1 1 2 4 1 2 1 1 3c-2 0-2 0-2 2l3-1 2 2h3l1-2h3l3 3 2 1h2l-1-1-1-1-2-2-1-1v-1h1c0-2-2-1-3-2zm-5-101-1 3 1 2-1 2v1l1 3 1-2 1 1-1-2v-2l1-3 2 2-2-4v-2l-1-1v-4c0-1 0-3-1-2v2l-1 1v3l1 2zm-27 76v-1 1zm-1 0 1-1v-2c-1 1-2 2-1 3zm2-3h-1v1c1-1 1 1 1 1v-1 1-2zm-2-1 1 1v-1l-2-1v1h1zm1-1 1 1v1c1 1 1 0 1-1l-2-1zm-4 1c0 2 0 3 2 2v3-1l1-2-2-2h-1zm-3 22-1 2v1l1 1v3h1v-4l1-1v2l1 1 1 1 1-1-1-1v-2l-1-1c1 0 1-2 3-2h-3c-2 2-3-1-2-2h4c2 1 3-1 3-2l-2 1h-4l-2 2v2zm1-24 1 2v-2h-1zm-8 35c0 1 0 2 1 1s-1-1-1-1zm38-89v1l-1 1 1 2 1-1-1-1h1l1-1 2 2 1-2h1l2-1v-2h-3l-2-2c-1-2-1 1-1 1v3h-2zm-195-26 1 1v-1h-1zm37 41h-3c-1 2 2 1 2 1l1-1zm-12 1-2-1-2-1v1l4 1zm-23-43 1 2v1l1-2c2-1-2-3-1-1h-1c1 0 0 0 0 0zm18-6h-2v1l2-1zm-22 39v2h1l1-1v-2c0-2-2-1-2 0v-1 2zm270-52-2-1 1 2h4l-3-1zm-256 16 2-1v-1l-2 2zm4-7h-1 1c0-1-2-1 0 0zm-18 39 1 1v-3 1l-1 1zm219 84-1-1 1 1v1s2 0 1-1h-1zm-32-67h1l1-1c0-2-3 0-3 0l-1 2 2-1zm-9 62 1 1 1-1 1 1h2l-3-2-2 1zm68 67v-2l-2 2-1 1v1l-2 2-1 1h-1l-3 4c-1 1 2 1 2 1h3l2-3 2-2 1-2 2-2-1-2-1 1zm-8 11v1-1zm15-18h-2l-1-2h-1l-1-1v-1l-1-1-2-1 1 2h1l1 3v2l-1 2 1 1h1l-1 3h2l2-4h1v-1c1 0 2-2 0-2zM309 215l1 1 1-1h-2zm277-58-1 1v2l-2-1h-2l-1-2-4-1s1-1-1-1v2c0 2-4 2-4 2l1 2 2 3-1 1h-1l-3-1-5 4c-2 1-4 1-4 3l-4-1-2 2v-2l-3 1h-1l-3 5 2 1v3c-1 0-3 1-2 3l-1 1-2 1-1 2-1 2c0 2-2 2-3 3-1-4-4-13 1-16l4-3 3-3 3-2v-3h2l-2-1-2 2-3 3v-3l-3 1h-2l-4 4 1 2h-6l2-1h-14l-6 6-6 5h1l1 1 1 2c1 0 2 0 2-2 1-1 5 2 4 3l-1 7-3 6-3 5-3 3-3 1-1-1h-1l-2 3c0 2-2 3-3 5 1 1 3 3 2 5l-1 3-3 1v-7h-2v-3l-1-1-3 1-2 2 2-4h-2l-2 1-2 1-1 2 2 2h5l-5 5 2 2 2 3h-3l3 2-2 1 3 1-4 7c-1 1-2 4-4 4l-7 3-2 1-1 1v1l-1-1 1-1h-3l-3 2-1 2 2 3 2 2 1 4v3l-6 6v-3l-2-2-4-2v-1l-1 2-1 3v1l1 1 1 3 2 2 2 2v3l1 3-3-2-2-3-1-4-3-3v-8l-2-7-1 2h-2l-1-1v-2l-2-4-2-4-2 1-4 1h-1v1l-2 2-5 5-2 1-1 3v3l-1 3 2 3 1 3c1 1-2 3-2 1v-4l-2-2v2l-2 1-5-11-2-3v-10l-2 2-1 1-3-3 2-1-1 1-3-2-1-3-6 1-6-1-2-1c-1-2-1-2-2-1h-4l-2-2-2-2-1-2c-2-1-2-1-3 1l1 3 3 5v-2l1 3h4l3-4 1 4 2 1h1l1 2v1l-2 3v-1l-1 3-1 1-2 1-1 2h-3l-1 2-4 2h-1l-1 1-3 1-2 1-2-1-1-5c0-2-1-4-3-5 0-2 0-2-2-2v-3l-2-3-1-2-2-4-2-2v-2l-1 3-2-4c-1 1 0 3 1 4l3 5 1 4 1 1 1 3v2l2 2 2 5h1l2 2c1 1 3 2 1 4l3 2 8-2h2l-1 3-3 6-2 4c-4 3-7 6-9 10l-4 6 1 4 1 2c2 2 1 5 1 8l-3 4-2 1-3 3-1 2 1 3v4l-3 1-1 3v3l-4 5-3 2-2 2-7 2h-3l-2-1-1-3v-3l-2-4-2-2v-2l-1-5-2-5-2-4v-2l2-7v-6l-2-7-1-2-3-4v-2l1-4-1-3-2-1h-3l-2-3-6 1-3 1h-5l-4 1-1-1-4-2-3-3-5-8-1-3 1-2v-6l-1-4 1-1 4-8 4-4 2-1v-5l5-3 1-3 2 1h3l3-1 6-2h5l3-1 3 1v3l-1 2 2 2 5 1 2 2 3 1h3l-1-2 1-1h4l3 1v1h1l4 1 2-1h3c1 1 4 1 5-1 0-1 2-5 1-6l1-3h-2l-2 1h-1l-2-1h-2l-1 1-2-1c-1 0-3-4-2-5h-1l2-2h3l-1-1h2l3-1 2-1h2l1 1h1l2 1h3l3-1v-2l-3-2-2-2h-1l-2-1 1-1h1l1-1-1-1h1l1-1h-1l-2 1v-1l-3 2 1-1c-2 0-1 1-1 2h3l-2 1-3 1-2-2 2-1h-2l-1-1h2-3l-2 2v1l-1 1-1 3v2l1 2h-2l-2 2 1-1-2-1h-3v1h-1v3l2 2h-2l1 1v2l-2-1h-1c0-2-1-2 1-3l-2-1-2-2v-3l-1-2-4-2-1-2-2-2c0 2-1 1-1 0h-1l-1 1 1 2 1 1 1 2 2 1c1 0 2 0 1 1 0 0 4 2 3 3l-2-1v4s-2 2-2 0v3h-2c0-1-4-1-2-3l2 1 2-1 1-1-1-2-1-1h-1l-1-1-2-2-3-2-1-2h-1l-4 2-3-1-1 1v2l-3 1-3 4 1 2-1 2h-1l-1 1h-3l-2 1c-1 1-2-1-1-1l-2-1-2 1v-3h-1v-2l1-4v-2l-1-1 2-1h9c2 0 1-3 1-4l-1-2v-2h-2l-1-1h-1l1-1h-1l2-1c1-1 0 1 1 1l2-1-1-2 1 1h3-1l2-1 1-2 2-1h1l-1-1h1l1-2 1-1 3-1c0 1 0 0 0 0h2l1-1-1-1v-2l-1-2 2-2 2-1v3c0 1-2 1-1 3 0 1 1 2 2 1v1c1 1 2-1 2-1l2 1 1 1v-1h-1l4-1h3v-1l2 1v-1h1l1-1-1 1c2 1 1-2 0-3l1-2 1-1c1-1 2 1 3 1l1-1v-2h-1l-1-1v-1l4-1h3l2-1h1l-2-1v-1l-7 2h-2l-1-1-1-2v-4l1-1 3-3 1-1 1-1-2-2-3 1-1 3c1 1-4 3-4 3-1 2-3 4-2 6l3 2-2 2-2 2v4l-3 1v2h-1l-1-1v-1l-2-3v-1l-1-2v-1l-1-1-1 2-2 2c-1 0-4 0-4-2l-1-6c0-2 0-2 2-3l2-1 2-2 3-2 3-5 4-5c2-2 3-4 5-4l6-3 2-2h2l-1 3 2-3v2l2-2h1l-1 1h2l3 1-1 1h-3l2 1h1l2-1 2 1h-2c0 2 3 1 4 1l3 1 4 2 3 2v2l-2 2h-3l-8-3c1 1 3 2 3 4l1 3 4 2-1-2-1-1h3l3 1-1-2 2-2 2-1 3 1v-2l-1-1 1-3-1-1h3l2 2-3 1 1 2h2l1-2 2-1 2-1 5-2 1 2 2-1 3-1h2v1c1 0 1 1 2-1 1-1 0-1-1-2h7l4 2 2 2 1-2-3-3v-2l-1-1 3-3 1-3 6 1-2 3 1 2v6c1 0 2 0 2 2l-2 2-3 2h-2c1 1 3 2 4 1 2 0 3-2 4-3s-1-3 1-4h2l2 2-1-3h-5v-5l-1-2 2-2v-2l2 2v3l5 1-4-2c-2-1 1-2 2-2h4l1 1h2l-1-2h-2l-1-3 6-1h4v-2l1-2 3-2 6-1 11-2 1-2 3-2 4 1-3 1 5 1-2 1 3 1v-2h5l3 3 1 1-1 1-12 8 8-2-2-1h7l8 1-2 1 3 1h2l3-1 1-1h3l3-1 2 2-1 3 1 3 2 1c1 1 2-1 2-2h7l2 1 3-1-1-2 2-2 5 1 4 1 5 1 3 3 5-1 5 1 1 1v2l4 1h9l2 2h2l-1-4 8 1 5 2 7 4 2 2c0 1 0 2 2 2l-1-2 4 1 3 2-2 1-3 1zm-200 54v-1c-2-1-2 1-2 2v-3l-2-1v-2l-1-1h1v-1h4l-1 2 2-2-2-1v-2l-1-1h-2l-2 1c-1 0-1-1-1 1l-2 1-1 1-1 1 1 2 1 3 2 2 2 2-2 1v3l1 1 1 1 2 1 3-1v-3l-1-2v-1h-1v-2l3 1-1-2zm-252-88h2l-1-1-1 1zm55 130 1 1h2l-1-1h-2zm-6-50v-1 1l-1-1h-1l2 1zm-3-1zm1 1v-1l-1 1h1zm41-11 1-1c-2-1-3 1-3 2l-3 4v2h1l5 1-1 1 3-1v1h2l-1-4-1-1v-1h-3v-1h-1l1-2zm-17 62 2-1-2 1zm-12-3 2-1-2-1h-1l-2-2v1l-6-3h-3l-2 2c1 1 3-3 4-1l1 1h1l2 1 2 1 1 1-1 1h4zm17-51c-1 1 0 2 1 2l2-1h-3v-1zm-1-6c1 1 3 3 4 2l-4-2zm44 101-1 4-4 5-1 3-1 9-3 5-1 2h-3l-6 4v3l-1 2-4 6-4 6-6-2c0 2 2 2 3 3v3l-1 1c-1 2-2 2-4 2h-4l1 3-1 1h-4v3l1 2-1 3-2 1-1 2 1 2 1 1-1 2-1 2-2 2v5l1 1 2 2 4 1-5 2h-2l-6-3-2-2c-1-3-3-5-2-8l1-12 2-12 2-15 2-9 1-4-1-4v-3l-2-2-4-2-2-3-4-8-4-7 1-5 1-3 2-2c1-2 3-3 2-6v-3s-2-1-1-2l-1-1h-1l-1 1v1l-1-1h-3l-1-1-3-2-1-2-4-4c-1 0-4 0-5-2l-3-3-3 1-5-2-4-2h-2l-2-3v-3l-2-3-2-1-3-3 1-1-1-1-2-3-2-2-1-3-3-1 1 4 3 3 1 2 1 2 1 2c0 1 0 0 0 0l1 2h-1l-3-3v-2l-1-1-1-1-2-1c1 0 2 0 1-1l-2-2-1-3-1-3-4-3-2-1-1-4-3-4-1-7 1-6-1-5 3 1-1-3-3-3-2-1c-2 0-2 0-3-2s-3-3-3-5 0-1-2-2h-1l-2-3-2-1-3-4-2-1-6-3h-2l-3-2h-3l-1 1c0 2-4 3-5 3v-1l1-3h3l-1-1 1-1-5 2-3 4 2 1-5 4c-1 1-3 1-3 3l-5 2h-2v1h-3l3-2c1 0 3-2 4-1 0-1 2-3 3-2l1-3 1-1v-1h-3l-2-1-2 1-1-4-2 2-2-2-1-3 1-2 2-2c1 1 1 0 2-1l2-1v-1l1-1h-4c-2 1-4 1-5-1h1l-3-1 4-2h-1l3-1 2 2 2-1-1-1h1v-1l-3-1-2-1-3-2 1-1v-1h3l2-3 5-2 3-1h2l6 1 5 1 5 1 8 2 5 2 3-3 2 1 5-2-4 2c1 1 5-2 5-1l2-1v-1l3 4 2-3v2h2v-1h1l3 1 6 2 3 1c1 1-1 1-1 2h9l2 3v-3l3-2-4 1c0-2 1-1 2-2h2l1 2h1l3 1h5l2-2 3 1-1 2 2 1v-3l2-1v-1h-1c-1-1 0-1 1-1l-1-1-3-1v-3c0-1 0-2 1-1v-1l1-2-1-2v-2l2-1c-2-1 1-1 2-1l4 1-2 3h-4c3 1 0 2 0 3 1 0 2 1 2 3l2 2-2 2h4l-1 1 1 1v2l1-2 1-1 2 1-1 2v-1c-2 2 3 5 3 3v-1l1-1 1-2-1-2 2-1 3 1 2 1-1 2h-1l1 2v2l-2 2-2-1 1 2-1-1v1l-1-1h-2l1 1-1 2-3-1-4-1 3 2h3l-1 3-1 1h-5l-2-1 1 1v1h2v1l-2 1-1 1-2 4-1 4 3 1 1 3h2l2 1 5 2 2 2h5l-1 4c0 2 2 3 3 5 1 1 3-1 3-2l-1-4-1-2 4-2v-5l-1-2-1-1 1-2v-5l1-2 4 1h2l2 2 2 1 1 1v3h1l-1 2c1-3 4 4 5 0h1v-2l2-2v1l3 4 2 3-1 1 1 1 1 1v1l3 1 1 1-3 1 2-1-2 1v1l1-1h2l-1-1 2 1-1 1h2v4l-1 1h-2l-2 1c-1 1-2 2-3 1h-5c-2 0-3 0-3 2l-2 1-2 1-3 3c2 0 3-2 5-3 1-1 5-3 6-1h-1v2h-2l1 1 1-1-1 2h1l1 2h3v1h1c-1-1 1-3 1-3v2h1l-2 1h1l-3 2h-2l-2 2h-1c-1-2 1-3 2-3h1l1-1h-2l1-1-3 1v1h-1l-3 1-2 1v1c-1 1-2 4 0 3v1l-2-1v1l-4 1h3-1 1l-2 1h-1l-2 3v-2 3l-1 2 1-1-1-1v-2l-1 3-1-1 2 1-1 1 1 2-1 1h1l-1 1h-1l2 1h-2l-1 1-1 1-1 1-3 3v3l2 4v4h-2l-1-1v-2l-1-1v-3l-3-1h-1l-2-1h-2l-4 1c1 0 3 0 2 1h1l-1 1-1-1v1l-1-1h-2l-1-1-3 1-4 4 1 2-1 1-1 3 2 6 2 3 1 1 2-1h3v-1l1-1 1-3h3l2 1-2 2h1l-1 1h1l-1 2v-1 3l-1 2h7l1 3v2l-1 1c0 3 3 6 5 6l3-1 3 2 2-5 3-1 3-1 3 1 8 2 4 1 6 6 5 1 4 4 3 4 1 1 6 3 6 2c2 0 4 2 5 3l2 1 1 1zm-66-87-2 1-2 1h-1l1-1h-1l-1 2h1c1 1 2 0 3-1l3-1-1-1zm2 0c1 1 3-1 2-2l1-1-2 2h-3c-2 2 1 0 2 1zm-21-7 2-1v1c1 1 3-2 4-2l-1 2h6c-1 0 0 0 0 0l1 1h-1l-3 1v-1l-1 1v-1l-1 3 1-1v2l-1 2c0 1 1 4 2 2v-4l2-2 1-1h1l1 1v2l-1 1 1-1 1 2 1-1v-4l1 1v1h2v-1l-2-2-3-1-2-1v-1l-1-1-2-2h-1l-2-1v2-1l-1 1 1-1-1 1-2 1-2 3zm-38-47h-1 1l-2 1-2-1 2-1h-3l-2 1-3 1s-2 0-1 1v-1h6l-3 1h1l-1 1c1 1 0 1-1 1h2l2-1h1l-1 1h-1c1 1 2-1 3-1h-1l4-1h-1l1-1v-1zm13 10h-4l-1 1-1 1-2-1h-2l-1-1 1 1c0 1 2 1 1 2h-2v1h-2l3 1s3 0 2-1l2-1 2-1h-1l2-1h1-1l1-1h-1 1l-3 1 4-1h1zm16 26 1-1v2l1-1v3-1l1 1-1-2v-2l-1-4h-1v-1 2h-2l1 1 1 2v1zM58 170l-3 1 2 1 1-1v-1zm60-32 3 2h5v-2l1-1 1-1 5-2-1-1-1-1h-4l1-1c-2 1-3-1-4-1l-5 1 1 2-1 2v2c-1 0-2 1-1 2v-1zm6-12 1-1 1 1 1-1v-1l1 1v-1l1-1h1c-1 1 0 2 1 1 0 0 2-1 1-2h1c-2 0 0-1 0-1l-2-1v1l-1-1-1 1-3 1-2 2c-1 0-2 0-1 1l1 1zm12-7h-2 2zm-59 57 1-1h-1v1zm32 9h-2c0 1 2 5 3 4l-1-1v-3zm-33-8c-2-1-2 2-1 2l2-1v-1h1-2zm45 19-2-1v-1l-3-1-2-1c1 3 3 4 6 5 2 1 1 0 1-1zm259 110c0-1-2-3-2-1l-1 2-2 2-3 2-1 2 1 3-2 3v4l1 3 2 1 3-1v-3l3-9v-5l1 1v-4zm104-49 1 2 1 1v1h2v1l1-1 1 1 1 1-1-2h1-1l-1-1h-1l-1-1v-2h1v-4h-3v4h-1zm3-13v-2l-2 2c-1 2 0 2 1 3l1-3zm-3 21-2 3-2 2 3-2 1-1v-2zm10 4-1-1v1h-1v1c-1-1-1 0-2 1v-1l-1 1c-1 0-2 1-1 2 0-1 1-3 1-1v-1l1 1v-1l1 2 1 1h1v-2l1 2v-5zm-8 31h-3c1 0 3 2 3 0zm-5-2-2-1-1 1h4c2 0 0-1-1-1v1zm6 1 1-1h4l-3-1-1 1h-4l2 1h1zm1-6h1v-1h1-1c-1-1-1 0-1 1zm-20-10 1 1h-1l1 1v1-1l1 3h2l1 2 2-1h1l1 2 2-1s0 1 0 0v-3l1-1 1-2 1-2c1 1 1 0 0 0v-2l-1-3h2l-1-1 2-1h-1l-1-1s-1-2-2-1l-2 2-1 1-1 1-2 2-2 1v2l-2-1h-1l-1 2zm24 17 1-1 2-1h-3l-2 1v2l2-1zm-295-46h1l1 1v-2h4v-1l-2-1h-5l1 2h-3l3 1zm86-94 1-1 1-1v-1l-2-1c1-1-3-3-2-1h-3v1l-1-1v1l-2-1v1l-1 2-1-2h1l-1-1-2-1 1 1h-2v1c-1 0 0 0 0 0v1h-1 4l-1 1h1-3l2 1h1l-1 1h1l-2 1h3l1 1h3l1-1h1l3-1zm-10-18-1-3 2-6 3-3-1-2v-3l-3-1 4-4-3-3 2-3 3-2 2-3v-1l3-1 4-2-5-1h-4l-1 1h-3l-4 2 1-4h-3l5-2-9-3-11-1h-6l-1 2-3-1h-4l-6 3c2 1 4 1 5 3l-9-2h-3l-6 1h-4l-3 2-9 5 4 1-1 2-2 1-3 1-6 1v2l1 1 2 3 3 2 2 1h9l4 1 2 2 3 7v5c1 1 2 1 1 3v2c2 2 1 2 3 1l3-1v3h-2l-2 1v5l1 5 4 6 2 4 2 1 4 2 2-1 3-7 2-6 1-1 4-2h3l2-3 1-1 4-1 5-2 6-4 1-2zm196 111 1-1 1-1v-1 1c-2-1-2 0-3 1v1l1 1v-1zm-6 41 1-4c0-2-1-3-2-2v-1l-1-1-1-1v-1l-1-1v-1l-1-1h-1l-3-2-2-2c-1-1 0-2-2-2h-2l1 2 2 2 2 2v2l1 1 2 3 2 2 4 5v-1l1 1zm4-6c-1-1-1 1-1 1 1 1 1 0 1-1zm8 9c-1 0-2-1-1-2h-3c0-1 0 0 0 0h-1l-3-1h-4c-1 1 1 1 1 2 1 0 0 0 0 0l3 1h3l1 1h1v-1l3 1h1s1-2-1-1zm-13-10h1v1l1 1h1v-1l-2-2v1h-1z" style="fill:#ffd600"/></svg>