<?xml version="1.0" encoding="utf-8"?>
<!-- Generator: Adobe Illustrator 25.2.1, SVG Export Plug-In . SVG Version: 6.00 Build 0)  -->
<svg version="1.1" id="Layer_1" xmlns="http://www.w3.org/2000/svg" xmlns:xlink="http://www.w3.org/1999/xlink" x="0px" y="0px"
	 viewBox="0 0 50 50" style="enable-background:new 0 0 50 50;" xml:space="preserve">
<style type="text/css">
	.st0{fill:#EFEFEF;}
	.st1{fill:#00BE14;}
</style>
<circle class="st0" cx="25" cy="25.1" r="24.5"/>
<path d="M29.1,25.1C30,14.9,34.3,5.7,34.7,4.9c-1.6-0.8-3.3-1.2-3.9-1.4C28.4,13.7,29.1,23.5,29.1,25.1 M22.5,30.6
	c-0.7-4.3-2.1-9.5-2.1-9.5c1.8,11.3-1.1,20.2-1.1,20.2h11.5c-5.4-19.7-1.2-37.5-1.1-38.3c-0.9-0.1-2.7-0.3-3.8-0.3
	c-0.1,16.8,3,27.8,3,27.8h-1.2c-2.7-11-3-24.8-2.9-27.8c-2.2,0-3.9,0.4-3.9,0.4l5.5,27.6H25c0,0-5.3-25.8-5.5-27.3
	c-2.1,0.5-3.4,1.1-4.1,1.4c5.9,10.8,8.3,25.8,8.3,25.8L22.5,30.6L22.5,30.6z M18.7,43.4l-1.4,3.8h15.5l-1.4-3.8H18.7L18.7,43.4z"/>
<path class="st1" d="M36,9.4l-1.1,3.7c4.2,3.1,6.9,7.9,6.9,13.5c0,6-3.3,11.4-8,14.4l1.2,3.5c6.3-3.5,10.5-10.2,10.5-17.9
	C45.5,19.5,41.7,13,36,9.4 M8.3,26.7c0-5.6,2.7-10.5,6.9-13.5L14,9.5c-5.7,3.6-9.5,10-9.5,17.3c0,7.7,4.2,14.4,10.5,17.9l1.2-3.5
	C11.5,38.1,8.3,32.8,8.3,26.7"/>
</svg>
