<?xml version="1.0" encoding="UTF-8" standalone="no"?>
<svg
   xmlns:dc="http://purl.org/dc/elements/1.1/"
   xmlns:cc="http://creativecommons.org/ns#"
   xmlns:rdf="http://www.w3.org/1999/02/22-rdf-syntax-ns#"
   xmlns:svg="http://www.w3.org/2000/svg"
   xmlns="http://www.w3.org/2000/svg"
   version="1.1"
   id="Livello_1"
   x="0px"
   y="0px"
   viewBox="0 0 669.5 1000"
   style="enable-background:new 0 0 669.5 1000;"
   xml:space="preserve"><defs
     id="defs49" /><style
     type="text/css"
     id="style2">
	.st0{fill:#FFFFFF;}
	.st1{fill:#F4D225;}
	.st2{fill:#2EA836;}
	.st3{fill:#D90F23;}
	.st4{fill:#002D72;}
</style><g
     id="g44">
	<g
   id="g10">
		<g
   id="g8">
			<path
   class="st0"
   d="M513.3,0H158.1C72.1,0,2.2,69.6,2,155.7L0,843.4C-0.2,929.8,69.8,1000,156.2,1000h357.2     c86.2,0,156.2-69.9,156.2-156.2V156.2C669.5,69.9,599.6,0,513.3,0z"
   id="path6" />
		</g>
	</g><g
   id="g18">
		<path
   class="st1"
   d="M334.3,410.1c12-63.2,38.2-129.3,59.2-181.7l-59.2-24l-59.2,24C296.1,280.6,322.3,346.9,334.3,410.1z"
   id="path12" />
		<path
   class="st2"
   d="M266,734.1c31.1-65.2-6.1-88.4-36-124.4c-47.2-55.1-21.1-88.4-9.1-124.4c4.9-16.1,7.1-29.1-3-56.1    c-17.1-44.1-71.3-148.4-71.3-148.4l84.2-34.1c40.2,88.4,63.2,148.4,70.3,180.5c13,57.3-40.2,98.2,1,148.4    c22,26.2,46.1,65.2,22,112.4C312.2,713,266,734.1,266,734.1z"
   id="path14" />
		<path
   class="st3"
   d="M402.4,734.1c-31.1-65.2,6.1-88.4,36-124.4c47.2-55.1,21.1-88.4,9.1-124.4c-3.9-16.1-6.1-29.1,3.9-56.1    c17.1-44.1,71.3-148.4,71.3-148.4l-84.2-34.1c-40.2,88.4-63.2,148.4-70.3,180.5c-13,57.3,40.2,98.2-1,148.4    c-22,26.2-46.1,65.2-22,112.4C356.3,713,402.4,734.1,402.4,734.1z"
   id="path16" />
	</g>
	<g
   id="g42">
		<path
   class="st4"
   d="M49.8,877c-1.2-3.5-1.8-9.5-1.8-17.9s0.6-14.4,1.8-17.9c1.7-5.3,4.5-9.4,8.5-12.1c4-2.8,8.8-4.2,14.5-4.2    c5.3,0,9.8,1.2,13.7,3.7c3.9,2.5,6.8,6,8.7,10.5c0.2,0.6,0,1-0.5,1.2l-8.3,4c-0.6,0.3-1,0.2-1.3-0.5c-2.6-5.7-6.7-8.6-12.4-8.6    c-5.9,0-9.9,2.9-11.9,8.8c-0.8,2.4-1.2,7.5-1.2,15.1s0.4,12.7,1.2,15.1c2,5.8,6,8.8,11.9,8.8c5.6,0,9.8-2.8,12.4-8.6    c0.2-0.7,0.7-0.8,1.3-0.5l8.3,4c0.5,0.2,0.7,0.6,0.5,1.2c-1.9,4.5-4.9,8-8.7,10.5c-3.9,2.5-8.4,3.7-13.7,3.7    c-5.7,0-10.5-1.4-14.5-4.2C54.4,886.3,51.5,882.3,49.8,877z"
   id="path20" />
		<path
   class="st4"
   d="M129.3,893.2c-5.8,0-10.7-1.4-14.8-4.1c-4.1-2.7-6.9-6.7-8.6-11.9c-1.2-3.5-1.8-9.6-1.8-18.2    c0-8.6,0.6-14.7,1.8-18.2c1.7-5.2,4.6-9.1,8.6-11.9c4.1-2.7,9-4.1,14.8-4.1c5.8,0,10.8,1.4,14.9,4.1c4.1,2.7,6.9,6.7,8.6,11.9    c1.2,3.5,1.8,9.6,1.8,18.2c0,8.6-0.6,14.7-1.8,18.2c-1.7,5.2-4.6,9.1-8.6,11.9C140.1,891.9,135.1,893.2,129.3,893.2z M129.3,882.9    c6.2,0,10.4-2.9,12.4-8.7c0.8-2.4,1.2-7.5,1.2-15.2c0-7.7-0.4-12.7-1.2-15.2c-2-5.8-6.1-8.7-12.4-8.7c-6.2,0-10.3,2.9-12.3,8.7    c-0.8,2.5-1.2,7.5-1.2,15.2c0,7.7,0.4,12.8,1.2,15.2C119,880,123.1,882.9,129.3,882.9z"
   id="path22" />
		<path
   class="st4"
   d="M177.7,892.1h-9.6c-0.7,0-1-0.3-1-1v-64.3c0-0.7,0.3-1,1-1H193c6.4,0,11.7,1.9,15.7,5.7    c4.1,3.8,6.1,8.8,6.1,14.9c0,6.2-2,11.2-6.1,14.9c-4.1,3.8-9.3,5.7-15.7,5.7h-13.8c-0.4,0-0.6,0.2-0.6,0.6v23.5    C178.6,891.8,178.4,892.1,177.7,892.1z M192.3,856.7c3.4,0,6.1-0.9,8-2.8s3-4.3,3-7.5c0-3-1-5.5-3-7.4c-2-1.9-4.7-2.8-8-2.8h-13.1    c-0.4,0-0.6,0.2-0.6,0.6v19.3c0,0.4,0.2,0.6,0.6,0.6L192.3,856.7L192.3,856.7z"
   id="path24" />
		<path
   class="st4"
   d="M236,892.1h-9.6c-0.7,0-1-0.3-1-1v-64.3c0-0.7,0.3-1,1-1h24.8c6.4,0,11.7,1.9,15.7,5.7    c4.1,3.8,6.1,8.8,6.1,14.9c0,6.2-2,11.2-6.1,14.9c-4.1,3.8-9.3,5.7-15.7,5.7h-13.8c-0.4,0-0.6,0.2-0.6,0.6v23.5    C236.9,891.8,236.6,892.1,236,892.1z M250.6,856.7c3.4,0,6.1-0.9,8-2.8s3-4.3,3-7.5c0-3-1-5.5-3-7.4c-2-1.9-4.7-2.8-8-2.8h-13.1    c-0.4,0-0.6,0.2-0.6,0.6v19.3c0,0.4,0.2,0.6,0.6,0.6L250.6,856.7L250.6,856.7z"
   id="path26" />
		<path
   class="st4"
   d="M271.6,891.2l22.7-64.3c0.2-0.7,0.6-1,1.3-1h9c0.7,0,1.1,0.3,1.3,1l22.4,64.3c0.2,0.7,0,1-0.7,1H318    c-0.7,0-1.1-0.3-1.3-1l-4.4-12.8h-25l-4.4,12.8c-0.2,0.7-0.6,1-1.3,1h-9.5C271.7,892.1,271.4,891.8,271.6,891.2z M290.9,868.1    h17.9l-8.8-25.7h-0.3L290.9,868.1z"
   id="path28" />
		<path
   class="st4"
   d="M360.3,891.2v-64.3c0-0.7,0.3-1,1-1h9.6c0.7,0,1,0.3,1,1v64.3c0,0.7-0.3,1-1,1h-9.6    C360.6,892.1,360.3,891.8,360.3,891.2z"
   id="path30" />
		<path
   class="st4"
   d="M410.7,892.1h-9.6c-0.7,0-1-0.3-1-1v-54.4c0-0.4-0.2-0.6-0.6-0.6h-17.3c-0.7,0-1-0.3-1-1v-8.4    c0-0.7,0.3-1,1-1h47.4c0.7,0,1,0.3,1,1v8.4c0,0.7-0.3,1-1,1h-17.3c-0.4,0-0.6,0.2-0.6,0.6v54.4    C411.6,891.8,411.3,892.1,410.7,892.1z"
   id="path32" />
		<path
   class="st4"
   d="M428.6,891.2l22.7-64.3c0.2-0.7,0.6-1,1.3-1h9c0.7,0,1.1,0.3,1.3,1l22.4,64.3c0.2,0.7,0,1-0.7,1H475    c-0.7,0-1.1-0.3-1.3-1l-4.4-12.8h-25l-4.4,12.8c-0.2,0.7-0.6,1-1.3,1h-9.5C428.7,892.1,428.4,891.8,428.6,891.2z M447.9,868.1    h17.9l-8.8-25.7h-0.3L447.9,868.1z"
   id="path34" />
		<path
   class="st4"
   d="M494.3,891.2v-64.3c0-0.7,0.3-1,1-1h9.6c0.7,0,1,0.3,1,1v54.4c0,0.4,0.2,0.6,0.6,0.6h30.4c0.7,0,1,0.3,1,1    v8.4c0,0.7-0.3,1-1,1h-41.5C494.6,892.1,494.3,891.8,494.3,891.2z"
   id="path36" />
		<path
   class="st4"
   d="M547.4,891.2v-64.3c0-0.7,0.3-1,1-1h9.6c0.7,0,1,0.3,1,1v64.3c0,0.7-0.3,1-1,1h-9.6    C547.7,892.1,547.4,891.8,547.4,891.2z"
   id="path38" />
		<path
   class="st4"
   d="M568,891.2l22.7-64.3c0.2-0.7,0.6-1,1.3-1h9c0.7,0,1.1,0.3,1.3,1l22.4,64.3c0.2,0.7,0,1-0.7,1h-9.6    c-0.7,0-1.1-0.3-1.3-1l-4.4-12.8h-25l-4.4,12.8c-0.2,0.7-0.6,1-1.3,1h-9.5C568,892.1,567.8,891.8,568,891.2z M587.2,868.1h17.9    l-8.8-25.7h-0.3L587.2,868.1z"
   id="path40" /></g></g><metadata
     id="metadata51"><rdf:RDF><cc:Work
         rdf:about=""><dc:title></dc:title></cc:Work></rdf:RDF></metadata></svg>
