<?xml version="1.0" encoding="iso-8859-1"?>
<!-- Generator: Adobe Illustrator 16.0.0, SVG Export Plug-In . SVG Version: 6.00 Build 0)  -->
<!DOCTYPE svg PUBLIC "-//W3C//DTD SVG 1.1//EN" "http://www.w3.org/Graphics/SVG/1.1/DTD/svg11.dtd">
<svg version="1.1" id="Layer_1" xmlns="http://www.w3.org/2000/svg" xmlns:xlink="http://www.w3.org/1999/xlink" x="0px" y="0px"
	 width="235.729px" height="336.683px" viewBox="0 0 235.729 336.683" style="enable-background:new 0 0 235.729 336.683;"
	 xml:space="preserve">
<g>
	<defs>
		<rect id="SVGID_1_" width="235.729" height="336.683"/>
	</defs>
	<clipPath id="SVGID_2_">
		<use xlink:href="#SVGID_1_"  style="overflow:visible;"/>
	</clipPath>
	<path style="clip-path:url(#SVGID_2_);fill:#FFFFFF;" d="M117.859,336.683C52.874,336.683,0,283.024,0,217.072
		c0-0.803,0.021-169.34,0.027-198.599V0h235.66l0.008,18.469c0.011,29.052,0.035,197.507,0.035,198.603
		C235.729,283.024,182.853,336.683,117.859,336.683"/>
	<path style="clip-path:url(#SVGID_2_);fill:#008F5E;" d="M229.023,18.473l-0.002-11.803H6.697v11.804
		C6.689,47.961,6.667,216.279,6.667,217.072c0,62.275,49.879,112.94,111.192,112.94c61.316,0,111.201-50.665,111.201-112.94
		C229.06,215.969,229.038,47.302,229.023,18.473"/>
	<path style="clip-path:url(#SVGID_2_);fill:#FCEB20;" d="M111.21,139.124c2.149,0.563,3.854,1.897,4.957,3.896
		c0.334,0.605,0.572,1.195,0.735,1.707c1.924-0.654,4.019-0.923,5.335-1.034c-0.004-0.071-0.006-0.148-0.006-0.221
		c-0.022-1.649,0.205-2.311,0.379-2.663l0.007-0.02c0.313-0.619,1.002-1.205,2.237-1.896c0.275-0.157,0.542-0.294,0.777-0.41
		c0.059-1.664,0.199-5.592,0.267-7.348c0.084-2.256,0.469-7.58,0.49-7.887c0.029-0.435,0.273-1.05,0.876-1.487l0.047-0.032
		c0.908-0.601,1.652-1.149,1.938-1.4c0.09-0.425,0.19-1.507,0.229-2.502l0.044-1.159l1.104-0.053c0.065-0.01,0.456-0.076,0.699-0.32
		c0.058-0.402,0-1.466-0.131-2.379l-0.127-0.887l0.791-0.412c0.358-0.194,1.392-0.872,1.807-1.676
		c0.437-0.86,0.709-2.547,0.775-3.973c-0.479,0.491-0.98,0.739-1.499,0.739c-0.377,0-1.616-0.158-1.721-2.156
		c-0.161-2.928,2.244-4.682,2.347-4.752l0.835-0.598l0.755,0.693c0.162,0.151,0.405,0.313,0.674,0.479
		c0.07-0.247,0.15-0.499,0.229-0.76c0.318-1.009,0.716-2.269,0.903-4.333l0.002-0.031c0.281-2.463-0.348-3.017-0.556-3.198
		c-0.022-0.019-0.045-0.039-0.065-0.058c-0.174-0.068-0.575-0.173-1.036-0.173c-0.321,0-0.607,0.052-0.833,0.153
		c-0.522,0.435-1.022,0.645-1.525,0.645c-0.597,0-1.123-0.301-1.439-0.826c-0.484-0.809-0.349-1.994,0.027-2.705l0.009-0.015
		c0.384-0.703,1.234-1.081,3.02-1.351c0.285-0.043,0.566-0.077,0.819-0.105c-0.04-0.189-0.093-0.315-0.093-0.317l-1.03-2.165
		l2.364,0.371c0.022,0.004,2.092,0.32,4.698,0.32c2.583,0,4.756-0.297,6.451-0.889c5.911-2.07,13.731-2.288,15.986-2.306h0.027
		h0.025c1.427,0.048,2.851,0.072,4.231,0.072c16.105,0,25-3.24,28.799-4.621c0.153-0.055,0.297-0.109,0.434-0.16l0.016-0.005
		c4.026-1.398,8.428-3.93,12.074-6.946c3.946-3.261,6.75-6.869,7.888-10.162l0.018-0.043l0.017-0.042
		c2.107-4.908,2.618-12.605-2.864-18.156c-3.014-3.058-6.856-4.606-11.425-4.606c-1.595,0-3.076,0.191-4.333,0.442
		c3.768,1.28,6.657,2.849,8.765,4.762c2.395,2.171,3.346,4.37,4.017,6.421l0.031,0.089l0.014,0.092
		c0.443,2.584,0.205,5.032-0.698,7.277c-1.111,2.746-3.245,5.226-6.339,7.37c-7.401,5.7-19.44,7.282-24.293,7.697
		c-1.869,0.2-4.152,0.301-6.781,0.301c-6.059,0-13.086-0.56-15.85-1.084c-2.789-0.524-9.62-1.119-13.29-1.439
		c-0.781-0.069-1.459-0.129-1.919-0.172c-0.794-0.069-1.545-0.134-2.224-0.134c-1.54,0-2.49,0.343-3.388,1.224l-0.047,0.044
		c-1.14,1.004-2.048,1.475-2.851,1.475c-0.499,0-0.947-0.188-1.238-0.517l-0.031-0.037c-0.021-0.027-2.534-3.022-6.258-3.022
		c-0.187,0-0.375,0.008-0.561,0.022c-3.044,0.238-3.873,1.001-4.606,1.675c-0.346,0.317-0.704,0.646-1.21,0.902
		c-0.395,0.232-0.792,0.433-1.287,0.433c-0.595,0-1.026-0.298-1.341-0.519c-0.162-0.107-2.975-1.95-5.963-2.416
		c-0.326-0.029-0.666-0.045-1.005-0.045c-4.352,0-8.35,2.309-8.391,2.332l-1.459,0.854l-0.379-1.53
		c-0.303-0.257-1.547-0.699-3.41-0.699c-0.384,0-0.764,0.022-1.131,0.06c-0.793,0.089-2.219,0.201-3.871,0.332
		c-3.849,0.305-9.127,0.721-11.464,1.206c-2.68,0.559-11.657,1.406-19.077,1.406c-2.033,0-3.793-0.067-5.233-0.195
		c-2.318-0.157-6.957-0.616-12.063-1.952c-5.123-1.34-9.286-3.178-12.376-5.466c-3.13-2.088-5.304-4.531-6.46-7.261
		c-0.942-2.222-1.221-4.663-0.829-7.255l0.014-0.092l0.028-0.088c0.631-2.066,1.542-4.281,3.9-6.497
		c2.073-1.946,4.932-3.568,8.681-4.912c-1.172-0.215-2.535-0.376-3.998-0.376c-4.718,0-8.649,1.618-11.684,4.805
		c-5.402,5.671-4.746,13.347-2.542,18.198l0.02,0.045l0.016,0.045c1.185,3.249,4.115,6.808,8.26,10.025
		c3.786,2.938,8.312,5.39,12.419,6.734l0.017,0.005c0.222,0.074,0.466,0.159,0.731,0.251c4.024,1.399,12.398,4.311,27.635,4.311
		c2.097,0,4.275-0.057,6.473-0.171l0.055-0.002c0.257,0,0.55-0.004,0.87-0.009c0.685-0.01,1.534-0.021,2.471-0.021
		c5.933,0,10.345,0.507,13.494,1.55c4.229,1.379,9.02,1.449,9.937,1.449h0.154l0.638-0.01l0.383,0.505
		c0.233,0.3,0.264,0.572,0.325,1.107c0.074,0.627,0.168,1.686,0.287,3.152c0.151,1.907-0.711,3.531-2.429,4.572
		c-0.361,0.22-0.724,0.391-1.057,0.526c0.104,0.34,0.21,0.717,0.288,1.08c0.253,1.018,0.442,2.04,0.594,2.863
		c0.07,0.376,0.151,0.817,0.212,1.094c0.419,0.397,0.709,0.897,0.95,1.315c0.091,0.153,0.2,0.344,0.262,0.423
		c0.172,0.203,0.609,0.549,0.849,0.718l2.022,1.417l-2.102,0.733c0.048,2.263,0.296,4.83,1.112,5.963
		c0.073,0.029,0.174,0.063,0.254,0.094c0.84,0.304,2.405,0.865,3.04,2.69l0.06,0.176l0.009,0.187
		c0.079,1.879,0.263,3.935,0.37,5.044c1.319,0.574,2.138,1.685,2.354,2.001c0.737,0.925,0.977,2.006,1.107,2.846l0.009,0.071
		c0.011,0.119,0.04,0.439,0.073,0.821c0.054,0.635,0.127,1.426,0.157,1.734l0.002,0.028c0.051,0.636,0.009,1.528-0.045,2.653
		c-0.058,1.203-0.121,2.564-0.088,3.919C110.81,136.417,111.05,138.151,111.21,139.124 M114.931,148.394l-0.175-1.802
		c-0.024-0.218-0.582-4.494-4.834-5.157l-0.872-0.135l-0.176-0.862c-0.022-0.112-0.561-2.802-0.641-5.767
		c-0.035-1.445,0.036-2.92,0.088-4.103c0.048-0.99,0.088-1.845,0.054-2.327c-0.033-0.332-0.103-1.114-0.16-1.748
		c-0.029-0.337-0.054-0.63-0.067-0.765c-0.123-0.781-0.308-1.285-0.601-1.641l-0.052-0.067l-0.036-0.055
		c-0.198-0.299-0.874-1.092-1.663-1.231l-0.934-0.167l-0.103-0.944c-0.014-0.125-0.325-3.054-0.455-5.81
		c-0.248-0.529-0.744-0.743-1.448-0.998c-0.474-0.17-0.92-0.334-1.247-0.734l-0.018-0.02c-0.487-0.592-1.784-2.161-1.781-8.578
		v-0.159c-0.063-0.066-0.125-0.136-0.183-0.204l-0.01-0.011c-0.185-0.228-0.332-0.483-0.487-0.754
		c-0.129-0.221-0.397-0.679-0.539-0.775l-0.294-0.185l-0.16-0.313c-0.17-0.341-0.261-0.813-0.47-1.941
		c-0.148-0.795-0.328-1.783-0.567-2.732l-0.006-0.041c-0.196-0.909-0.62-1.99-0.624-2l-0.584-1.474l1.552-0.238
		c0.058-0.011,0.881-0.166,1.635-0.64c1.142-0.716,1.211-1.584,1.165-2.175c-0.092-1.161-0.164-1.934-0.213-2.442
		c-1.928-0.062-6.037-0.339-9.778-1.56l-0.005-0.002c-2.888-0.959-7.043-1.421-12.702-1.421c-0.919,0-1.758,0.011-2.437,0.02
		c-0.317,0.003-0.601,0.006-0.857,0.006c-2.232,0.118-4.443,0.176-6.575,0.176c-6.728,0-12.984-0.574-18.593-1.703
		c-4.67-0.939-7.927-2.071-9.873-2.746c-0.255-0.092-0.491-0.174-0.708-0.247c-4.372-1.427-9.176-4.029-13.179-7.136
		c-3.183-2.473-7.336-6.403-9.068-11.112c-1.441-3.193-2.07-6.832-1.768-10.251c0.359-4.073,2.017-7.77,4.801-10.691
		c1.924-2.021,4.195-3.516,6.746-4.447c2.083-0.76,4.36-1.143,6.77-1.143c4.958,0,8.802,1.616,8.963,1.684l3.377,1.441L41.59,41.21
		c-12.48,3.322-14.105,8.207-14.928,10.892c-0.692,4.798,1.345,8.713,6.227,11.964l0.057,0.04c5.889,4.37,15.814,6.449,23.141,6.939
		l0.027,0.002c1.369,0.124,3.056,0.187,5.021,0.187c7.008,0,15.954-0.807,18.562-1.353c2.497-0.511,7.862-0.94,11.78-1.25
		c1.633-0.129,3.041-0.24,3.796-0.323c0.456-0.05,0.931-0.076,1.405-0.076c0.676,0,3.45,0.072,4.943,1.212
		c1.603-0.779,4.993-2.171,8.696-2.171c0.429,0,0.86,0.021,1.274,0.057l0.074,0.011c3.466,0.526,6.604,2.54,7.003,2.807l0.043-0.026
		l0.046-0.024c0.202-0.096,0.393-0.27,0.655-0.515c0.929-0.852,2.204-2.025,6.119-2.333c0.253-0.017,0.506-0.028,0.759-0.028
		c3.917,0,6.701,2.375,7.756,3.445c0.198-0.112,0.498-0.318,0.925-0.691c1.752-1.704,3.662-1.923,5.132-1.923
		c0.791,0,1.594,0.071,2.446,0.146h0.007c0.452,0.043,1.126,0.103,1.908,0.169c3.713,0.327,10.626,0.927,13.541,1.478
		c2.303,0.434,8.927,1.037,15.38,1.037c2.547,0,4.743-0.095,6.526-0.286l0.026-0.004c4.627-0.396,16.129-1.892,23.004-7.201
		l0.053-0.04c4.837-3.339,6.808-7.289,6.021-12.07c-0.873-2.676-2.592-7.536-15.118-10.629l-3.57-0.88l3.357-1.5
		c0.169-0.077,4.178-1.84,9.318-1.84c2.35,0,4.573,0.372,6.616,1.104c2.477,0.892,4.704,2.321,6.608,4.254
		c1.479,1.5,2.662,3.212,3.512,5.087c0.773,1.718,1.271,3.572,1.478,5.515c0.357,3.405-0.205,7.055-1.582,10.286
		c-1.664,4.754-5.621,8.735-8.654,11.24c-3.865,3.198-8.552,5.887-12.847,7.383c-0.133,0.05-0.275,0.099-0.421,0.155
		c-1.989,0.722-5.308,1.931-10.166,2.942c-5.832,1.216-12.391,1.83-19.496,1.83h-0.003c-1.397,0-2.844-0.023-4.29-0.07
		c-1.596,0.013-9.488,0.184-15.148,2.164c-1.964,0.685-4.416,1.033-7.283,1.033c-1.313,0-2.486-0.075-3.378-0.155
		c-0.013,0.303-0.063,0.62-0.166,0.95l-0.193,0.629c0.24,0.128,0.386,0.255,0.484,0.363c0.001,0.002,0.002,0.005,0.004,0.006
		c0.786,0.691,1.789,1.998,1.402,5.376c-0.211,2.324-0.672,3.784-1.007,4.848c-0.248,0.794-0.408,1.318-0.376,1.846l0.143,2.071
		l-1.542-0.665c0.166,0.362,0.268,0.819,0.28,1.373c0.038,1.534-0.212,4.416-1.057,6.084l-0.002,0.005
		c-0.536,1.051-1.461,1.831-2.124,2.296c0.022,0.219,0.042,0.469,0.059,0.726c0.083,1.415-0.054,2.181-0.482,2.683
		c-0.422,0.539-0.951,0.861-1.415,1.055c-0.014,0.187-0.028,0.389-0.047,0.596c-0.139,1.579-0.323,2.077-0.63,2.423
		c-0.325,0.386-1.126,1.007-2.387,1.849c-0.086,1.169-0.396,5.582-0.467,7.516c-0.089,2.245-0.296,8.044-0.297,8.105l-0.029,0.79
		l-0.72,0.319c-1.077,0.479-2.248,1.178-2.506,1.495c-0.13,0.383-0.153,1.718-0.046,2.82l0.132,1.363l-1.369,0.022
		c-0.041,0.002-4.284,0.101-7.02,1.443L114.931,148.394z"/>
	<path style="clip-path:url(#SVGID_2_);fill:#FCEB20;" d="M133.232,91.057c-0.057,0.137-0.087,0.329-0.087,0.489
		c0.026-0.02,0.055-0.042,0.087-0.069l0.212-0.175l0.253-0.111c0.479-0.211,1.021-0.316,1.612-0.316c0.071,0,0.14,0.001,0.21,0.005
		l0.104-0.333l-0.021,0.002c-0.263,0.03-0.515,0.063-0.747,0.098C133.727,90.817,133.341,90.99,133.232,91.057 M133.907,103.189
		c-0.403,0.531-0.794,1.304-0.742,2.254v0.009c0,0.011,0.001,0.023,0.001,0.036l1.22-1.25L133.907,103.189z M112.96,137.659
		c2.087,0.847,3.768,2.357,4.907,4.419c0.058,0.103,0.112,0.202,0.166,0.307c0.8-0.192,1.586-0.331,2.313-0.437
		c0.078-0.803,0.25-1.444,0.514-1.99l0.021-0.047c0.486-0.96,1.341-1.751,2.843-2.614c0.066-1.798,0.173-4.778,0.229-6.238
		c0.083-2.244,0.453-7.359,0.494-7.949c0.08-1.127,0.704-2.218,1.672-2.923l0.119-0.08c0.472-0.316,0.884-0.604,1.192-0.828
		c0.041-0.401,0.082-0.944,0.102-1.526l0.115-2.941l1.688-0.081c-0.018-0.175-0.039-0.355-0.064-0.538l-0.324-2.246l2.001-1.051
		c0.326-0.174,0.866-0.618,0.985-0.843c0.058-0.114,0.118-0.285,0.177-0.501c-1.425-0.338-2.708-1.582-2.83-3.897
		c-0.215-3.913,2.812-6.193,3.157-6.44l2.115-1.513l0.222,0.203c0.099-0.516,0.188-1.106,0.253-1.801l0.006-0.076
		c0.056-0.488,0.068-0.846,0.056-1.103c-0.686,0.423-1.401,0.637-2.138,0.637c-1.277,0-2.439-0.66-3.105-1.767
		c-0.903-1.501-0.646-3.447-0.025-4.618l0.021-0.046c0.601-1.082,1.607-1.644,2.755-1.981l-1.675-3.507l6.01,0.941
		c0.016,0.002,1.974,0.295,4.395,0.295c2.367,0,4.324-0.261,5.812-0.779c6.193-2.169,14.28-2.397,16.611-2.415h0.065l0.065,0.002
		c1.407,0.045,2.811,0.07,4.169,0.07c15.761,0,24.433-3.158,28.132-4.505l0.011-0.004c0.146-0.054,0.291-0.106,0.427-0.154
		l0.04-0.015c3.818-1.328,7.998-3.735,11.475-6.608c3.676-3.037,6.265-6.339,7.29-9.301l0.036-0.108l0.049-0.108
		c1.868-4.349,2.346-11.156-2.461-16.019c-1.668-1.691-3.634-2.854-5.869-3.482c0.556,0.404,1.076,0.829,1.564,1.27
		c2.737,2.483,3.84,5.063,4.561,7.258l0.072,0.224l0.039,0.232c0.505,2.948,0.23,5.751-0.813,8.333
		c-1.25,3.091-3.604,5.857-6.993,8.214c-3.409,2.614-8.042,4.683-13.771,6.143c-4.538,1.16-8.747,1.684-11.483,1.92
		c-1.937,0.208-4.278,0.312-6.972,0.312c-6.164,0-13.356-0.579-16.209-1.119c-2.69-0.507-9.46-1.098-13.097-1.413
		c-0.781-0.071-1.455-0.128-1.921-0.171c-0.752-0.067-1.459-0.128-2.051-0.128c-1.144,0-1.566,0.215-2.029,0.668l-0.122,0.111
		c-0.954,0.842-2.419,1.964-4.136,1.964c-1.057,0-2.041-0.43-2.699-1.176l-0.061-0.074c-0.066-0.075-2.05-2.325-4.768-2.325
		c-0.133,0-0.271,0.005-0.408,0.016c-2.374,0.185-2.867,0.641-3.442,1.166c-0.394,0.362-0.875,0.805-1.59,1.177
		c-0.405,0.235-1.189,0.671-2.222,0.671c-1.194,0-2.023-0.563-2.435-0.853c-0.217-0.14-2.649-1.692-5.106-2.096
		c-0.249-0.02-0.51-0.029-0.77-0.029c-3.769,0-7.368,2.043-7.417,2.069l-3.693,2.161l-0.767-3.09
		c-0.401-0.092-0.993-0.184-1.759-0.184c-0.316,0-0.628,0.019-0.924,0.051c-0.818,0.09-2.258,0.206-3.925,0.338
		c-3.803,0.298-9.01,0.71-11.23,1.168c-2.752,0.575-11.928,1.447-19.467,1.447c-2.08,0-3.891-0.069-5.386-0.2
		c-2.386-0.162-7.153-0.638-12.401-2.012c-5.344-1.396-9.717-3.329-13.003-5.751c-3.433-2.299-5.833-5.022-7.134-8.097
		c-1.084-2.556-1.406-5.351-0.959-8.304l0.033-0.235l0.071-0.224c0.676-2.21,1.732-4.813,4.427-7.344
		c0.486-0.455,1.004-0.888,1.557-1.307c-2.231,0.662-4.177,1.86-5.817,3.581c-4.732,4.971-4.133,11.752-2.179,16.053l0.05,0.113
		l0.042,0.116c1.06,2.908,3.766,6.158,7.626,9.155c3.614,2.804,7.927,5.145,11.832,6.419l0.036,0.013
		c0.228,0.077,0.473,0.162,0.743,0.255c3.925,1.366,12.091,4.205,26.998,4.205c2.063,0,4.208-0.057,6.375-0.169l0.135-0.003
		c0.257-0.002,0.543-0.008,0.86-0.011c0.691-0.009,1.554-0.021,2.497-0.021c6.142,0,10.756,0.538,14.101,1.647
		c3.949,1.288,8.467,1.353,9.332,1.353h0.123l1.616-0.026l0.98,1.28c0.559,0.731,0.639,1.41,0.713,2.071
		c0.076,0.647,0.173,1.729,0.294,3.217c0.204,2.563-0.943,4.832-3.155,6.265c0.221,0.934,0.388,1.839,0.523,2.58
		c0.033,0.17,0.067,0.359,0.102,0.534c0.365,0.445,0.628,0.895,0.832,1.249c0.024,0.045,0.065,0.116,0.1,0.175
		c0.111,0.099,0.303,0.249,0.45,0.351l5.121,3.598l-4.318,1.505c0.108,1.676,0.327,2.581,0.488,3.043
		c1.116,0.438,2.939,1.374,3.749,3.706l0.154,0.446l0.022,0.471c0.058,1.364,0.172,2.83,0.269,3.93
		c1.07,0.716,1.764,1.592,2.08,2.046c0.999,1.286,1.311,2.729,1.462,3.706l0.021,0.183c0.012,0.115,0.041,0.442,0.075,0.829
		c0.053,0.597,0.126,1.413,0.155,1.714l0.007,0.072c0.057,0.758,0.013,1.702-0.042,2.897c-0.054,1.164-0.118,2.492-0.085,3.777
		C112.738,135.69,112.848,136.793,112.96,137.659 M113.263,151.378l-0.439-4.574c-0.015-0.098-0.141-0.893-0.607-1.69
		c-0.584-1.003-1.435-1.576-2.596-1.759l-2.206-0.344l-0.444-2.187c-0.026-0.118-0.601-2.967-0.683-6.1
		c-0.035-1.521,0.035-3.031,0.092-4.247c0.04-0.833,0.079-1.697,0.057-2.076c-0.037-0.354-0.103-1.113-0.157-1.731l-0.005-0.053
		c-0.025-0.269-0.048-0.503-0.057-0.645c-0.079-0.479-0.162-0.634-0.176-0.655l-0.133-0.161l-0.081-0.131
		c-0.088-0.122-0.298-0.324-0.414-0.384l-2.33-0.412l-0.257-2.399c-0.031-0.284-0.281-2.634-0.421-5.107
		c-0.061-0.025-0.133-0.051-0.209-0.08c-0.602-0.217-1.423-0.513-2.095-1.331l-0.009-0.013c-0.304-0.368-0.937-1.135-1.438-2.776
		c-0.493-1.628-0.757-3.816-0.787-6.51c-0.161-0.234-0.298-0.467-0.421-0.68c-0.067-0.116-0.121-0.208-0.167-0.28l-0.477-0.304
		l-0.402-0.791c-0.303-0.602-0.418-1.226-0.647-2.466c-0.141-0.768-0.317-1.724-0.539-2.614l-0.026-0.105
		c-0.129-0.614-0.427-1.429-0.53-1.691l-1.478-3.74l3.92-0.603c0.162-0.035,0.594-0.155,0.935-0.371
		c0.216-0.135,0.262-0.219,0.262-0.219s0.01-0.037,0-0.154c-0.02-0.259-0.042-0.508-0.06-0.742c-2.308-0.164-5.544-0.57-8.596-1.564
		l-0.015-0.005c-2.686-0.89-6.642-1.326-12.089-1.326c-0.903,0-1.738,0.014-2.407,0.023c-0.304,0.003-0.578,0.008-0.826,0.011
		c-2.254,0.111-4.485,0.171-6.634,0.171c-6.856,0-13.242-0.587-18.975-1.741c-4.803-0.968-8.136-2.127-10.129-2.818l-0.026-0.008
		c-0.237-0.085-0.457-0.16-0.659-0.229c-4.572-1.495-9.587-4.209-13.755-7.444c-3.368-2.615-7.774-6.798-9.677-11.912
		c-1.556-3.478-2.234-7.438-1.906-11.16c0.397-4.516,2.241-8.619,5.329-11.861c2.135-2.241,4.655-3.9,7.492-4.935
		c2.295-0.834,4.797-1.259,7.437-1.259c5.256,0,9.28,1.652,9.721,1.84l10.757,4.109l-11.189,1.944
		c-11.327,3.016-12.813,7.13-13.524,9.436c-0.522,3.967,1.197,7.123,5.402,9.922l0.134,0.094c5.551,4.118,15.063,6.092,22.111,6.565
		l0.074,0.004c1.312,0.118,2.943,0.178,4.847,0.178c6.78,0,15.693-0.795,18.166-1.311c2.617-0.54,8.053-0.969,12.023-1.284h0.004
		c1.614-0.128,3.004-0.237,3.732-0.322c0.528-0.056,1.073-0.083,1.621-0.083c0.997,0,3.228,0.107,5.048,0.967
		c1.993-0.862,5.148-1.924,8.588-1.924c0.488,0,0.977,0.021,1.451,0.062l0.191,0.025c2.67,0.405,5.111,1.563,6.549,2.364
		c0.479-0.416,1.106-0.899,2.013-1.326c1.296-0.616,2.885-0.989,4.858-1.145c0.302-0.022,0.609-0.034,0.911-0.034
		c3.471,0,6.174,1.555,7.825,2.852c2.141-1.799,4.418-2.022,5.989-2.022c0.875,0,1.719,0.077,2.61,0.152l0.02,0.003
		c0.452,0.043,1.156,0.105,1.898,0.17c3.747,0.326,10.726,0.934,13.733,1.5c2.228,0.423,8.685,1.006,15.016,1.006
		c2.481,0,4.605-0.091,6.32-0.277l0.07-0.006c4.453-0.383,15.511-1.807,21.975-6.804l0.143-0.099
		c4.161-2.876,5.828-6.062,5.231-10.013c-0.756-2.295-2.321-6.389-13.691-9.196l-9.058-2.24l8.519-3.806
		c0.458-0.207,4.656-2.013,10.112-2.013c2.571,0,5.019,0.412,7.272,1.223c2.758,0.99,5.225,2.577,7.338,4.721
		c1.642,1.66,2.956,3.565,3.896,5.651c0.863,1.905,1.415,3.96,1.64,6.108c0.392,3.707-0.211,7.681-1.7,11.196
		c-1.823,5.15-6.019,9.386-9.229,12.035c-4.033,3.336-8.93,6.147-13.433,7.716c-0.124,0.044-0.253,0.092-0.386,0.14l-0.025,0.011
		c-2.034,0.739-5.436,1.978-10.431,3.018c-5.965,1.244-12.657,1.872-19.896,1.872c-1.41,0-2.86-0.026-4.313-0.071
		c-1.575,0.015-9.146,0.188-14.483,2.056c-2.175,0.755-4.842,1.14-7.929,1.14c-0.223,0-0.448-0.003-0.671-0.006
		c0.764,1.399,1.01,3.196,0.761,5.427c-0.234,2.524-0.745,4.153-1.085,5.236c-0.156,0.497-0.304,0.966-0.293,1.131l0.362,5.253
		l-1.523-0.655c-0.114,1.659-0.448,3.756-1.22,5.275l-0.011,0.024c-0.487,0.942-1.178,1.706-1.837,2.287
		c0.059,1.336-0.045,2.694-0.936,3.752c-0.307,0.388-0.663,0.724-1.065,1.01c-0.146,1.399-0.388,2.34-1.056,3.106
		c-0.265,0.307-0.738,0.77-1.987,1.648c-0.122,1.788-0.34,4.966-0.397,6.515c-0.076,1.976-0.243,6.661-0.292,8.05l-0.074,2.058
		l-1.831,0.81c-0.568,0.256-1.1,0.546-1.46,0.769c-0.011,0.415-0.002,1.002,0.056,1.584l0.334,3.453l-3.468,0.064
		c-1.074,0.024-4.276,0.296-6.205,1.241L113.263,151.378z"/>
	<path style="clip-path:url(#SVGID_2_);fill:#E2231A;" d="M60.043,96.521c-0.065-31.985,25.808-57.971,57.793-58.031
		c31.986-0.067,57.973,25.817,58.035,57.8c0.062,31.989-25.819,57.959-57.805,58.026C86.083,154.381,60.106,128.506,60.043,96.521"
		/>
	<path style="clip-path:url(#SVGID_2_);fill:#FCEB20;" d="M117.954,40.884h-0.115c-14.827,0.028-28.757,5.829-39.222,16.34
		C68.151,67.733,62.409,81.686,62.439,96.515c0.059,30.55,24.957,55.405,55.498,55.405h0.124
		c30.613-0.063,55.473-25.016,55.416-55.626C173.416,65.741,148.509,40.884,117.954,40.884 M117.937,156.71
		c-33.181,0-60.225-27-60.289-60.184c-0.035-16.108,6.207-31.269,17.574-42.681c11.37-11.419,26.501-17.722,42.608-17.752h0.124
		c33.19,0,60.247,27.002,60.313,60.192c0.062,33.251-26.938,60.355-60.195,60.425H117.937z"/>
	<path style="clip-path:url(#SVGID_2_);fill:#E2231A;" d="M60.043,96.521c-0.065-31.985,25.808-57.971,57.793-58.031
		c31.986-0.067,57.973,25.817,58.035,57.8c0.062,31.989-25.819,57.959-57.805,58.026C86.083,154.381,60.106,128.506,60.043,96.521"
		/>
	<polygon style="clip-path:url(#SVGID_2_);fill:#100C08;" points="158.725,58.434 196.947,55.224 156.722,55.886 	"/>
	<path style="clip-path:url(#SVGID_2_);fill:#FFFFFF;" d="M114.346,43.233c31.015,0,56.153,25.139,56.153,56.152
		c0,12.971-4.412,24.908-11.799,34.414c9.293-9.933,14.995-23.275,14.995-37.955c0-30.696-24.884-55.58-55.58-55.58
		c-13.443,0-25.765,4.771-35.377,12.711C91.742,46.831,102.623,43.233,114.346,43.233"/>
	<polygon style="clip-path:url(#SVGID_2_);fill:#100C08;" points="157.703,55.722 183.064,25.294 156.123,54.012 	"/>
	<path style="clip-path:url(#SVGID_2_);fill:#100C08;" d="M153.865,52.23c-2.87-2.617-29.851-24.214-29.851-24.214
		s26.325,23.369,28.829,26.014L153.865,52.23z"/>
	<polygon style="clip-path:url(#SVGID_2_);fill:#100C08;" points="153.938,11.314 154.311,52.856 157.676,54.147 	"/>
	<polygon style="clip-path:url(#SVGID_2_);fill:#FFFFFF;" points="154.034,16.116 153.51,52.626 125.531,29.308 150.412,54.872 
		112.292,56.013 150.412,57.84 131.926,79.068 152.465,59.44 154.519,98.015 155.435,59.667 174.836,77.243 157.718,57.613 
		195.579,55.224 157.489,54.872 178.89,29.734 156.233,52.932 	"/>
	<path style="clip-path:url(#SVGID_2_);fill:#100C08;" d="M97.572,88.616c0,0,0.066,0.075,0.35,3.569
		c0.276,3.495-3.854,4.165-3.854,4.165s0.468,1.174,0.689,2.217c0.488,1.953,0.728,4.007,0.936,4.401
		c0.6,0.38,0.973,1.359,1.328,1.793c0.358,0.439,1.109,0.965,1.109,0.965l-0.636,0.21c0,6.063,1.161,7.361,1.514,7.805
		c0.354,0.435,2.338,0.449,2.978,2.262c0.111,2.798,0.454,5.936,0.454,5.936c1.533,0.28,2.506,1.807,2.506,1.807
		c0.51,0.619,0.747,1.404,0.884,2.276c0.024,0.32,0.172,2.067,0.214,2.554c0.11,1.201-0.19,3.89-0.118,6.517
		c0.073,2.895,0.611,5.555,0.611,5.555c5.319,0.834,5.885,6.249,5.885,6.249c3.04-1.472,7.575-1.562,7.575-1.562
		s-0.259-2.633,0.176-3.512c0.433-0.89,3.103-2.074,3.103-2.074s0.21-5.842,0.302-8.109c0.093-2.277,0.5-7.848,0.5-7.848
		s0.007-0.307,0.346-0.544c0.777-0.531,2.078-1.424,2.312-1.746c0.335-0.336,0.428-3.165,0.428-3.165s1.05-0.09,1.658-0.899
		c0.441-0.469,0.039-3.254,0.039-3.254s1.667-0.864,2.354-2.225c0.694-1.367,0.968-3.93,0.914-5.478
		c-0.025-1.545-0.917-1.453-1.333-1.346c-0.124,0.688-1.768,3.064-1.896,0.801c-0.116-2.26,1.816-3.651,1.816-3.651
		c0.806,0.731,2.533,1.478,2.533,1.478c-0.101-1.675,1.031-2.857,1.391-6.901c0.408-3.564-0.922-4.19-1.093-4.423
		c-0.163-0.222-2.007-0.81-3.363-0.074c-1.386,1.268-1.481-0.518-1.11-1.213c0.387-0.704,3.923-0.915,3.923-0.915
		c0.315-1.042-0.142-2.022-0.142-2.022s6.876,1.068,11.765-0.631c5.272-1.842,12.464-2.211,15.562-2.238"/>
	<path style="clip-path:url(#SVGID_2_);fill:#FFFFFF;" d="M118.583,70.21c0,0,2.668-3.065,7.167-3.003
		c5.164,0.103,8.198,3.455,8.198,3.455s2.824-2.389,4.046-2.354c1.22,0.051,0.927-0.572,9.855,0.373
		c4.162,0.454,9.038,0.864,13.382,1.681c0.769,0.152,13.966,0.814,16.241,0.417c1.605-0.287,10.227-1.198,12.197-1.687
		c12.441-3.102,16.628-8.721,16.628-8.721s4.109-3.405,2.472-9.666c-2.172-8.241-18.321-10.901-18.321-10.901
		s18.81-10.708,28.72,6.272c0.84,1.434,1.253,3.099,1.731,5.11c0.626,2.625,0.329,6.826-1.123,11.188
		c-3.04,9.248-12.782,14.364-15.594,15.962c-11.153,6.325-26.509,7.286-27.408,7.461c-1.87,0.375-14.947,0.247-15.713,0.276
		c-3.24,0.168-6.43,0.608-8.995,1.179c-2.626,0.59-4.611,1.315-5.792,1.599c-2.89,0.642-7.416,0.382-8.497,0.248
		c0,0.11-0.052,0.709-0.401,1.674c2.793,1.65,1.862,6.137,1.862,6.137s-0.342,3.104-1.22,5.285
		c-0.313,0.777,0.037,2.936,0.037,2.936s-1.668-0.768-1.615-0.679c0.787,1.355,0,5.446-0.076,5.59
		c-0.197,0.989-0.586,2.887-2.767,4.27c-0.018,0.013,0.235,2.087-0.103,2.86c-0.323,0.956-1.622,1.579-1.729,1.586
		c-0.07,1.962-0.45,2.702-0.528,2.85c-0.224,0.473-2.531,2.025-2.531,2.025s-0.813,16.194-0.802,16.415
		c-0.075,0.074-2.888,1.203-3.254,1.942c-0.244,1.475,0.266,4.045,0.133,4.045c-3.631-0.097-7.407,0.751-9.916,2.206
		c-0.085-7.038-5.619-6.912-5.904-7.014c-0.801-2.925-0.683-7.589-0.792-7.861c-0.115-0.272,0.878-7.836-1.005-9.808
		c-0.199-0.224-1.064-1.085-2.333-1.059c-0.351-0.942-0.488-5.68-0.655-6.899c-0.359-0.735-2.748-1.057-2.843-1.895
		c-0.561-0.41-1.55-2.392-1.577-8.423c-0.511-0.574-0.915-1.463-1.169-1.703c-0.128-0.148-0.271-0.183-0.335-0.258
		c-0.558-0.59-1.048-5.646-2.398-8.32c-0.108-0.185,0.093-0.059,0.42-0.102c4.374-0.623,3.858-2.988,3.858-2.988
		s-0.147-2.596-0.169-2.609c-0.027-0.018-4.788-0.434-5.481-0.502c-1.532-0.168-4.695-1.245-7.339-1.83
		c-4.051-0.905-12.048-0.664-12.048-0.664s-8.311,0.44-12.741,0.123c-7.363-0.302-12.641-1.536-14.063-1.74
		c-5.712-0.797-13.953-4.584-14.597-4.79c-3.053-1.034-10.194-6.495-11.53-7.737c-4.595-4.291-6.168-9.018-6.168-9.018
		s-2.201-4.904-1.538-10.491c1.693-10.846,10.472-13.921,11.492-14.32c9.533-3.378,18.428,1.796,18.744,1.87
		c-0.287,0.427-16.545,2.759-18.164,12.334c-0.079,0.773-1.355,6.249,5.91,11.353c1.105,0.771,8.51,5.987,22.895,7.179
		c2.468,0.492,19.13-0.008,22.109-0.873c0.963-0.283,18.877-2.052,20.555-1.908c1.389,0.107,3.242,0.807,3.498,1.273
		c4.187-2.102,6.549-2.236,7.998-2.269C114.853,67.199,118.583,70.21,118.583,70.21"/>
	<path style="clip-path:url(#SVGID_2_);fill:#100C08;" d="M215.327,42.68c-8.689-8.815-21.127-3.255-21.127-3.255
		c12.744,3.15,14.932,8.134,16.05,11.554c0.695,4.073-0.186,9.025-6.538,13.413c-6.524,5.042-17.235,6.911-23.666,7.46
		c-7.089,0.76-18.815-0.11-22.276-0.765c-3.457-0.653-12.729-1.387-15.331-1.628c-2.6-0.228-4.713-0.412-6.607,1.444
		c-1.826,1.612-2.302,1.072-2.302,1.072s-3.118-3.839-7.897-3.462c-4.796,0.374-4.991,2.079-6.322,2.723
		c-0.649,0.386-0.763,0.37-1.309-0.016c-0.554-0.373-3.456-2.162-6.525-2.63c-5.181-0.473-10.189,2.454-10.189,2.454
		c-0.281-1.131-3.278-1.762-5.875-1.478c-2.585,0.282-12.002,0.842-15.457,1.552C76.511,71.839,63.09,72.945,56,72.307
		c-6.449-0.431-17.19-2.274-23.812-7.189c-6.423-4.276-7.38-9.214-6.763-13.294c1.055-3.447,3.151-8.457,15.84-11.834
		c0,0-12.532-5.346-21.068,3.615c-5.65,5.934-5.308,14.016-2.776,19.591c2.756,7.57,13.211,14.83,21.476,17.528
		c3.983,1.355,14.561,5.519,35.312,4.458c3.107-0.026,11.125-0.302,16.43,1.456c4.918,1.604,10.506,1.51,10.506,1.51
		s0.072,0.094,0.353,3.593c0.276,3.487-3.855,4.162-3.855,4.162s0.465,1.173,0.685,2.199c0.488,1.967,0.744,4.024,0.939,4.411
		c0.606,0.382,0.974,1.359,1.331,1.8c0.359,0.432,1.105,0.952,1.105,0.952l-0.629,0.218c0,6.066,1.155,7.362,1.512,7.798
		c0.351,0.433,2.34,0.452,2.971,2.263c0.121,2.808,0.458,5.946,0.458,5.946c1.537,0.272,2.509,1.794,2.509,1.794
		c0.519,0.626,0.745,1.421,0.879,2.29c0.029,0.305,0.181,2.057,0.229,2.557c0.093,1.194-0.2,3.872-0.136,6.508
		c0.078,2.885,0.618,5.547,0.618,5.547c5.324,0.829,5.899,6.268,5.899,6.268c3.031-1.489,7.556-1.57,7.556-1.57
		s-0.257-2.635,0.177-3.524c0.446-0.883,3.118-2.071,3.118-2.071s0.209-5.835,0.297-8.105c0.083-2.276,0.489-7.85,0.489-7.85
		s0.018-0.302,0.359-0.552c0.773-0.511,2.067-1.418,2.311-1.742c0.315-0.333,0.422-3.166,0.422-3.166s1.041-0.085,1.652-0.889
		c0.456-0.471,0.053-3.252,0.053-3.252s1.652-0.864,2.346-2.22c0.694-1.369,0.96-3.944,0.924-5.483
		c-0.039-1.539-0.928-1.459-1.352-1.35c-0.111,0.693-1.767,3.068-1.881,0.803c-0.126-2.265,1.818-3.657,1.818-3.657
		c0.804,0.736,2.532,1.481,2.532,1.481c-0.115-1.68,1.02-2.859,1.389-6.912c0.409-3.555-0.924-4.183-1.085-4.397
		c-0.18-0.226-2.021-0.819-3.369-0.087c-1.405,1.27-1.49-0.524-1.114-1.231c0.375-0.684,3.919-0.902,3.919-0.902
		c0.325-1.047-0.139-2.024-0.139-2.024s6.875,1.076,11.758-0.623c5.284-1.85,12.475-2.212,15.582-2.238
		c19.736,0.652,29.873-3.312,33.938-4.781c8.214-2.855,18.105-10.291,20.745-17.89C220.872,56.59,221.088,48.508,215.327,42.68"/>
	<path style="clip-path:url(#SVGID_2_);fill:#FFFFFF;" d="M151.584,81.16c-0.692-0.785-2.366-2.159-3.461-2.251l0.439-3.992
		c0,0-2.376-1.37-6.327-2.386c-3.507-1.018-3.507-0.722-4.229-0.372c-2.023,1.44-3.791,1.885-3.791,1.885s-3.078-3.634-7.314-3.955
		c-2.226-0.164-4.227,0.48-5.332,1.28c-1.326,0.951-2.003,1.562-2.003,1.562s-0.529,0.643-2.154-0.038
		c-1.682-0.683-3.617-3.529-9.433-2.716c-4.773,1.402-6.842,2.744-6.842,2.744s-0.438-1.971-3.353-1.957
		c-2.909,0.014-6.207,0.124-6.903,0.272c-0.676,0.16-1.864,0.806-2.157,0.859c-0.296,0.042,0.903,2.55-0.18,4.085
		c-0.582,0.894-0.235,1.475-1.375,1.436c0,0-2.508-0.043-2.698,1.876c-0.037,2.028,3.17,3.097,4.632-0.894
		c0,0,1.49,3.832,3.164,4.273c2.068,0.376,4.083-2.734,4.571-2.987c0,0-2.199,3.95-1.054,5.423c1.375,0.782,3.104,0.934,3.395,0.582
		c0.288-0.353,1.219-2.033,0.971-3.843c0,0,1.239,0.98,1.922,0.08c0.687-0.887,0.862-4.731,0.862-4.731s0.836-0.152,0.852,1.724
		c0.01,1.863,0.06,3.3,0.06,3.3s-1.135-0.143-1.282,0.595c-0.136,0.736,0.108,1.18,0.108,1.18l1.083-0.108
		c0,0,0.348,0.693-1.072,1.491c0,0,1.446,3.888,0.42,6.755c-1.066,3.242-3.231,3.707-3.231,3.707s0.705,3.536,0.705,4.327
		c0.004,0.796,1.241,1.822,1.542,2.56c0.445,0.728,0.841,1.374,0.841,1.374s-1.385-2.705-1.594-4.925
		c-0.21-2.205,1.807-2.967,4.465-3.714c0,0,1.286-0.05,1.914,0.242c0.653,0.293,1.593,0.635,1.593,0.635s1.084,0.924,1.132,1.274
		c0.06,0.34,0.41,2.897,0.369,3.587c-0.099,0.698-0.934,1.038-0.934,1.038s0.513,5.033,0.463,5.765
		c-0.039,0.735-0.083,0.941-0.083,0.941s-0.45-0.099-0.701-0.34c-0.244-0.236-0.297-0.045-0.297-0.045s-0.282,1.719-1.71,2.565
		c0,0-0.404-0.733-0.739-0.983c-0.347-0.241-0.936-0.731-2.484-3.529c0,0-0.547-0.893-1.431-0.733c0,0,0.013,3.157,0.765,4.872
		c0.887,1.323,1.473,0.725,2.028,1.91c0.396,0.883,1.039,1.428,1.293,2.857c0.498,1.863,0.954,4.522,0.954,4.522
		s2.276,1.694,2.827,2.838c0.343,0.729,0.551,1.789,0.546,3.324c0,0.033-0.189,9.772,0.044,11.097
		c0.11,0.681,0.372,1.071,0.372,1.071s3.078,0.156,5.258,5.608l4.407-0.953c0,0-0.046-0.478,0.116-1.198
		c0.265-1.205,1.211-2.464,1.516-2.743c0.415-0.371,1.926-0.812,1.926-0.812s0.3,0.044,0.338-0.491c0,0,0.318-10.872,0.286-11.328
		l0.264-3.875c0,0,1.283-0.756,2.453-2.292c0.737-0.588,0.774-3.15,0.774-3.15l1.481,0.193c0,0,0.745,0.092,0.029-4.536
		c0,0,0.932-0.3,2.599-2.671l0.232-2.71l-4.023,3.712c0,0-1.883-2.11-1.935-2.356c-0.05-0.247-0.442-1.083-0.229-6.057l-0.637-0.797
		l-0.056-0.39l0.539-0.841c0,0,0.777-3.647,1.261-4.235c0.496-0.592,2.264-1.001,4.58-0.273c2.472,0.921,2.981,4.283,2.981,4.283
		s0.604-0.43,0.631-3.444c0.109-1.136-0.092-2.682-0.092-2.682s-0.055-1.125-1.574-1.062c-0.839,0.192-1.209,0.977-2.449,0.399
		c-1.082-0.145-1.238,0.102-1.788-1.722c-0.201-1.917,2.01-2.862,3.485-3.26l0.153-1.229c0,0-1.885-2.024-2.045-3.157l0.844-0.052
		c0,0-1.888-4.131,0.164-6.443c0,0-0.514,5.308,2.34,4.95l0.797,2.314c0,0,1.88,1.171,1.977,1.415c0,0,1.043,0.156,2.957-0.149
		c0.446-0.701-0.346-0.896-1.139-1.329c-1.188-0.629-1.533-1.864-0.604-2.96c0,0,1.145,1.679,3.27,2.552c3.296-0.07,3.038-1,3.038-1
		l0.344-1.176c0,0-0.194-1.286,0.393-1.979l1.986,3.146c0,0,0.688-0.45,1.031-0.498c0.345-0.055,2.354-0.401,2.354-0.401
		S152.292,81.952,151.584,81.16"/>
	<path style="clip-path:url(#SVGID_2_);fill:#100C08;" d="M117.731,78.325c0,0-0.006-3.722,0.071-3.993
		c0.069-0.279,0.317-0.593,0.685-0.561c0.357,0.047,0.641,0.716,0.641,0.716s-0.325,2.04-0.4,2.315
		C118.652,77.074,118.442,77.696,117.731,78.325"/>
	<path style="clip-path:url(#SVGID_2_);fill:#100C08;" d="M117.907,100.238c0,0-0.555,6.613-0.654,7.004
		c-0.095,0.387,0.931,0.186,0.931,0.186s1.178-2.076,1.377-2.364c0.195-0.303,0.181-0.493-0.104-1.136
		C119.161,103.287,117.907,100.238,117.907,100.238"/>
	<path style="clip-path:url(#SVGID_2_);fill:#100C08;" d="M118.452,108.812l0.883,0.047c0,0-0.461,4.284-0.456,5.567
		c0,1.282-0.083,3.059-0.083,3.059h-0.692c0,0-0.803-3.057-0.803-3.24c0-0.205,1.118-2.822,1.118-2.822L118.452,108.812z"/>
	<path style="clip-path:url(#SVGID_2_);fill:#100C08;" d="M117.427,120.542c0,0,0.792-0.249,0.987-0.198
		c0.187,0.05,0.293,0.189,0.293,0.189l0.018,4.439c0,0,0.157,0.981,0.348,1.227c0.207,0.248,1.09,0.584,1.289,1.124
		c0.208,0.544,0.555,2.558,0.115,4.148c-0.583,2.458-1.51,2.909-1.404,3.937c0.096,1.043,0.695,2.862,0.704,3.503
		c0,0-0.345,0.438-1.279,0.2c-0.295-0.341-0.936-0.29-0.936-0.29s0.432-2.763,0.176-4.187c-0.159-1.181-1.48-0.533-1.48-0.533
		l-0.027-6.51c0,0-0.25-0.544,0.532-0.936c0.789-0.398,1.035-0.447,1.035-0.447L117.427,120.542z"/>
	<path style="clip-path:url(#SVGID_2_);fill:#E2231A;" d="M121.291,83.128c0,0,1.047-0.95,1.074-1.109
		c0.023-0.164-0.516-1.046-1.413-1.44c-0.905-0.401-1.391-0.074-1.391-0.074s-1.334,2.363-2.023,2.638
		c-1.394-0.463-2.283-1.593-3.107-2.475c-0.831-0.878-3.453-3.63-3.453-3.63l-0.331-0.192c0,0,0.048,1.308,0.129,2.916
		c0.047,0.827,0.181,1.841,0.242,2.67c0.102,1.482,0.131,2.672,0.184,2.746c0.114,0.183,1.759,1.849,1.759,1.849
		s0.189,0.219,0.01,0.322c-0.169,0.099-1.326,1.432-2.193,1.514c-0.977,0.203-1.819-0.096-1.962-0.194l0.067,0.603
		c0,0,0.804,2.548,1.098,2.921c0.303,0.383,0.404,0.065,0.666,0.372c0.527,0.282,0.499,1.519,0.499,1.519l4.184-0.239l1.262-3.16
		c0,0,1.327-0.145,1.557-0.218c0.229-0.057,1.588-0.16,1.847-0.125c0.26,0.023,0.618,0.819,0.887,0.966
		c0.116,0.094,0.513-0.13,0.828-0.368c0.319-0.224,2.513-1.188,3.067-1.267c0.309-0.137,2.915-4.204,4.083-5.094
		c0,0-1.675,0.287-2.793,0.57c-1.124,0.273-3.434,0.254-3.665,0.225c-0.575-0.055-1.356-0.227-1.356-0.227
		S121.086,84.18,121.291,83.128"/>
	<path style="clip-path:url(#SVGID_2_);fill:#FFFFFF;" d="M106.569,106.204c0,0,1.227-0.258,0.872-1.726
		c-0.643-1.375-1.868-0.972-2.165,0.053C104.985,105.57,105.633,106.451,106.569,106.204"/>
	<path style="clip-path:url(#SVGID_2_);fill:#FFFFFF;" d="M129.72,103.385c0,0-1.19,0.251-0.44,2.022
		c0.893,0.638,1.771-0.253,1.631-0.742C130.858,104.167,130.81,103.527,129.72,103.385"/>
	<path style="clip-path:url(#SVGID_2_);fill:#FFFFFF;" d="M48.461,72.37c0,0,9.926,3.703,34.746,0.037c0,0,0.772,7.734-7.258,8.657
		c-6.842,0.825-14.49-1.699-16.171-2.339C55.925,77.412,49.312,74.29,48.461,72.37"/>
	<path style="clip-path:url(#SVGID_2_);fill:#FFFFFF;" d="M175.847,78.369c-1.704,0.593-9.401,2.969-16.229,2.011
		c-8.001-1.083-7.072-8.797-7.072-8.797c24.74,4.166,34.739,0.668,34.739,0.668C186.388,74.148,179.712,77.135,175.847,78.369"/>
	<path style="clip-path:url(#SVGID_2_);fill:#100C08;" d="M217.727,130.828l-75.559,15.446l0.013-9.461l-10.625,2.178l0.008,9.468
		l-79.042,16.312l-0.035-9.488L18.45,162.36v39.696l73.54-15.133l0.043-19.755l10.625-2.191l0.042,19.727l115.029-23.716
		L217.727,130.828z M52.46,184.314l-23.051,4.77l-0.061-17.962l23.203-4.845L52.46,184.314z M149.352,164.498l-7.19,1.449
		l0.081-9.129l7.118-1.454L149.352,164.498z M199.306,154.188l0.029-9.009l7.709-1.605l0.044,9.006L199.306,154.188z"/>
	<path style="clip-path:url(#SVGID_2_);fill:none;stroke:#100C08;stroke-width:0.174;stroke-miterlimit:10;" d="M217.727,130.828
		l-75.559,15.446l0.013-9.461l-10.625,2.178l0.008,9.468l-79.042,16.312l-0.035-9.488L18.45,162.36v39.696l73.54-15.133
		l0.043-19.755l10.625-2.191l0.042,19.727l115.029-23.716L217.727,130.828z M52.46,184.314l-23.051,4.77l-0.061-17.962l23.203-4.845
		L52.46,184.314z M149.352,164.498l-7.19,1.449l0.081-9.129l7.118-1.454L149.352,164.498z M199.306,154.188l0.029-9.009l7.709-1.605
		l0.044,9.006L199.306,154.188z"/>
	<path style="clip-path:url(#SVGID_2_);fill:#FFFFFF;" d="M104.055,155.681l-0.007,7.433c0,0,15.908-3.278,17.802-3.668
		c0,0.821-0.001,1.408-0.001,2.232c-1.895,0.391-17.803,3.673-17.803,3.673l-0.016,17.48l25.927-5.376l0.001-27.105L104.055,155.681
		z M122.437,168.978c0,0.908-0.001,1.703-0.002,2.609c-1.644,0.341-9.247,1.91-10.888,2.253c0-0.908,0-1.702,0.002-2.608
		C113.191,170.89,120.794,169.32,122.437,168.978"/>
	<path style="clip-path:url(#SVGID_2_);fill:#FFFFFF;" d="M161.214,143.942l-0.008,7.415c0,0,15.912-3.259,17.813-3.652
		c-0.004,0.827-0.004,1.411-0.004,2.231c-1.9,0.388-17.811,3.648-17.811,3.648l-0.017,17.425l25.931-5.338v-27.025L161.214,143.942z
		 M179.599,157.213c-0.001,0.904-0.001,1.695-0.003,2.602c-1.647,0.339-9.245,1.898-10.889,2.236c0-0.903,0.002-1.7,0.002-2.603
		C170.354,159.11,177.95,157.553,179.599,157.213"/>
	<path style="clip-path:url(#SVGID_2_);fill:#FFFFFF;" d="M19.731,200.405l31.173-6.516l0.034-7.77c0,0-21.436,4.472-23.391,4.878
		c0.002-1.853,0.019-19.323,0.019-21.179c1.955-0.404,23.17-4.806,23.17-4.806l-0.005-7.797l-30.966,6.404L19.731,200.405z"/>
	<path style="clip-path:url(#SVGID_2_);fill:#FFFFFF;" d="M53.875,166.049l-0.006,7.453c0,0,15.915-3.3,17.812-3.693
		c-0.001,0.825-0.001,1.416-0.001,2.242c-1.898,0.394-17.814,3.692-17.814,3.692l-0.017,17.529l25.934-5.402v-27.185L53.875,166.049
		z M72.266,179.372c-0.001,0.904-0.002,1.704-0.002,2.613c-1.649,0.349-9.252,1.926-10.898,2.266
		c0.001-0.908,0.001-1.705,0.002-2.616C63.015,181.291,70.618,179.714,72.266,179.372"/>
	<path style="clip-path:url(#SVGID_2_);fill:#FFFFFF;" d="M82.785,160.066l-0.081,27.195l7.52-1.568c0,0,0.017-17.822,0.019-19.726
		c1.748-0.36,10.857-2.245,10.857-2.245l0.029-7.44L82.785,160.066z"/>
	<path style="clip-path:url(#SVGID_2_);fill:#FFFFFF;" d="M132.913,140.291l0.027,36.547l25.324-5.229l0.004-27.08
		c0,0-15.959,3.284-17.863,3.67c0.003-1.671,0.01-9.447,0.01-9.447L132.913,140.291z M150.763,153.483
		c-0.002,1.673-0.01,10.592-0.011,12.263c-1.625,0.331-8.701,1.793-10.321,2.129c0.003-1.677,0.01-10.596,0.012-12.271
		C142.062,155.267,149.138,153.813,150.763,153.483"/>
	<path style="clip-path:url(#SVGID_2_);fill:#FFFFFF;" d="M190.071,138.045l-0.026,27.025l25.902-5.311l0.025-26.992
		L190.071,138.045z M208.437,141.698c-0.002,1.667-0.01,10.539-0.013,12.206c-1.645,0.34-9.228,1.894-10.874,2.225
		c0-1.666,0.01-10.545,0.012-12.211C199.208,143.58,206.792,142.037,208.437,141.698"/>
	<path style="clip-path:url(#SVGID_2_);fill:#100C08;" d="M163.386,187.095l-38.891,7.833l0.104,19.767l-7.782,1.608l-0.04-19.837
		l-10.366,2.095l-0.035-9.489l-34.035,7.078v39.694l91.046-18.586L163.386,187.095z M106.12,218.411l-23.05,4.771l-0.062-17.962
		l23.204-4.842L106.12,218.411z M152.744,209.034l-7.189,1.452l0.081-9.129l7.118-1.454L152.744,209.034z"/>
	<path style="clip-path:url(#SVGID_2_);fill:none;stroke:#100C08;stroke-width:0.174;stroke-miterlimit:10;" d="M163.386,187.095
		l-38.891,7.833l0.104,19.767l-7.782,1.608l-0.04-19.837l-10.366,2.095l-0.035-9.489l-34.035,7.078v39.694l91.046-18.586
		L163.386,187.095z M106.12,218.411l-23.05,4.771l-0.062-17.962l23.204-4.842L106.12,218.411z M152.744,209.034l-7.189,1.452
		l0.081-9.129l7.118-1.454L152.744,209.034z"/>
	<polygon style="clip-path:url(#SVGID_2_);fill:#100C08;" points="145.595,220.797 134.992,222.985 134.978,232.443 
		145.603,230.266 	"/>
	<polygon style="clip-path:url(#SVGID_2_);fill:none;stroke:#100C08;stroke-width:0.174;stroke-miterlimit:10;" points="
		145.595,220.797 134.992,222.985 134.978,232.443 145.603,230.266 	"/>
	<path style="clip-path:url(#SVGID_2_);fill:#FFFFFF;" d="M73.392,234.243l31.173-6.517l0.034-7.77c0,0-21.437,4.472-23.392,4.879
		c0.001-1.851,0.018-19.325,0.02-21.178c1.955-0.405,23.169-4.807,23.169-4.807l-0.006-7.798l-30.965,6.408L73.392,234.243z"/>
	<path style="clip-path:url(#SVGID_2_);fill:#FFFFFF;" d="M161.661,188.807l-25.354,5.228l0.026,26.742l0.008,9.804l7.487-1.556
		c0-1.471,0.005-7.934,0.007-9.457l17.823-3.679L161.661,188.807z M154.145,210.025c-1.625,0.331-8.701,1.791-10.319,2.127
		c0.002-1.676,0.009-10.595,0.011-12.27c1.618-0.338,8.695-1.793,10.32-2.123C154.154,199.431,154.147,208.351,154.145,210.025"/>
	<path style="clip-path:url(#SVGID_2_);fill:#FFFFFF;" d="M115.082,198.639l-7.498,1.52l-0.025,27.025l25.901-5.313l0.024-26.989
		l-7.515,1.53l-0.021,7.398c-0.002,1.671-0.011,10.538-0.011,12.209c-1.646,0.338-9.23,1.892-10.876,2.224
		c0.001-1.669,0.009-10.545,0.01-12.211L115.082,198.639z"/>
	<polygon style="clip-path:url(#SVGID_2_);fill:#FFFFFF;" points="217.251,226.503 28.091,263.186 28.225,260.19 217.22,223.522 	
		"/>
	<polygon style="clip-path:url(#SVGID_2_);fill:none;stroke:#FFFFFF;stroke-miterlimit:10;" points="217.251,226.503 
		28.091,263.186 28.225,260.19 217.22,223.522 	"/>
	<path style="clip-path:url(#SVGID_2_);fill:#FFFFFF;" d="M119.255,275.735v5.428v3.428v5.429v5.065h0.063
		c0.203,1.866,1.232,3.871,3.63,3.871h10.42v-5.143h-8.733v-3.794h8.262v-5.429h-8.262v-3.428h8.906v-5.428h-8.906H119.255z"/>
	<path style="clip-path:url(#SVGID_2_);fill:#FFFFFF;" d="M137.931,295.938c0.416,1.88,1.381,3.023,3.229,2.992h2.332v-9.154h7.474
		v-5.019h-7.474v-4.01h8.373v-5.08h-14.114L137.931,295.938z"/>
	<path style="clip-path:url(#SVGID_2_);fill:#FFFFFF;" d="M155.992,275.718v18.126c0,2.477,0.252,4.971,3.372,4.971h9.244v-4.971
		h-7.3v-18.126H155.992z"/>
	<path style="clip-path:url(#SVGID_2_);fill:#FFFFFF;" d="M74.961,278.042c0,1.498-1.174,2.718-2.625,2.718
		c-1.45,0-2.626-1.22-2.626-2.718c0-1.5,1.176-2.716,2.626-2.716C73.787,275.327,74.961,276.542,74.961,278.042"/>
	<path style="clip-path:url(#SVGID_2_);fill:#FFFFFF;" d="M82.053,277.877c0,1.761-1.379,3.189-3.078,3.189
		c-1.702,0-3.079-1.429-3.079-3.189c0-1.757,1.377-3.179,3.079-3.179C80.674,274.699,82.053,276.121,82.053,277.877"/>
	<path style="clip-path:url(#SVGID_2_);fill:#FFFFFF;" d="M88.227,281.43c0,1.867-1.461,3.376-3.262,3.376
		c-1.802,0-3.263-1.509-3.263-3.376c0-1.863,1.461-3.375,3.263-3.375C86.766,278.055,88.227,279.567,88.227,281.43"/>
	<path style="clip-path:url(#SVGID_2_);fill:#FFFFFF;" d="M79.22,283.998c0,1.67-1.308,3.027-2.922,3.027
		c-1.615,0-2.923-1.357-2.923-3.027c0-1.668,1.308-3.022,2.923-3.022C77.912,280.975,79.22,282.33,79.22,283.998"/>
	<path style="clip-path:url(#SVGID_2_);fill:#FFFFFF;" d="M72.764,283.348c0,1.354-1.077,2.455-2.404,2.455
		c-1.33,0-2.407-1.102-2.407-2.455c0-1.352,1.077-2.449,2.407-2.449C71.687,280.899,72.764,281.997,72.764,283.348"/>
	<path style="clip-path:url(#SVGID_2_);fill:#FFFFFF;" d="M84.681,287.52c0,1.631-1.301,2.955-2.902,2.955
		c-1.602,0-2.905-1.324-2.905-2.955c0-1.633,1.303-2.954,2.905-2.954C83.38,284.566,84.681,285.887,84.681,287.52"/>
	<path style="clip-path:url(#SVGID_2_);fill:#FFFFFF;" d="M72.159,288.772c0,1.313-1.026,2.374-2.295,2.374
		c-1.267,0-2.294-1.061-2.294-2.374c0-1.312,1.027-2.373,2.294-2.373C71.133,286.399,72.159,287.46,72.159,288.772"/>
	<path style="clip-path:url(#SVGID_2_);fill:#FFFFFF;" d="M77.577,289.994c0,1.353-1.059,2.451-2.368,2.451
		s-2.368-1.099-2.368-2.451c0-1.354,1.059-2.447,2.368-2.447S77.577,288.64,77.577,289.994"/>
	<path style="clip-path:url(#SVGID_2_);fill:#FFFFFF;" d="M82.235,292.977c0,1.352-1.06,2.446-2.368,2.446
		c-1.306,0-2.366-1.095-2.366-2.446c0-1.357,1.06-2.454,2.366-2.454C81.175,290.523,82.235,291.62,82.235,292.977"/>
	<path style="clip-path:url(#SVGID_2_);fill:#FFFFFF;" d="M81.931,298.026c0,1.137-0.906,2.056-2.025,2.056
		c-1.117,0-2.023-0.919-2.023-2.056c0-1.133,0.906-2.054,2.023-2.054C81.024,295.972,81.931,296.893,81.931,298.026"/>
	<path style="clip-path:url(#SVGID_2_);fill:#FFFFFF;" d="M77.26,295.139c0,1.146-0.906,2.075-2.023,2.075s-2.024-0.929-2.024-2.075
		c0-1.142,0.907-2.067,2.024-2.067S77.26,293.998,77.26,295.139"/>
	<path style="clip-path:url(#SVGID_2_);fill:#FFFFFF;" d="M72.539,293.573c0,1.145-0.905,2.074-2.023,2.074
		c-1.117,0-2.026-0.93-2.026-2.074s0.909-2.069,2.026-2.069C71.634,291.503,72.539,292.428,72.539,293.573"/>
	<path style="clip-path:url(#SVGID_2_);fill:#FFFFFF;" d="M73.357,297.307c0,0.862-0.687,1.561-1.534,1.561
		c-0.848,0-1.532-0.698-1.532-1.561c0-0.859,0.684-1.559,1.532-1.559C72.67,295.749,73.357,296.448,73.357,297.307"/>
	<path style="clip-path:url(#SVGID_2_);fill:#FFFFFF;" d="M77.638,299.155c0,0.858-0.687,1.559-1.534,1.559
		c-0.849,0-1.534-0.7-1.534-1.559c0-0.861,0.685-1.557,1.534-1.557C76.951,297.598,77.638,298.293,77.638,299.155"/>
	<path style="clip-path:url(#SVGID_2_);fill:#FFFFFF;" d="M74.534,300.224c0,0.704-0.562,1.274-1.252,1.274
		c-0.692,0-1.254-0.57-1.254-1.274c0-0.703,0.562-1.27,1.254-1.27C73.972,298.955,74.534,299.521,74.534,300.224"/>
	<path style="clip-path:url(#SVGID_2_);fill:#FFFFFF;" d="M76.298,302.497c0,0.656-0.522,1.191-1.17,1.191
		c-0.646,0-1.171-0.535-1.171-1.191c0-0.659,0.525-1.19,1.171-1.19C75.776,301.306,76.298,301.837,76.298,302.497"/>
	<path style="clip-path:url(#SVGID_2_);fill:#FFFFFF;" d="M79.157,302.242c0,0.656-0.519,1.184-1.162,1.184
		c-0.642,0-1.164-0.527-1.164-1.184c0-0.652,0.522-1.184,1.164-1.184C78.638,301.058,79.157,301.589,79.157,302.242"/>
	<path style="clip-path:url(#SVGID_2_);fill:#FFFFFF;" d="M82.717,301.932c0,0.861-0.687,1.559-1.534,1.559
		c-0.847,0-1.534-0.697-1.534-1.559c0-0.86,0.687-1.561,1.534-1.561C82.03,300.372,82.717,301.072,82.717,301.932"/>
	<path style="clip-path:url(#SVGID_2_);fill:#FFFFFF;" d="M81.119,305.332c0,0.653-0.521,1.184-1.164,1.184
		c-0.642,0-1.163-0.53-1.163-1.184c0-0.657,0.521-1.183,1.163-1.183C80.598,304.149,81.119,304.674,81.119,305.332"/>
	<path style="clip-path:url(#SVGID_2_);fill:#FFFFFF;" d="M84.125,305.059c0,0.695-0.552,1.261-1.236,1.261
		c-0.685,0-1.238-0.565-1.238-1.261c0-0.692,0.553-1.256,1.238-1.256C83.572,303.803,84.125,304.367,84.125,305.059"/>
	<path style="clip-path:url(#SVGID_2_);fill:#FFFFFF;" d="M78.423,304.711c0,0.493-0.393,0.895-0.876,0.895
		c-0.486,0-0.88-0.401-0.88-0.895c0-0.49,0.394-0.891,0.88-0.891C78.03,303.821,78.423,304.221,78.423,304.711"/>
	<path style="clip-path:url(#SVGID_2_);fill:#FFFFFF;" d="M82.608,307.178c0,0.456-0.364,0.829-0.813,0.829
		c-0.451,0-0.814-0.373-0.814-0.829c0-0.454,0.363-0.825,0.814-0.825C82.244,306.353,82.608,306.724,82.608,307.178"/>
	<path style="clip-path:url(#SVGID_2_);fill:#FFFFFF;" d="M85.53,307.426c0,0.604-0.48,1.092-1.073,1.092
		c-0.593,0-1.075-0.487-1.075-1.092c0-0.6,0.482-1.087,1.075-1.087C85.05,306.339,85.53,306.827,85.53,307.426"/>
	<path style="clip-path:url(#SVGID_2_);fill:#FFFFFF;" d="M87.475,308.541c0,0.427-0.337,0.771-0.755,0.771
		c-0.417,0-0.757-0.344-0.757-0.771c0-0.422,0.34-0.768,0.757-0.768C87.138,307.773,87.475,308.119,87.475,308.541"/>
	<path style="clip-path:url(#SVGID_2_);fill:#FFFFFF;" d="M106.456,278.345c-1.379-0.59-2.037-2.148-1.467-3.483
		c0.57-1.334,2.15-1.934,3.53-1.345c1.379,0.59,2.037,2.15,1.465,3.484C109.416,278.332,107.833,278.936,106.456,278.345"/>
	<path style="clip-path:url(#SVGID_2_);fill:#FFFFFF;" d="M102.903,284.341c-1.618-0.692-2.387-2.519-1.719-4.081
		c0.667-1.565,2.52-2.271,4.138-1.579c1.617,0.688,2.387,2.517,1.718,4.08C106.372,284.326,104.521,285.034,102.903,284.341"/>
	<path style="clip-path:url(#SVGID_2_);fill:#FFFFFF;" d="M96.885,288.035c-1.717-0.73-2.532-2.671-1.824-4.327
		c0.709-1.658,2.672-2.406,4.386-1.673c1.715,0.733,2.532,2.669,1.823,4.327C100.561,288.019,98.597,288.767,96.885,288.035"/>
	<path style="clip-path:url(#SVGID_2_);fill:#FFFFFF;" d="M98.782,278.875c-1.536-0.657-2.266-2.396-1.633-3.877
		c0.634-1.481,2.393-2.152,3.93-1.498c1.532,0.655,2.264,2.389,1.63,3.876C102.075,278.858,100.316,279.531,98.782,278.875"/>
	<path style="clip-path:url(#SVGID_2_);fill:#FFFFFF;" d="M102.699,273.782c-1.245-0.534-1.83-1.953-1.306-3.177
		c0.52-1.221,1.953-1.782,3.197-1.249c1.245,0.532,1.83,1.956,1.308,3.176C105.375,273.755,103.943,274.313,102.699,273.782"/>
	<path style="clip-path:url(#SVGID_2_);fill:#FFFFFF;" d="M93.266,281.791c-1.503-0.642-2.208-2.354-1.578-3.828
		c0.631-1.477,2.358-2.147,3.858-1.509c1.501,0.644,2.209,2.356,1.578,3.829C96.494,281.759,94.766,282.432,93.266,281.791"/>
	<path style="clip-path:url(#SVGID_2_);fill:#FFFFFF;" d="M98.406,270.569c-1.204-0.514-1.778-1.876-1.279-3.037
		c0.498-1.169,1.878-1.697,3.083-1.181c1.205,0.517,1.779,1.878,1.281,3.043C100.995,270.558,99.613,271.083,98.406,270.569"/>
	<path style="clip-path:url(#SVGID_2_);fill:#FFFFFF;" d="M94.502,274.42c-1.245-0.533-1.837-1.941-1.323-3.14
		c0.514-1.206,1.939-1.75,3.183-1.216c1.244,0.53,1.838,1.937,1.323,3.14C97.169,274.407,95.746,274.949,94.502,274.42"/>
	<path style="clip-path:url(#SVGID_2_);fill:#FFFFFF;" d="M89.408,276.879c-1.243-0.532-1.837-1.938-1.322-3.143
		c0.514-1.199,1.939-1.748,3.183-1.213c1.245,0.532,1.837,1.937,1.322,3.143C92.077,276.865,90.654,277.412,89.408,276.879"/>
	<path style="clip-path:url(#SVGID_2_);fill:#FFFFFF;" d="M85.338,274.286c-1.044-0.447-1.534-1.639-1.094-2.67
		c0.439-1.027,1.642-1.5,2.685-1.055c1.044,0.448,1.534,1.641,1.094,2.67C87.583,274.258,86.38,274.732,85.338,274.286"/>
	<path style="clip-path:url(#SVGID_2_);fill:#FFFFFF;" d="M90.089,271.647c-1.052-0.448-1.549-1.646-1.109-2.675
		c0.44-1.025,1.647-1.495,2.7-1.048c1.049,0.448,1.548,1.65,1.109,2.675C92.349,271.627,91.141,272.094,90.089,271.647"/>
	<path style="clip-path:url(#SVGID_2_);fill:#FFFFFF;" d="M93.842,268.445c-1.052-0.45-1.548-1.646-1.107-2.676
		c0.439-1.023,1.647-1.495,2.699-1.048c1.052,0.451,1.548,1.649,1.108,2.676C96.104,268.428,94.896,268.894,93.842,268.445"/>
	<path style="clip-path:url(#SVGID_2_);fill:#FFFFFF;" d="M90.219,267.142c-0.793-0.341-1.163-1.244-0.832-2.022
		c0.332-0.781,1.246-1.139,2.037-0.8c0.792,0.339,1.163,1.243,0.831,2.024C91.921,267.121,91.009,267.478,90.219,267.142"/>
	<path style="clip-path:url(#SVGID_2_);fill:#FFFFFF;" d="M86.381,270.153c-0.791-0.335-1.166-1.241-0.829-2.022
		c0.331-0.776,1.243-1.135,2.036-0.798c0.79,0.339,1.162,1.244,0.829,2.023C88.085,270.136,87.173,270.491,86.381,270.153"/>
	<path style="clip-path:url(#SVGID_2_);fill:#FFFFFF;" d="M86.944,266.878c-0.646-0.275-0.952-1.015-0.679-1.648
		c0.272-0.638,1.015-0.931,1.661-0.655c0.648,0.276,0.951,1.018,0.678,1.653C88.335,266.867,87.59,267.155,86.944,266.878"/>
	<path style="clip-path:url(#SVGID_2_);fill:#FFFFFF;" d="M83.965,267.218c-0.603-0.256-0.889-0.946-0.635-1.543
		c0.255-0.596,0.952-0.867,1.557-0.611c0.604,0.26,0.889,0.952,0.633,1.546C85.267,267.207,84.57,267.479,83.965,267.218"/>
	<path style="clip-path:url(#SVGID_2_);fill:#FFFFFF;" d="M82.748,269.621c-0.602-0.255-0.882-0.941-0.629-1.531
		c0.251-0.594,0.944-0.865,1.542-0.607c0.602,0.258,0.885,0.946,0.632,1.536C84.04,269.609,83.348,269.878,82.748,269.621"/>
	<path style="clip-path:url(#SVGID_2_);fill:#FFFFFF;" d="M81.241,272.886c-0.789-0.341-1.162-1.246-0.83-2.022
		c0.334-0.781,1.246-1.139,2.037-0.799c0.792,0.337,1.164,1.242,0.831,2.024C82.947,272.866,82.035,273.223,81.241,272.886"/>
	<path style="clip-path:url(#SVGID_2_);fill:#FFFFFF;" d="M79.073,269.885c-0.599-0.259-0.883-0.945-0.631-1.536
		c0.253-0.589,0.944-0.859,1.546-0.605c0.599,0.257,0.883,0.942,0.629,1.533C80.367,269.868,79.674,270.142,79.073,269.885"/>
	<path style="clip-path:url(#SVGID_2_);fill:#FFFFFF;" d="M77.941,272.493c-0.636-0.272-0.938-1.004-0.668-1.631
		c0.267-0.629,1.003-0.919,1.641-0.646c0.639,0.273,0.938,1.007,0.672,1.633C79.315,272.476,78.582,272.765,77.941,272.493"/>
	<path style="clip-path:url(#SVGID_2_);fill:#FFFFFF;" d="M80.896,267.78c-0.455-0.195-0.665-0.71-0.475-1.156
		c0.19-0.449,0.711-0.654,1.165-0.458c0.454,0.19,0.664,0.711,0.474,1.158C81.869,267.771,81.347,267.975,80.896,267.78"/>
	<path style="clip-path:url(#SVGID_2_);fill:#FFFFFF;" d="M76.721,270.201c-0.42-0.181-0.616-0.66-0.439-1.072
		c0.176-0.413,0.659-0.605,1.079-0.426c0.42,0.183,0.618,0.662,0.441,1.074C77.625,270.19,77.143,270.38,76.721,270.201"/>
	<path style="clip-path:url(#SVGID_2_);fill:#FFFFFF;" d="M74.955,272.527c-0.556-0.235-0.815-0.869-0.584-1.414
		c0.235-0.548,0.873-0.795,1.425-0.559c0.556,0.236,0.816,0.873,0.584,1.415C76.145,272.513,75.508,272.765,74.955,272.527"/>
	<path style="clip-path:url(#SVGID_2_);fill:#FFFFFF;" d="M73.032,273.684c-0.389-0.167-0.573-0.616-0.409-1
		c0.163-0.383,0.613-0.557,1.005-0.393c0.39,0.167,0.573,0.614,0.408,0.997C73.873,273.672,73.424,273.849,73.032,273.684"/>
	<path style="clip-path:url(#SVGID_2_);fill:#FFFFFF;" d="M90.011,304.772c1.21-0.891,2.888-0.659,3.745,0.507
		c0.859,1.168,0.574,2.838-0.634,3.725c-1.211,0.89-2.886,0.661-3.745-0.506C88.516,307.326,88.803,305.658,90.011,304.772"/>
	<path style="clip-path:url(#SVGID_2_);fill:#FFFFFF;" d="M86.655,298.662c1.417-1.039,3.383-0.775,4.389,0.598
		c1.007,1.371,0.673,3.324-0.745,4.367c-1.417,1.039-3.383,0.771-4.388-0.594C84.905,301.659,85.238,299.705,86.655,298.662"/>
	<path style="clip-path:url(#SVGID_2_);fill:#FFFFFF;" d="M86.534,291.602c1.503-1.102,3.586-0.821,4.655,0.631
		c1.067,1.453,0.711,3.526-0.792,4.629c-1.5,1.104-3.584,0.819-4.651-0.631C84.681,294.779,85.034,292.704,86.534,291.602"/>
	<path style="clip-path:url(#SVGID_2_);fill:#FFFFFF;" d="M93.458,297.893c1.347-0.985,3.212-0.736,4.166,0.566
		c0.955,1.302,0.639,3.153-0.706,4.142c-1.345,0.992-3.211,0.74-4.166-0.563C91.797,300.739,92.114,298.882,93.458,297.893"/>
	<path style="clip-path:url(#SVGID_2_);fill:#FFFFFF;" d="M95.852,303.856c1.09-0.802,2.614-0.581,3.398,0.489
		c0.787,1.069,0.542,2.591-0.549,3.39c-1.091,0.802-2.613,0.582-3.398-0.487C94.515,306.173,94.762,304.659,95.852,303.856"/>
	<path style="clip-path:url(#SVGID_2_);fill:#FFFFFF;" d="M93.751,291.659c1.313-0.965,3.152-0.7,4.1,0.591
		c0.949,1.292,0.652,3.125-0.664,4.091c-1.316,0.964-3.152,0.702-4.1-0.591C92.138,294.458,92.435,292.629,93.751,291.659"/>
	<path style="clip-path:url(#SVGID_2_);fill:#FFFFFF;" d="M100.8,301.792c1.056-0.774,2.52-0.575,3.269,0.443
		c0.752,1.022,0.503,2.479-0.554,3.255c-1.057,0.778-2.52,0.577-3.27-0.44C99.494,304.029,99.742,302.57,100.8,301.792"/>
	<path style="clip-path:url(#SVGID_2_);fill:#FFFFFF;" d="M99.472,296.472c1.09-0.799,2.603-0.596,3.376,0.46
		c0.774,1.053,0.518,2.556-0.573,3.356c-1.091,0.801-2.602,0.598-3.376-0.454C98.123,298.778,98.381,297.274,99.472,296.472"/>
	<path style="clip-path:url(#SVGID_2_);fill:#FFFFFF;" d="M99.942,290.836c1.089-0.799,2.602-0.595,3.375,0.461
		c0.776,1.053,0.519,2.553-0.571,3.354c-1.092,0.802-2.603,0.596-3.376-0.455C98.594,293.143,98.852,291.636,99.942,290.836"/>
	<path style="clip-path:url(#SVGID_2_);fill:#FFFFFF;" d="M104.245,288.652c0.915-0.673,2.193-0.486,2.855,0.413
		c0.663,0.902,0.456,2.173-0.46,2.85c-0.913,0.671-2.191,0.485-2.854-0.416C103.124,290.599,103.33,289.323,104.245,288.652"/>
	<path style="clip-path:url(#SVGID_2_);fill:#FFFFFF;" d="M104.102,294.083c0.92-0.677,2.205-0.496,2.867,0.404
		c0.661,0.901,0.45,2.181-0.472,2.855c-0.923,0.682-2.206,0.498-2.867-0.4C102.966,296.041,103.179,294.756,104.102,294.083"/>
	<path style="clip-path:url(#SVGID_2_);fill:#FFFFFF;" d="M104.948,298.942c0.922-0.674,2.207-0.494,2.869,0.406
		c0.661,0.901,0.45,2.183-0.472,2.856c-0.92,0.68-2.206,0.496-2.868-0.404C103.815,300.899,104.026,299.624,104.948,298.942"/>
	<path style="clip-path:url(#SVGID_2_);fill:#FFFFFF;" d="M107.917,296.489c0.693-0.514,1.661-0.376,2.164,0.313
		c0.502,0.68,0.346,1.646-0.349,2.157c-0.694,0.51-1.664,0.369-2.163-0.312C107.065,297.962,107.222,296.997,107.917,296.489"/>
	<path style="clip-path:url(#SVGID_2_);fill:#FFFFFF;" d="M107.271,291.651c0.693-0.513,1.662-0.372,2.164,0.313
		c0.503,0.683,0.346,1.647-0.347,2.158c-0.695,0.508-1.666,0.37-2.165-0.312C106.421,293.125,106.578,292.159,107.271,291.651"/>
	<path style="clip-path:url(#SVGID_2_);fill:#FFFFFF;" d="M109.804,293.798c0.567-0.416,1.358-0.3,1.769,0.257
		c0.408,0.558,0.281,1.347-0.285,1.761c-0.567,0.415-1.358,0.301-1.767-0.255C109.112,295.001,109.241,294.213,109.804,293.798"/>
	<path style="clip-path:url(#SVGID_2_);fill:#FFFFFF;" d="M111.026,291.063c0.53-0.39,1.27-0.282,1.654,0.238
		c0.381,0.521,0.264,1.258-0.266,1.646c-0.531,0.391-1.271,0.282-1.655-0.238C110.377,292.188,110.497,291.449,111.026,291.063"/>
	<path style="clip-path:url(#SVGID_2_);fill:#FFFFFF;" d="M109.576,288.793c0.526-0.389,1.262-0.279,1.643,0.235
		c0.38,0.519,0.264,1.25-0.265,1.64c-0.525,0.386-1.261,0.28-1.64-0.237C108.932,289.912,109.052,289.18,109.576,288.793"/>
	<path style="clip-path:url(#SVGID_2_);fill:#FFFFFF;" d="M107.532,285.836c0.694-0.512,1.664-0.369,2.165,0.315
		c0.501,0.681,0.346,1.646-0.348,2.159c-0.694,0.508-1.664,0.367-2.166-0.313C106.682,287.311,106.839,286.347,107.532,285.836"/>
	<path style="clip-path:url(#SVGID_2_);fill:#FFFFFF;" d="M111.219,285.495c0.528-0.387,1.264-0.281,1.645,0.238
		c0.378,0.519,0.259,1.251-0.266,1.638c-0.527,0.385-1.261,0.28-1.642-0.241C110.575,286.615,110.691,285.877,111.219,285.495"/>
	<path style="clip-path:url(#SVGID_2_);fill:#FFFFFF;" d="M109.549,283.197c0.56-0.416,1.342-0.302,1.746,0.248
		c0.404,0.552,0.28,1.331-0.28,1.742c-0.561,0.41-1.343,0.299-1.747-0.25C108.864,284.382,108.989,283.606,109.549,283.197"/>
	<path style="clip-path:url(#SVGID_2_);fill:#FFFFFF;" d="M112.105,288.134c0.397-0.292,0.953-0.212,1.239,0.178
		c0.287,0.391,0.198,0.942-0.199,1.236c-0.399,0.294-0.951,0.211-1.238-0.181C111.618,288.976,111.709,288.424,112.105,288.134"/>
	<path style="clip-path:url(#SVGID_2_);fill:#FFFFFF;" d="M112.143,283.306c0.369-0.269,0.882-0.193,1.148,0.168
		c0.267,0.361,0.182,0.873-0.184,1.146c-0.367,0.27-0.883,0.195-1.149-0.17C111.693,284.091,111.774,283.579,112.143,283.306"/>
	<path style="clip-path:url(#SVGID_2_);fill:#FFFFFF;" d="M111.038,280.601c0.486-0.359,1.165-0.259,1.515,0.222
		c0.352,0.478,0.243,1.155-0.244,1.508c-0.486,0.357-1.163,0.263-1.515-0.216C110.443,281.635,110.552,280.96,111.038,280.601"/>
	<path style="clip-path:url(#SVGID_2_);fill:#FFFFFF;" d="M111.021,278.359c0.341-0.247,0.819-0.178,1.067,0.157
		c0.247,0.336,0.169,0.814-0.173,1.061c-0.342,0.253-0.819,0.186-1.067-0.15C110.601,279.089,110.676,278.609,111.021,278.359"/>
</g>
</svg>
