<?xml version="1.0" encoding="utf-8"?>
<!-- Generator: Adobe Illustrator 25.2.1, SVG Export Plug-In . SVG Version: 6.00 Build 0)  -->
<svg version="1.1" id="Layer_1" xmlns="http://www.w3.org/2000/svg" xmlns:xlink="http://www.w3.org/1999/xlink" x="0px" y="0px"
	 viewBox="0 0 50 50" style="enable-background:new 0 0 50 50;" xml:space="preserve">
<style type="text/css">
	.st0{fill-rule:evenodd;clip-rule:evenodd;fill:#FFFFFF;stroke:#DDDDDD;stroke-width:0.25;stroke-miterlimit:10;}
	.st1{fill-rule:evenodd;clip-rule:evenodd;fill:#F99500;}
	.st2{fill-rule:evenodd;clip-rule:evenodd;}
	.st3{fill-rule:evenodd;clip-rule:evenodd;fill:#6D6E71;}
</style>
<circle class="st0" cx="25.1" cy="25" r="24.7"/>
<g>
	<path class="st1" d="M12.8,9.1c-0.6,0.5-1.2,1.1-1.8,1.8C7.2,14.9,5.1,20,4.9,25.9c0.1,7.3,2.7,13.2,7.4,17.6
		c1.8,1.4,3.3,2.5,4.7,3.1L17,47.3c-2.7-1.1-5.3-2.8-7.4-4.9c-4.3-4.5-6.5-9.8-6.5-15.9c0-6.2,2.2-11.3,6.5-15.7
		c0.9-0.9,2-1.8,2.9-2.5L12.8,9.1z M37.5,7.8c1.2,0.8,2.4,1.8,3.5,2.9c4.3,4.3,6.5,9.6,6.5,15.7c0,6.2-2.2,11.3-6.5,15.8
		c-1.6,1.6-3.4,3-5.4,4l-0.3-0.6c1.2-0.6,2.7-1.8,4.3-3.3c3.9-4.1,6-9.6,6-16.3c0-0.3,0-0.6,0-0.9c-0.4-5.5-2.3-10.3-5.8-14.4
		c-0.8-0.8-1.8-1.5-2.7-2.1L37.5,7.8z"/>
	<path class="st2" d="M28.2,1.4l7.3,4.2c-0.1,0.3-0.2,0.5-0.4,0.8c-4.8,10.4-6.7,20.5-5.4,30.2c-3.1-11.2-3.8-22-2.2-32.3
		C27.8,3.4,28,2.5,28.2,1.4z M24.9,38.3c-0.1-0.2-0.1-0.5-0.2-0.7c2.4,4.3,4.6,7.7,6.9,10.2c-1.5,0.4-3.2,0.7-4.8,0.8
		C26.4,45,25.7,41.6,24.9,38.3z"/>
	<path class="st3" d="M14.8,6.8c-0.1-0.4-0.2-0.8-0.3-1.2L25.7,1c-0.1,1-0.2,2.2-0.3,3.2c-1.1,12.5-0.1,23.4,3.1,32.8
		c1.2,3.6,2.8,7.1,4.6,10.2l0,0C24.6,37.2,18.5,23.7,14.8,6.8z M23.8,38.7c0.7,3.2,1.2,6.6,1.3,10c-2,0-3.8-0.2-5.6-0.7
		c1.5-5.6,2-11.8,1.1-18.6c1.2,2.7,2.2,5.5,2.9,8.5C23.6,38.1,23.7,38.4,23.8,38.7z"/>
</g>
</svg>
