<?xml version="1.0" encoding="utf-8"?>
<svg xmlns="http://www.w3.org/2000/svg" height="365.14837167" viewBox="0 0 375.0 500.0" width="273.861278753">
<path d="m54.66 453.25c-5.385 0-11.006-0.777-12.9-1.555l0.355-6.547c2.071 0.721 6.568 1.387 10.296 1.387 5.385 0 7.989-1.275 7.989-4.328 0-3.164-2.604-4.717-8.639-5.66-6.805-1.055-10.533-3.385-10.533-10.82 0-8.324 5.858-11.488 14.912-11.488 4.971 0 10.71 0.777 12.19 1.498l-0.355 6.326c-1.657-0.443-5.858-1.221-9.586-1.221-5.266 0-7.811 1.389-7.811 4.162 0 2.719 2.308 4.162 8.58 5.217 6.864 1.166 10.71 3.33 10.71 10.877-0.001 8.656-4.912 12.152-15.208 12.152z"/>
<path d="m109.34 437.71c0 10.043-3.55 15.482-16.687 15.482-13.077 0-16.272-5.439-16.272-15.482v-22.863h9.172v22.863c0 5.604 1.657 8.545 7.337 8.545s7.219-2.941 7.219-8.545v-22.863h9.231v22.863z"/>
<path d="m134.36 440.04h-7.633v12.541h-9.172v-37.734h17.811c8.817 0 13.433 4.162 13.433 12.43 0 8.158-5.208 12.763-14.439 12.763zm-1.124-18.924h-6.509v12.486h6.036c4.379 0 6.568-2.275 6.568-6.326 0-3.939-1.716-6.16-6.095-6.16z"/>
<path d="m182 452.58h-26.569v-37.734h25.859v6.492h-16.687v8.934h15.622v6.271h-15.622v9.545h17.397v6.492z"/>
<path d="m222.83 452.58h-10.709l-7.693-13.65h-5.977v13.65h-9.172v-37.734h17.752c8.816 0 13.965 3.662 13.965 11.598 0 6.715-3.729 9.434-7.396 10.932l9.23 15.204zm-17.396-31.465h-6.982v11.766h6.096c4.969-0.057 7.1-2.275 7.1-5.994-0.001-3.606-1.835-5.772-6.214-5.772z"/>
<path d="m255.07 451.75c-3.018 0.998-6.391 1.498-11.184 1.498-13.314 0-16.805-6.77-16.805-19.922 0-12.652 5.68-19.145 17.988-19.145 4.498 0 8.285 0.943 9.646 1.498l-0.355 6.27c-1.242-0.443-4.734-1.109-7.871-1.109-8.758 0-9.941 6.271-9.941 12.486 0 6.936 0.77 13.264 9.941 13.264 3.373 0 6.805-0.666 8.227-1.166l0.354 6.326z"/>
<path d="m294.31 437.71c0 10.043-3.551 15.482-16.688 15.482-13.078 0-16.273-5.439-16.273-15.482v-22.863h9.172v22.863c0 5.604 1.658 8.545 7.338 8.545 5.682 0 7.219-2.941 7.219-8.545v-22.863h9.232v22.863z"/>
<path d="m319.34 440.04h-7.635v12.541h-9.172v-37.734h17.813c8.816 0 13.432 4.162 13.432 12.43-0.001 8.158-5.208 12.763-14.438 12.763zm-1.125-18.924h-6.51v12.486h6.035c4.379 0 6.568-2.275 6.568-6.326 0.001-3.939-1.714-6.16-6.093-6.16z"/>
<rect y="388.71" width="90.573" x="42.214" height="6.332"/>
<rect fill="#d20515" height="6.332" width="90.57" y="388.71" x="142.16"/>
<rect fill="#e2a700" height="6.332" width="90.574" y="388.71" x="242.1"/>
<path fill="#fff" d="m203.58 73.16-7.63 2.95-3.181 16.66s5.841 7.22 5.9 7.4c0.061 0.17-9.02-3.99-9.02-3.99l-17.53 8.51-2.769 22.31-18.86-0.64-2.48 5.9v-6.88l-7.81-21.68-5.26-3.47 6.24 0.8 10.82-10.23 4.39-19.09-3.87-6.18 6.88 3.52 16.28-6.76 3.61-7.92-0.05 7.86 15.67 10.53 8.67 0.4zm-15.55 18.68s3.47-16.66 3.291-16.6c-0.261 0-14.34-9.77-14.34-9.77l-17.06 6.88-4.1 18.16 14.28 9.66 17.929-8.33zm-21.81 31.4 1.39-19.08-14.28-10.01-9.25 8.74 6.53 19.72 15.61 0.63z"/>
<path fill="#fff" d="m232.09 102.61c0.73 15.65-0.67 29.44-3.649 42.1-0.7 2.94-1.471 5.81-2.33 8.63-8.061 26.56-23.101 48.59-39.55 73.75-25.74 39.38-37.65 66.66-49.75 125.25-2.31-55.13 27.85-104.69 53.02-142.73 12.53-18.94 21.15-34.16 27.6-50.34 0.98-2.45 1.9-4.92 2.79-7.43 4.989-14.21 8.589-29.64 11.869-49.23z"/>
<path fill="#e2a700" d="m250.23 368.8h-51.05c-0.09-27.56-2.729-50.95-7.699-69.45 2.39-18.909 8.93-43 17.539-64.76 14.42 22.21 40.34 69.35 41.21 134.21z"/>
<path fill="#c6c6c6" d="m229.31 65.6c12.271 12.54 18.591 33.52 15.761 58.27-0.19 1.71-0.431 3.43-0.71 5.14-5.271 32.61-24.681 64.7-40.37 103.36-16.33 40.25-28.05 89.149-28.3 136.43h-51.37c2.88-51.8 14.79-91.18 31.7-119.81 3.65-6.18 7.95-12.84 12.52-19.76 5.93-8.99 12.31-18.42 18.34-27.83 8.311-12.98 15.95-25.93 20.75-37.64 0.84-2.05 1.59-4.06 2.25-6.03-7.14 3.15-15.03 4.89-23.33 4.89-32 0-57.94-25.94-57.94-57.93 0-32 25.94-57.94 57.94-57.94 16.929 0 32.169 7.27 42.759 18.85zm-0.87 79.11c2.979-12.66 4.38-26.45 3.649-42.1-3.28 19.59-6.88 35.02-11.87 49.23-0.89 2.51-1.81 4.98-2.79 7.43-6.449 16.18-15.069 31.4-27.6 50.34-25.17 38.04-55.33 87.6-53.02 142.73 12.1-58.59 24.01-85.87 49.75-125.25 16.45-25.16 31.49-47.19 39.55-73.75 0.861-2.82 1.631-5.69 2.331-8.63zm-32.49-68.6 7.63-2.95-8.67-0.4-15.67-10.53 0.05-7.86-3.61 7.92-16.28 6.76-6.88-3.52 3.87 6.18-4.39 19.09-10.82 10.23-6.24-0.8 5.26 3.47 7.81 21.68v6.88l2.48-5.9 18.86 0.64 2.77-22.31 17.53-8.51s9.08 4.16 9.02 3.99c-0.06-0.18-5.9-7.4-5.9-7.4l3.18-16.66z"/>
<path fill="#c6c6c6" d="m191.32 75.24c0.18-0.06-3.291 16.6-3.291 16.6l-17.93 8.33-14.28-9.66 4.1-18.16 17.06-6.88c0.001 0 14.081 9.77 14.341 9.77z"/>
<path fill="#e2a700" d="m164.22 163.3c7.11 12.74 17.94 30.37 22.66 38.1-6.03 9.41-12.41 18.84-18.34 27.83-11.3-25.25-28.79-60.15-35.52-91.86 7.2 11.76 18.15 20.96 31.2 25.93z"/>
<polygon fill="#c6c6c6" points="153.33 94.15 167.61 104.16 166.22 123.24 150.61 122.61 144.08 102.89"/>
</svg>