<?xml version="1.0" encoding="UTF-8"?><svg id="Livello_2" xmlns="http://www.w3.org/2000/svg" viewBox="0 0 405.95 586.63"><defs><style>.cls-1{fill:#006299;}.cls-2{fill:#e6e6e6;}.cls-3{fill:#fff;}.cls-4{fill:#00a06e;}.cls-5{fill:#cc2b3c;}</style></defs><g id="Livello_1-2"><g><path class="cls-3" d="M399.79,27.72s0-.05,0-.07c-.02-.25-.04-.49-.07-.74-.04-.37-.08-.72-.14-1.08v-.03c-.03-.17-.06-.33-.09-.49-.01-.04-.01-.08-.03-.11-.03-.23-.08-.45-.13-.68-.06-.3-.13-.59-.21-.89v-.02h-.01c-.05-.22-.11-.42-.17-.63-.04-.16-.09-.32-.14-.47-.03-.08-.05-.16-.08-.23-.09-.3-.19-.57-.29-.86h0c-.08-.22-.16-.43-.26-.64-.06-.18-.14-.37-.22-.53-.12-.3-.25-.58-.39-.86-.03-.07-.06-.13-.09-.19-.07-.14-.14-.27-.21-.39-.08-.17-.16-.33-.25-.48h0c-.18-.34-.37-.66-.57-.98h0c-.19-.33-.4-.64-.61-.95h0c-.21-.32-.43-.62-.66-.92h0c-.23-.31-.46-.59-.7-.88h0c-.24-.3-.49-.57-.75-.85h0c-.25-.29-.51-.55-.78-.81t-.01-.01c-.26-.27-.53-.52-.81-.77h-.01c-.28-.26-.56-.5-.85-.74,0,0-.01,0-.01,0-.29-.24-.58-.46-.88-.69-.01,.01-.01,0-.01,0-.3-.23-.61-.44-.92-.65h-.01c-.31-.22-.63-.41-.95-.6h0c-.32-.21-.65-.39-.98-.56h-.01c-.33-.19-.67-.36-1.01-.52,0,0-.01,.01-.01,0-.34-.17-.69-.32-1.04-.46h0c-.7-.3-1.43-.56-2.17-.79-.74-.23-1.49-.42-2.26-.57-1.54-.31-3.14-.47-4.77-.47H29.74c-1.63,0-3.23,.17-4.77,.47-.77,.16-1.52,.35-2.26,.57-.23,.07-.46,.16-.69,.24-.1,.03-.19,.07-.28,.1-.35,.12-.69,.25-1.04,.39-.07,.03-.13,.06-.2,.09-.34,.14-.68,.28-1.01,.44h0s0,0-.01,.01c-.82,.39-1.62,.83-2.38,1.31-.2,.12-.39,.25-.58,.37-1.26,.84-2.43,1.8-3.5,2.85-1.18,1.15-2.23,2.44-3.13,3.82-.55,.81-1.04,1.67-1.47,2.56-.5,1.02-.92,2.08-1.27,3.19-.23,.73-.42,1.47-.58,2.22-.31,1.52-.48,3.1-.48,4.71V497.36c.09,.1,.18,.19,.28,.29h0s.03,.05,.05,.06c.08,.08,.15,.15,.23,.22,.05,.05,.1,.11,.15,.16l.06,.06,.56,.55h0l.39,.38c.28,.28,.57,.56,.85,.84h0c.27,.26,.54,.53,.81,.79,.17,.16,.32,.32,.49,.47,.22,.22,.43,.42,.66,.64,.45,.43,.91,.87,1.37,1.3,.23,.23,.46,.44,.69,.66h0l.02,.02c.71,.67,1.42,1.33,2.14,1.99,.13,.12,.27,.25,.39,.37,.68,.62,1.37,1.24,2.05,1.87,.54,.48,1.07,.97,1.61,1.44,.56,.5,1.13,1.01,1.69,1.5,.63,.54,1.25,1.1,1.88,1.64,.55,.47,1.1,.94,1.65,1.4,.61,.52,1.23,1.05,1.84,1.56,.63,.52,1.25,1.04,1.87,1.55,.26,.22,.52,.43,.79,.65,.44,.36,.89,.72,1.34,1.08,.26,.22,.52,.43,.79,.64,.15,.12,.3,.24,.45,.36,.13,.11,.27,.22,.41,.33,.79,.63,1.58,1.25,2.38,1.87,0,0,.01,0,.01,0,.11,.09,.21,.18,.32,.26,.85,.66,1.7,1.31,2.57,1.96,.17,.13,.34,.26,.51,.39,.1,.08,.2,.15,.3,.23,.33,.25,.66,.48,.99,.73,.36,.28,.72,.54,1.08,.81,.5,.37,1,.73,1.5,1.1,.26,.19,.51,.38,.77,.56h0s.02,.02,.03,.03c.02,0,.03,.02,.04,.03,.23,.16,.46,.33,.69,.48,.83,.6,1.66,1.19,2.49,1.78,.07,.04,.13,.09,.2,.13h0s.02,.02,.03,.03h.01c.4,.29,.82,.57,1.23,.85,.54,.39,1.08,.76,1.63,1.13,.04,.03,.08,.06,.11,.09,.21,.15,.43,.28,.64,.42,.37,.25,.74,.5,1.11,.75,.35,.24,.7,.47,1.06,.71,.51,.34,1.03,.67,1.54,1.01,.34,.23,.69,.45,1.04,.68,.02,.01,.04,.03,.07,.05,1.12,.73,2.24,1.44,3.37,2.15,.07,.04,.14,.09,.2,.13,.05,.04,.1,.06,.16,.1,.75,.46,1.51,.94,2.27,1.4,.08,.06,.17,.11,.25,.16,.25,.15,.51,.31,.76,.45,.39,.24,.78,.47,1.17,.71,.25,.15,.49,.3,.74,.44,.23,.14,.46,.29,.69,.42,.46,.28,.92,.54,1.39,.81,.45,.27,.91,.53,1.37,.8,1,.58,2.02,1.16,3.03,1.74,.12,.06,.24,.13,.36,.2,.16,.09,.33,.18,.49,.27,.74,.4,1.46,.81,2.2,1.21,.26,.14,.52,.28,.77,.41,.48,.26,.96,.51,1.44,.77,.3,.16,.59,.33,.89,.48,.66,.35,1.33,.69,2,1.04,.28,.15,.57,.3,.85,.44,.09,.05,.18,.1,.27,.14h0l.02,.02c.86,.43,1.72,.87,2.58,1.29,.13,.07,.26,.13,.39,.2,.79,.39,1.59,.78,2.39,1.16,.54,.27,1.09,.54,1.64,.8,.72,.36,1.45,.69,2.19,1.04,.78,.37,1.57,.72,2.36,1.08,.35,.17,.71,.34,1.06,.49,1.02,.45,2.04,.91,3.07,1.35,.45,.2,.89,.39,1.34,.58,.23,.1,.46,.21,.68,.3,.6,.26,1.19,.5,1.78,.75,.31,.13,.61,.26,.92,.37,.47,.2,.95,.4,1.42,.58,.43,.18,.86,.36,1.28,.53,.47,.18,.94,.37,1.41,.56l.8,.31c.18,.07,.36,.14,.54,.21,.51,.2,1.01,.39,1.52,.59,.53,.21,1.08,.4,1.62,.61,.19,.07,.39,.14,.59,.22,.54,.21,1.1,.4,1.65,.6,.93,.34,1.85,.67,2.79,1,.68,.25,1.38,.48,2.07,.73,.62,.21,1.24,.42,1.86,.63,.21,.08,.43,.15,.64,.22,.23,.08,.46,.15,.7,.23,.13,.05,.26,.09,.39,.13,.62,.21,1.24,.4,1.87,.61,.29,.09,.58,.19,.87,.28,.19,.06,.39,.12,.58,.18,.15,.05,.31,.1,.46,.15,.12,.04,.23,.07,.35,.11,.1,.03,.2,.07,.31,.09,.39,.13,.79,.25,1.19,.36,.43,.14,.87,.28,1.31,.4,2.08,.61,4.16,1.21,6.25,1.79,.64,.18,1.28,.35,1.92,.51,.51,.14,1.03,.28,1.54,.4,.52,.14,1.03,.27,1.55,.39,.56,.14,1.12,.29,1.68,.41,.47,.12,.94,.24,1.42,.35,1.36,.34,2.73,.65,4.1,.96,.48,.1,.97,.21,1.45,.32,.59,.13,1.17,.25,1.75,.37,.29,.06,.57,.11,.85,.17,.67,.15,1.35,.28,2.02,.4,.81,.17,1.61,.34,2.42,.48,.53,.1,1.07,.21,1.61,.31,2.41,.44,4.83,.85,7.26,1.22,.13,.03,.27,.05,.4,.07,.12,.02,.23,.03,.35,.05,.88,.14,1.75,.27,2.64,.39l.18,.03c.41,.06,.81,.11,1.21,.16,.2,.03,.39,.06,.59,.09,.6,.08,1.19,.16,1.79,.24,.6,.08,1.2,.15,1.8,.23,.15,0,.31,.03,.45,.05,.12,.01,.23,.02,.34,.04l1.02,.12c.6,.07,1.2,.14,1.8,.2,.47,.06,.94,.11,1.41,.16,1.42,.15,2.83,.28,4.25,.39,.28,.02,.55,.05,.83,.07,.14,.01,.29,.03,.44,.04,.67,.06,1.34,.11,2.01,.16,.4,.03,.79,.06,1.18,.09,.35,.02,.7,.05,1.05,.07,.13,0,.26,.02,.4,.03,.47,.03,.95,.06,1.42,.09,.48,.03,.96,.05,1.45,.08,.44,.02,.88,.05,1.32,.07,.83,.04,1.65,.08,2.47,.11,.21,0,.42,.02,.63,.03,.21,0,.42,.02,.63,.03h.31c.16,.01,.32,.01,.48,.02,.28,0,.57,.02,.86,.02,.67,.03,1.34,.04,2.01,.05,.6,.02,1.2,.03,1.79,.04,1.45,.03,2.9,.04,4.34,.04h.09c1.45,0,2.89,0,4.33-.04,.61,0,1.21-.02,1.8-.04,.67,0,1.35-.02,2.02-.05,.29,0,.57-.01,.86-.02,.16,0,.32,0,.48-.02h.3l.61-.03c.42-.02,.84-.03,1.26-.05,.62-.03,1.24-.06,1.86-.09,.44-.02,.89-.05,1.33-.07,.48-.03,.96-.05,1.44-.08,.47-.03,.95-.06,1.42-.09,.13,0,.27-.02,.41-.03,.34-.02,.69-.05,1.04-.07,.4-.03,.79-.06,1.18-.09,.67-.05,1.35-.1,2.02-.16,.14,0,.29-.03,.43-.04,.28-.02,.56-.05,.83-.07,1.42-.12,2.84-.25,4.25-.39,.47-.05,.94-.1,1.41-.16,.61-.06,1.21-.13,1.81-.2,.34-.04,.67-.08,1.01-.12,.11-.02,.22-.03,.33-.04,.16-.02,.31-.04,.46-.05,.6-.08,1.2-.15,1.8-.23s1.19-.16,1.79-.24c.2-.03,.4-.06,.59-.09,.4-.05,.81-.1,1.21-.16,.06,0,.13-.02,.19-.03,.87-.13,1.75-.26,2.63-.39,.12-.02,.23-.03,.35-.05,.14-.02,.27-.04,.41-.07,2.43-.37,4.85-.78,7.26-1.22,.53-.1,1.07-.21,1.61-.31,.81-.15,1.61-.32,2.41-.48,.68-.13,1.35-.26,2.02-.4,.29-.06,.57-.11,.85-.17,.59-.13,1.17-.25,1.76-.37,.48-.11,.96-.22,1.45-.32,.68-.15,1.37-.31,2.05-.46,.69-.16,1.37-.33,2.05-.49,.47-.11,.94-.23,1.42-.35,.56-.13,1.12-.28,1.67-.41,1.03-.26,2.07-.52,3.1-.8,.64-.17,1.27-.34,1.91-.51,2.09-.57,4.17-1.17,6.25-1.79,.44-.13,.88-.27,1.32-.4,.4-.12,.8-.24,1.19-.36,.1-.02,.2-.06,.31-.09,.11-.04,.23-.07,.34-.11,.16-.05,.31-.1,.46-.15,.2-.06,.39-.12,.58-.18,.3-.09,.59-.19,.88-.28,.62-.21,1.24-.4,1.86-.61,.13-.04,.26-.08,.39-.13,.24-.08,.47-.15,.71-.23,.21-.07,.42-.14,.63-.22,.62-.21,1.24-.42,1.86-.63,.69-.25,1.39-.48,2.08-.73,.93-.33,1.86-.66,2.78-1,.56-.2,1.11-.4,1.65-.6,.2-.08,.4-.15,.6-.22,.54-.21,1.08-.4,1.62-.61,.5-.2,1.01-.39,1.51-.59,.18-.07,.37-.14,.54-.21,.27-.1,.53-.21,.8-.31,.47-.19,.94-.39,1.41-.56,.43-.18,.85-.36,1.28-.53,.48-.19,.95-.39,1.42-.58,.31-.12,.62-.25,.92-.37,.6-.25,1.19-.49,1.78-.75,.23-.09,.45-.2,.68-.3,.45-.19,.9-.39,1.35-.58,1.02-.44,2.05-.9,3.06-1.35,.36-.16,.71-.33,1.07-.49,.78-.36,1.58-.71,2.36-1.08,.73-.35,1.46-.68,2.19-1.04,.55-.26,1.09-.53,1.63-.8,.8-.39,1.6-.77,2.39-1.16,.13-.07,.26-.13,.39-.2,.87-.42,1.72-.86,2.58-1.29,.01,0,.01,0,.02,0h0c.09-.05,.19-.1,.28-.15,.28-.15,.56-.3,.84-.44,.67-.35,1.34-.69,2.01-1.04,.3-.16,.59-.33,.89-.48,.48-.26,.96-.51,1.43-.77,.26-.14,.52-.28,.78-.41,.73-.4,1.45-.81,2.18-1.2,.17-.1,.34-.19,.5-.28,.13-.07,.24-.14,.36-.2,1.02-.57,2.03-1.15,3.04-1.74,.46-.27,.91-.53,1.37-.8,.23-.14,.45-.27,.69-.4,.23-.13,.46-.27,.69-.39h.01c.23-.14,.45-.29,.68-.42,.25-.15,.49-.3,.74-.44,.39-.24,.78-.47,1.17-.71,.25-.15,.51-.31,.76-.45,.09-.05,.17-.1,.26-.16,.75-.46,1.51-.94,2.27-1.4,.05-.04,.1-.06,.15-.1,.07-.04,.14-.09,.21-.13,1.12-.71,2.25-1.42,3.37-2.15,.02-.02,.05-.04,.07-.05,.34-.23,.69-.45,1.03-.67,.51-.35,1.03-.68,1.55-1.02,.35-.24,.7-.47,1.06-.71,.36-.25,.73-.5,1.1-.75,.21-.15,.43-.28,.64-.42,.04-.03,.08-.06,.12-.09,.54-.37,1.08-.74,1.62-1.12,.41-.29,.83-.57,1.24-.86,.01-.01,.03-.02,.04-.03,.07-.04,.13-.09,.19-.13,.84-.58,1.67-1.17,2.5-1.78,.23-.16,.45-.33,.68-.48,.02-.03,.05-.04,.08-.06,.25-.19,.51-.37,.77-.56,.5-.36,1-.73,1.5-1.1,.36-.27,.71-.53,1.07-.8,.33-.26,.67-.49,1-.74,.09-.08,.19-.15,.29-.23,.17-.13,.35-.26,.52-.39,.86-.65,1.71-1.3,2.56-1.96,.11-.08,.22-.17,.33-.26h0c.8-.62,1.59-1.24,2.38-1.88,.14-.11,.27-.22,.41-.33,.15-.12,.3-.24,.45-.36,.26-.21,.52-.42,.78-.64,.45-.36,.9-.71,1.34-1.08,.27-.22,.52-.43,.79-.65,.63-.51,1.25-1.03,1.87-1.55,.62-.51,1.23-1.04,1.85-1.56,.54-.46,1.09-.93,1.64-1.4,.63-.54,1.26-1.1,1.88-1.64,.57-.49,1.13-1,1.69-1.5,.54-.47,1.08-.96,1.61-1.44,.68-.62,1.37-1.24,2.05-1.88,.13-.12,.26-.24,.39-.36,.72-.66,1.44-1.32,2.15-1.99h.01v-.02c.24-.22,.46-.43,.7-.66,.45-.43,.92-.87,1.37-1.3,.22-.22,.44-.42,.66-.64l.48-.47c.27-.26,.54-.53,.81-.79,.29-.28,.57-.56,.86-.84,.13-.13,.26-.26,.39-.37h0c.23-.24,.46-.47,.7-.7,.05-.04,.09-.09,.14-.14,.02-.02,.04-.05,.06-.07,.04-.03,.07-.06,.1-.09,.02-.02,.04-.04,.05-.06,.09-.1,.18-.19,.27-.29V29.44c0-.4-.01-.8-.03-1.2-.01-.17-.02-.35-.04-.51Z"/><g><path class="cls-1" d="M357.4,363.98l-5.23-14.21-8.45-22.95-4.17-11.32s-7.37-19.99-7.38-19.99c-22.68,60.67-82.22,57.6-102.82,59.89-18.1,2.01-20.25,16.98-20.25,16.98-2.21,7.8,.55,20.84,15.22,26.03,.57,.2,1.16,.39,1.77,.57,6.13,1.84,13.84,2.61,22.36,2.26h.02c15.43-.65,25.51-4.64,41.66-13.08-.03,.06-.02,.03,0,0,14.36-7.85,26.9-18.61,36.83-31.48,.07,.25-.08,.87-.46,1.93-1.03,2.9-2.13,5.66-3.29,8.29-14.49,33.07-37.38,45.26-37.38,45.26-5.11,2.72-9.93,4.91-15.02,6.78-2.21,.82-4.44,1.56-6.68,2.24h0c-5.2,1.57-10.47,2.79-15.79,3.71,0,0,0,0-.01,0-13.58,2.34-23.43,3.01-37.4,2.1-13.18-.86-22.95-7.55-28.74,2.27-5,8.49,6.95,16.92,6.95,16.92,0,0,4.97,3.91,15.2,6.98,11.02,3.31,28.16,5.67,51.79,1.12,.54-.1,1.07-.21,1.62-.32l4.43,13.65,3.56,10.98,5.2,16.02c1.39-.35,3.33-.91,4.94-1.41,1.59-.48,2.85-.87,2.85-.87,39.51-11.62,74.91-32.88,103.47-61.02l-24.8-67.36Z"/><path class="cls-1" d="M309.4,233.64l-10.9-29.59-8.28-22.48-.08-.21-17.8-48.35-.04-.1h-.33c-1.03-.29-2.05-.57-3.08-.84-.36-.09-.71-.19-1.07-.28-1.38-.36-2.76-.71-4.15-1.05-.7-.17-1.39-.34-2.09-.5-.62-.15-1.24-.29-1.86-.43-.11-.02-.22-.05-.34-.07-.66-.15-1.33-.3-2-.44-.68-.15-1.37-.29-2.05-.43-.38-.08-.75-.16-1.14-.23-.42-.09-.85-.17-1.27-.25-.62-.12-1.25-.25-1.88-.37-.66-.13-1.33-.25-1.99-.37-.73-.13-1.47-.26-2.21-.39-.45-.08-.89-.16-1.34-.23-.28-.05-.57-.1-.85-.14-.71-.12-1.43-.23-2.15-.34-.72-.11-1.43-.22-2.15-.32-.72-.11-1.44-.21-2.16-.31-.59-.08-1.19-.16-1.78-.24-.58-.08-1.16-.15-1.73-.22-.07-.01-.15-.02-.22-.03-.52-.07-1.04-.13-1.56-.18-.85-.1-1.71-.2-2.57-.29-.46-.05-.92-.1-1.38-.14-.54-.06-1.09-.11-1.63-.16-.57-.05-1.13-.11-1.7-.16-.45-.04-.9-.08-1.35-.11-.86-.07-1.72-.14-2.58-.2-.5-.04-1.01-.07-1.51-.11-.28-.02-.57-.04-.85-.05-.42-.03-.85-.05-1.28-.08-.61-.04-1.22-.07-1.83-.1-.47-.03-.94-.05-1.42-.07l-1.1-.05c-.14,0-.27-.01-.41-.02-.59-.02-1.19-.05-1.78-.07-.88-.03-1.76-.05-2.63-.07-1.22-.03-2.44-.05-3.67-.06-.75,0-1.49,0-2.24,0-.27,0-.55,0-.83,0-.02,0-.05,0-.07,0-.03,0-.07,0-.1,0-.26,0-.52,0-.79,0-23.11,0-45.5,3.05-66.81,8.77-.02,0-.05,.01-.07,.02l-.21,.58h0l-18.27,48.47-4.77,12.96-4.27,11.6-7.92,22.18s29.01-17.51,66.89-.42c64.69,29.2,45.19,81.81,83.62,76,9.46-2.38,17.1-10.28,5.64-37.8h0s-2.46-6.17-3.89-9.17c-1.43-3.02-3.01-6-4.72-8.95-4.28-7.33-9.23-14.03-14.74-20.06-.04-.04-.08-.09-.11-.13l-.02-.02c-4.86-5.43-10.15-10.29-15.93-14.48,0,0,0,0-.01,0h-.02c-3.44-2.61-7.01-5-10.69-7.17h0c-12.92-7.67-27.17-12.76-41.91-15.08-2.7-.43-5.43-.76-8.16-.99,.32-.11,.64-.21,.96-.31h.02c3.41-.44,6.82-.75,10.23-.92,24.76-1.27,49.44,4.37,71.15,16.17h0c3.55,1.93,7.03,4.03,10.41,6.29h0s0,.01,0,.01c16.42,10.96,30.66,25.73,41.28,43.93,4.07,6.98,7.45,14.17,10.14,21.5h0c2.87,8.07,8.75,11.39,12.93,10.49,0,0,8.29-2.28,7.07-16.57-1.21-14.18-9.62-36.78-9.62-36.78Z"/><path class="cls-1" d="M170.27,325.58l-35.7,168.94c-1.33-.35-3.05-.85-4.5-1.3-1.59-.48-2.86-.87-2.86-.87-39.51-11.62-74.91-32.87-103.46-61.02l22.21-60.33,.9-2.43,6.93-18.8,17.74-48.19,.03-.07,.25-.64h0l.07-.21h0l5.62-13.99s9.08-25.65,26.51-35.06c0,0,7.47-4.27,14.03-.93,5.48,2.79-1.42,12.3-1.42,12.3h0s0,.02,0,.02c-3.75,5.39-7.36,10.74-10.53,16.23-3.37,5.83-6.25,11.83-8.29,18.22-.6,1.87-1.16,3.76-1.67,5.65-4.73,17.36-5.89,35.43-3.54,53.08l.02,.13c1.15,8.57,3.12,17.03,5.9,25.26h0c1.15,3.41,2.44,6.78,3.88,10.1,0,0,0,.02,.01,.03,.86,1.65,1.77,3.32,2.74,4.99,.03,.07,.08,.14,.12,.22l.02,.03s.01,.03,.02,.04c-.69-2.98-1.27-6-1.73-9.02-4.34-27.38,1.79-51.52,16.2-73.73,2-3.08,4.17-6.12,6.51-9.11t0,0s.02-.01,.03-.04c0,0,13.69-15.24,29.46-10.46h0c.8,.24,1.61,.54,2.41,.89,1.29,.56,2.46,1.21,3.5,1.94h0c12.55,8.71,8.55,28.12,8.55,28.12Z"/><g><path class="cls-1" d="M184.28,74.42c-.7,.03-1.18,.07-1.65,.07-9.2,0-18.41-.03-27.61,.03-1.38,0-1.69-.43-1.69-1.73,.04-15.45,.04-30.9,0-46.35,0-1.25,.32-1.68,1.63-1.65,3.63,.08,7.27,.08,10.9,0,1.24-.03,1.54,.41,1.53,1.58-.04,11.68,0,23.37-.05,35.05,0,1.42,.3,1.91,1.83,1.88,4.55-.11,9.11,0,13.66-.06,1.14-.01,1.51,.3,1.49,1.46-.08,3.18-.03,6.36-.03,9.71Z"/><path class="cls-1" d="M180.25,24.8c1.85,0,3.57,0,5.3,0,2.51,0,5.02,.05,7.53-.02,1.12-.03,1.56,.29,1.77,1.46,2.01,10.93,4.69,21.7,7.9,32.33,.14,.45,.32,.88,.62,1.69,.43-1.35,.8-2.32,1.04-3.32,2.49-10.32,4.95-20.65,7.45-30.97,.11-.44,.59-1.12,.91-1.13,4.48-.07,8.96-.05,13.68-.05-.25,1.12-.43,2.09-.69,3.04-4.08,14.99-8.79,29.78-14.17,44.35-.59,1.61-1.37,2.2-3.11,2.13-3.71-.15-7.43-.08-11.15-.03-1,.01-1.55-.25-1.93-1.24-5.81-15.4-10.78-31.06-14.96-46.96-.09-.36-.12-.73-.2-1.29Z"/><path class="cls-1" d="M245.16,74.33c-4.51,0-8.76,.02-13-.04-.32,0-.82-.53-.91-.89-.15-.64-.05-1.34-.05-2.01,0-14.97,.02-29.94-.03-44.91,0-1.34,.38-1.7,1.71-1.69,10.04,.05,20.09,.05,30.14,0,1.25,0,1.69,.3,1.65,1.61-.1,2.98-.03,5.96-.03,9.16h-19.44c0,3.19-.03,6.15,.06,9.12,0,.25,.83,.67,1.27,.67,4.35,.05,8.69,.03,13.04,.03,2.51,0,2.13-.11,2.15,2.2,.02,2.21-.07,4.43,.03,6.64,.06,1.36-.31,1.84-1.75,1.81-4.25-.09-8.5-.03-12.75-.03q-2.07,0-2.07,2c0,4.86,0,9.72,0,14.58,0,.52,0,1.03,0,1.76Z"/></g></g><g><path class="cls-1" d="M77.65,517.51c1.67,2.19,4.3,5.05,7.16,6.49,2,1.01,3.54,.71,4.24-.68,.65-1.29-.35-2.51-1.5-3.58l-1.19-1.1c-3.31-3.02-6.12-6.69-3.45-11.97,2.53-5,7.65-5.54,13.57-2.54,2.5,1.26,4.9,2.98,6.86,5.13l-2.85,5.64c-1.92-2.23-3.99-3.99-6.84-5.44-1.61-.81-2.9-.57-3.49,.61-.69,1.36,.76,2.85,2.04,4.04l1.16,1.08c3.42,3.17,5.41,6.68,2.95,11.54-2.89,5.71-8.79,5.41-14.29,2.63-2.64-1.34-5.67-3.77-7.3-6.03l2.94-5.82Z"/><path class="cls-1" d="M109.12,529.45c-1.11,3-.67,5.04,1.51,5.84,2.18,.8,3.84-.46,4.94-3.46l6.05-16.4,7.28,2.69-6.12,16.59c-2.49,6.76-7.72,8.67-14.25,6.26-6.53-2.41-9.26-7.25-6.77-14.01l6.12-16.59,7.28,2.69-6.05,16.4Z"/><path class="cls-1" d="M133.04,519.54c3.23,.26,7.1,1.09,9.36,1.65,7.77,1.92,11.41,5.53,9.74,12.29-1.61,6.52-6.48,7.88-13.42,6.99-2.23-.3-2.81-.12-3.58,2.99l-1.19,4.81-7.53-1.86,6.63-26.87Zm4.23,15.26c.6-.1,1.33-.04,2.37,.09,2.64,.32,4.06-.6,4.73-3.32,.54-2.17-.4-3.89-3.51-4.66-.7-.17-1.02-.21-1.58-.27l-2.01,8.16Z"/><path class="cls-1" d="M156.96,524.92l19.32,2.82-.87,5.98-11.64-1.7-.67,4.55,10.01,1.46-.86,5.9-10.01-1.46-.76,5.22,11.64,1.7-.87,5.98-19.32-2.82,4.04-27.63Z"/><path class="cls-1" d="M179.48,528.3c3.18-.36,7.26-.28,9.54-.17,7.99,.39,12.25,3.25,11.91,10.2-.2,3.99-2.47,6.21-5.33,7.35,2.26,2.83,4.56,7.43,6.12,11.43l-8.59-.42c-1.2-3.26-3.36-7.45-4.7-9.44-.08,0-.69,.13-.85,.16-.65,.13-1.27,.54-1.41,3.41l-.27,5.51-7.79-.38,1.36-27.64Zm7.14,13.61c.57-.21,1.3-.3,2.34-.37,2.25-.13,3.95-1.29,4.06-3.6,.11-2.24-1.22-3.74-4.41-3.9-.72-.04-1.04-.01-1.6,.04l-.39,7.83Z"/><path class="cls-1" d="M225.1,555.83c-2.37,.7-4,1.05-6.96,1.17-8.79,.37-13.18-5.05-13.56-14-.38-8.95,3.55-14.64,12.34-15.01,2.96-.12,4.61,.09,7.03,.59l.26,6.15c-1.95-.64-4.32-.82-6.72-.72-4.32,.18-5.12,4.02-4.92,8.65,.2,4.64,1.32,8.47,5.63,8.29,2.4-.1,4.74-.48,6.63-1.28l.26,6.15Z"/><path class="cls-1" d="M242.25,554.68c-8.32,1.16-13.65-4.12-14.83-12.59-1.18-8.48,2.52-15.01,10.83-16.16,8.32-1.16,13.66,4.12,14.83,12.59,1.18,8.48-2.52,15.01-10.83,16.16Zm-3.17-22.78c-3.72,.52-4.36,4.64-3.74,9.08s2.36,8.23,6.08,7.71c3.72-.52,4.36-4.64,3.74-9.08-.62-4.44-2.36-8.23-6.08-7.71Z"/><path class="cls-1" d="M254.17,524.2c2.98-1.28,6.79-2.36,9.04-2.92,7.76-1.94,12.67-.45,14.36,6.3,1.63,6.52-2.04,9.99-8.59,12.46-2.11,.78-2.54,1.21-1.76,4.32l1.2,4.81-7.53,1.88-6.71-26.85Zm10.88,11.5c.48-.37,1.15-.66,2.13-1.03,2.48-.95,3.31-2.43,2.63-5.15-.54-2.17-2.17-3.25-5.28-2.47-.7,.17-1,.29-1.52,.5l2.04,8.15Z"/><path class="cls-1" d="M277.86,518.05c2.83-1.59,6.5-3.06,8.68-3.86,7.51-2.75,12.55-1.79,14.94,4.75,2.31,6.31-.97,10.15-7.22,13.3-2.02,1-2.4,1.48-1.3,4.48l1.71,4.66-7.29,2.67-9.52-25.99Zm12.03,10.29c.44-.42,1.08-.78,2.01-1.25,2.37-1.21,3.03-2.77,2.07-5.4-.77-2.1-2.5-3-5.51-1.9-.68,.25-.96,.4-1.46,.66l2.89,7.89Z"/><path class="cls-1" d="M312.06,503.48c3.82,3.02,16,15.21,20.62,20.95l-7.21,3.56c-1.07-1.44-2.44-2.94-3.97-4.6l-6.74,3.33c.38,2.22,.75,4.22,1.24,5.94l-7.21,3.56c-1.76-7.16-4.04-24.24-4.13-29.11l7.39-3.65Zm1.32,17.29l4.23-2.09c-1.21-1.54-4.56-5.16-5.8-6.41,.24,1.75,1.08,6.61,1.57,8.5Z"/></g><g><path class="cls-2" d="M261.82,99.45c-17.05-3.83-35.14-5.88-53.9-5.91h-9.9c-17.61,.03-34.65,1.82-50.78,5.22l-5.1,14.01c1.39-.28,2.79-.55,4.19-.81,16.4-3,33.74-4.6,51.68-4.6l4.95-.02,4.95,.02c17.94,0,35.29,1.61,51.68,4.6,1.8,.33,5.57,1.1,7.35,1.46l-1.33-3.61-3.81-10.37Z"/><path class="cls-5" d="M269.04,101.18c-.52-.13-1.04-.26-1.56-.39h0c-1.87-.46-3.76-.9-5.66-1.33l3.81,10.37h0l1.32,3.59c1.98,.42,3.96,.85,5.91,1.31,26,6.13,46.3,14.58,62.44,23.94,16.79,9.73,29.09,20.45,38.64,30.56-16.04-24.65-50.25-53.93-104.91-68.06Z"/><path class="cls-4" d="M136.91,101.19h0c-54.66,14.12-88.86,43.4-104.9,68.05,9.55-10.11,21.85-20.83,38.63-30.56,16.14-9.36,36.45-17.81,62.45-23.94,1.98-.47,3.98-.91,6-1.34h0c1.02-.2,2.04-.41,3.06-.61l5.1-14.01c-3.49,.73-6.93,1.54-10.33,2.42Z"/></g><path class="cls-4" d="M376.21,0H29.74C13.34,0,0,13.17,0,29.36V499.74l1.65,1.73c.13,.14,.26,.27,.39,.39l.32,.33c.25,.25,.5,.5,.75,.74l.13,.14,.27,.26c.14,.14,.29,.29,.43,.43,.14,.13,.28,.27,.41,.4l.03,.03,.02,.02c.12,.12,.24,.24,.37,.36,.14,.15,.29,.3,.44,.43v.02h.03l.17,.18c.1,.1,.19,.2,.3,.3l.33,.32,.32,.31c.35,.35,.71,.69,1.07,1.03l.33,.32h.02v.02l.32,.31c.11,.1,.22,.21,.34,.32l.04,.04c.72,.68,1.46,1.37,2.19,2.04,.08,.08,.16,.15,.25,.23,.03,.03,.07,.07,.1,.1l.04,.03,.03,.04,1,.91c.35,.32,.7,.64,1.05,.96l.03,.02,.02,.02,.52,.47c.37,.33,.74,.66,1.11,.99,.55,.49,1.1,.99,1.66,1.47l.05,.04c.65,.57,1.28,1.13,1.92,1.68,.33,.29,.67,.58,1.01,.87,.22,.19,.44,.37,.65,.55l.02,.02h.02l1.03,.89,.81,.68,.02,.02h.02c.64,.54,1.27,1.07,1.9,1.58,.09,.08,.18,.16,.28,.23,.17,.15,.35,.3,.52,.44,.34,.28,.68,.55,1.02,.82l.33,.27c.28,.23,.56,.45,.84,.68l.19,.15,.23,.19h.02l.02,.03,.15,.12c.09,.07,.18,.14,.26,.21,.67,.53,1.4,1.11,2.28,1.79l.1,.08c.11,.09,.22,.17,.32,.25l.04,.04c1.06,.82,1.88,1.44,2.65,2.03l.03,.02,.04,.02c.13,.1,.27,.21,.41,.32l.08,.06,.06,.04,.02,.02,.24,.18,.06,.04c.29,.22,.58,.43,.86,.65h.02v.02l.36,.26,.75,.56c.38,.28,.76,.55,1.15,.83l.39,.3c.11,.08,.22,.16,.34,.25,.14,.1,.28,.21,.42,.31l.22,.16,.02,.02c.19,.14,.39,.28,.58,.4,.81,.59,1.67,1.2,2.53,1.81l.07,.05h.01s.1,.07,.16,.12c.03,.02,.06,.04,.09,.05,.23,.17,.47,.34,.71,.49,.15,.11,.3,.21,.45,.32l.37,.26c.4,.28,.8,.56,1.21,.84,.07,.05,.16,.11,.25,.17,.11,.08,.22,.15,.32,.22,.07,.05,.14,.09,.2,.14l.07,.05,.07,.04c.27,.18,.54,.37,.8,.54l.27,.18h.01l.02,.02c.16,.11,.32,.22,.48,.33,.19,.13,.38,.26,.58,.39,.53,.36,1.04,.69,1.56,1.03,.33,.22,.65,.42,.98,.64,.06,.04,.12,.08,.19,.13,1.08,.7,2.19,1.41,3.39,2.16,.04,.02,.08,.05,.12,.07v.02h.02c.11,.07,.22,.14,.34,.21,.72,.45,1.44,.9,2.17,1.35,.14,.09,.27,.17,.42,.25,.11,.07,.22,.14,.34,.21,.11,.07,.21,.13,.32,.2h.02l.65,.4,.53,.32,.02,.02h.03c.1,.07,.2,.13,.3,.2,.14,.08,.28,.17,.42,.25l.13,.08c.2,.13,.41,.26,.62,.38l.65,.38,.71,.42h.02l.02,.02,.51,.3c.28,.16,.57,.33,.85,.49,.99,.57,2.04,1.17,3.11,1.78l.21,.12,.13,.07h.01l.02,.02c.1,.06,.2,.11,.3,.17l.19,.1h.01l.02,.02,.5,.28c.58,.32,1.15,.64,1.74,.96,.17,.09,.35,.19,.54,.29l.23,.13c.49,.27,1,.53,1.49,.8,.12,.06,.25,.13,.38,.21,.17,.09,.34,.18,.51,.27,.68,.37,1.36,.72,2.04,1.07l.3,.16,1.12,1.12h1.07c.44,.24,.87,.44,1.31,.67,.09,.04,.19,.09,.28,.13l.07,.03,.03,.03h.03c.81,.4,1.62,.81,2.43,1.2h.04c.26,.14,.51,.27,.77,.39,.29,.15,.58,.29,.87,.42,.73,.36,1.48,.71,2.24,1.07,.71,.33,1.43,.65,2.14,.98l.27,.12,.04,.02c.35,.17,.71,.33,1.07,.49,.99,.44,2.01,.89,3.02,1.33l.09,.04h.03c.45,.21,.9,.4,1.34,.59l.18,.08c.18,.08,.36,.16,.55,.24,.59,.26,1.18,.5,1.78,.75,.23,.1,.45,.19,.68,.29l.28,.11,.6,.25c.27,.11,.53,.22,.79,.33l.07,.03,.06,.03c.27,.1,.53,.21,.8,.33l.4,.16,.03,.02h.04c.23,.1,.46,.2,.69,.29,.24,.1,.48,.2,.72,.29l.42,.17,.4,.16,.05,.02h.05c.14,.07,.29,.13,.44,.18l.07,.03c.48,.19,.97,.39,1.46,.56,.36,.15,.72,.29,1.08,.41,.19,.07,.38,.15,.57,.22l.04,.02h.04l.31,.12,.25,.1c.5,.19,1.01,.37,1.51,.55l.18,.06,.32,.12c.84,.31,1.67,.61,2.52,.91,.47,.17,.95,.34,1.43,.49l.68,.24,.6,.21c.44,.16,.88,.31,1.33,.45l.33,.12,.29,.09h.02l.02,.02,.37,.12,.33,.11,.15,.05,.25,.08,.3,.1c.53,.18,1.06,.35,1.59,.52h.04l.15,.06c.24,.08,.47,.15,.71,.22,.16,.06,.33,.11,.49,.16l.09,.02,.08,.03c.13,.05,.26,.09,.39,.13l.09,.03,.1,.03,.09,.03,.18,.06,.08,.02c.07,.02,.13,.04,.2,.06,.39,.12,.77,.24,1.16,.36,.43,.14,.9,.29,1.4,.42,2.12,.63,4.25,1.24,6.34,1.82,.65,.18,1.29,.35,1.93,.51h.03c1.1,.31,2.17,.58,3.19,.83l.06,.02c.55,.14,1.1,.28,1.64,.41,.49,.11,.94,.23,1.4,.34h.04c1.4,.35,2.82,.67,4.21,.99h.04l.68,.16c.25,.05,.5,.11,.75,.16,.42,.1,.84,.19,1.27,.28l.51,.11c.19,.04,.37,.08,.55,.11,.11,.02,.21,.04,.31,.07,.71,.15,1.41,.29,2.08,.41h.02l.55,.12c.64,.13,1.28,.26,1.92,.39h.04c.26,.05,.53,.1,.8,.15,.27,.06,.54,.11,.81,.16,2.44,.44,4.93,.87,7.39,1.25,.15,.02,.3,.04,.44,.06,.13,.03,.26,.05,.39,.06,.87,.14,1.74,.27,2.61,.4,.06,0,.13,.02,.19,.03h.02c.31,.05,.63,.09,.94,.13l.35,.05,.3,.04,.27,.04,.23,.03c.54,.07,1.08,.15,1.62,.22l.26,.03c.54,.07,1.06,.14,1.59,.2h.05l.06,.02c.06,0,.13,0,.19,.02l.15,.02,.16,.02h.11l.11,.02c.15,.02,.31,.04,.46,.06,.18,.02,.37,.04,.55,.06h.03l.78,.09,1.01,.11c.51,.06,1,.12,1.49,.17,1.34,.14,2.76,.27,4.33,.4h.03l.36,.03c.16,.02,.32,.03,.47,.04l.13,.02c.1,0,.19,0,.29,.02,.67,.06,1.35,.11,2.02,.16h.05l.3,.03,.89,.06h.06c.16,0,.33,.03,.49,.04,.17,0,.33,.02,.49,.03,.15,.01,.31,.03,.46,.03,.47,.04,.94,.07,1.41,.1h.04c.27,0,.53,.03,.78,.04,.23,.01,.45,.02,.68,.04h.04c.21,.01,.42,.02,.63,.03,.23,.02,.47,.03,.7,.04,1.18,.06,2.5,.13,3.81,.17h.39l.17,.02h.23c.29,.02,.6,.03,.91,.03,.46,.02,.92,.03,1.38,.04h.69c.29,.02,.58,.03,.87,.03,.3,.01,.61,.02,.92,.02,1.79,.03,3.16,.04,4.45,.04h.09c1.3,0,2.66-.01,4.43-.04,.33,0,.64-.01,.96-.02,.28,0,.57,0,.86-.02h.68c.46-.02,.92-.03,1.38-.05,.3,0,.6,0,.9-.03h.69l.11-.02c1.23-.04,2.4-.1,3.81-.17,.24-.01,.47-.02,.71-.04l.62-.03h.05c.22-.02,.45-.03,.67-.04,.26,0,.52-.03,.77-.04h.05c.45-.03,.92-.06,1.42-.1,.15,0,.3-.02,.45-.03,.17,0,.34-.02,.51-.03,.16-.01,.32-.03,.48-.04h.04l.71-.05,.47-.03h.07c.67-.06,1.35-.11,2.02-.17,.1-.01,.19-.01,.29-.02h.1l.03-.02c.17,0,.33-.02,.49-.04,.12,0,.23-.02,.34-.03,1.59-.13,3.01-.27,4.37-.4,.49-.05,.99-.11,1.49-.17l.99-.11,.8-.08h.02c.19-.03,.37-.05,.55-.07,.16-.02,.31-.04,.46-.06h.11l.14-.03h.13l.13-.03c.08,0,.16-.02,.25-.03h.07c.53-.07,1.06-.14,1.59-.21l.26-.03c.61-.08,1.21-.16,1.81-.25h.07l.46-.07h.11l.38-.07c.29-.04,.59-.08,.89-.12h.02c.06-.01,.12-.02,.18-.03,.87-.13,1.74-.26,2.61-.4,.13,0,.25-.03,.38-.05l.39-.06h.05c2.46-.39,4.96-.82,7.41-1.26,.27-.05,.54-.11,.81-.16s.53-.1,.8-.15h.04c.64-.13,1.28-.26,1.92-.39l.55-.12c.69-.14,1.39-.27,2.08-.41,.12-.03,.22-.05,.32-.07,.18-.03,.37-.07,.55-.11l.52-.11c.43-.09,.85-.18,1.27-.28,.25-.05,.5-.11,.75-.16l.68-.15h.04c1.39-.33,2.81-.65,4.2-.99,.49-.12,.95-.23,1.42-.35,.57-.14,1.13-.28,1.68-.42h.07c.99-.26,2.06-.53,3.16-.83,.66-.18,1.31-.35,1.96-.52,2.1-.57,4.23-1.18,6.34-1.82,.5-.14,.96-.29,1.41-.42,.4-.12,.79-.24,1.17-.37,.06,0,.12-.03,.17-.05l.14-.03,.16-.06,.07-.02,.09-.03,.1-.03c.12-.04,.23-.08,.35-.12l.1-.03,.12-.04c.15-.04,.31-.09,.46-.14,.24-.08,.47-.15,.71-.23l.17-.05h.03c.55-.19,1.09-.37,1.63-.54l.25-.08,.05-.02h.05l.15-.07,.16-.05c.24-.08,.47-.16,.7-.23h.02l.03-.02,.29-.1,.34-.11c.41-.14,.82-.29,1.24-.42l.65-.23,.76-.27c.46-.16,.92-.32,1.38-.47,1.01-.37,1.95-.7,2.84-1.03l.39-.14c.43-.16,.85-.31,1.27-.47h.05c.18-.08,.36-.14,.54-.21h.04l.04-.03c.18-.07,.37-.14,.56-.22,.36-.13,.73-.27,1.09-.41,.48-.18,.97-.38,1.46-.56l.06-.02c.18-.07,.35-.14,.52-.21,.28-.1,.55-.21,.82-.32,.26-.1,.5-.2,.74-.3,.23-.09,.46-.19,.69-.28,.33-.13,.64-.26,.95-.39l.41-.17,.59-.25c.28-.11,.56-.23,.83-.34l.17-.07c.27-.11,.54-.22,.81-.34,.61-.25,1.19-.49,1.78-.75,.22-.09,.44-.19,.66-.29l.07-.03c.25-.11,.51-.22,.76-.33,.18-.09,.37-.17,.55-.25h.03l.03-.02,.06-.03c1.02-.44,2.05-.9,3.06-1.35,.36-.16,.72-.33,1.09-.5h.03c.28-.14,.57-.27,.86-.4,.51-.23,1.02-.45,1.53-.7,.75-.35,1.51-.7,2.25-1.07,.31-.15,.64-.31,.96-.46,.23-.11,.45-.23,.68-.34,.82-.39,1.63-.79,2.44-1.18l.05-.03,.04-.02,.05-.03c.1-.04,.19-.09,.28-.14,.85-.41,1.69-.84,2.45-1.22,.14-.07,.27-.14,.41-.22l.04-.02,.07-.04,.42-.22,.41-.22c.68-.35,1.36-.7,2.03-1.06,.19-.1,.36-.19,.52-.28,.13-.07,.26-.15,.39-.22,.49-.26,.99-.52,1.49-.8l.23-.12c.18-.1,.37-.2,.55-.3,.46-.25,.91-.49,1.35-.74l.84-.46c.17-.1,.35-.2,.52-.29h.02l.16-.1,.13-.08,.06-.03,.05-.03c1.03-.58,2.06-1.17,3.09-1.77,.24-.14,.48-.28,.71-.41,.22-.13,.44-.25,.65-.38l.04-.02,.03-.02c.26-.16,.53-.32,.8-.47l.53-.31c.21-.12,.43-.26,.65-.39l.1-.06c.14-.09,.28-.18,.43-.26,.1-.07,.2-.13,.3-.19h.02l.03-.03,.07-.04c.35-.22,.71-.43,1.07-.65h.03l.03-.03c.21-.13,.42-.26,.64-.39,.15-.09,.3-.18,.44-.28l.08-.05c.7-.43,1.41-.87,2.11-1.3,.11-.07,.21-.13,.31-.2l.03-.02s.07-.04,.11-.07c1.22-.76,2.35-1.48,3.44-2.2l.14-.09,.03-.02,.93-.6,.77-.51,.8-.52c.21-.14,.4-.27,.6-.39,.16-.11,.31-.22,.47-.33l.04-.02,.53-.36,.57-.39,.02-.02h.02c.08-.07,.17-.13,.26-.19,.09-.06,.19-.13,.29-.19,.11-.08,.21-.15,.3-.21,.39-.28,.79-.55,1.19-.83l.35-.24c.4-.28,.8-.55,1.19-.83,.03-.02,.06-.03,.08-.05,.07-.05,.13-.09,.17-.12h.01l.06-.05c.86-.6,1.72-1.21,2.54-1.81,.19-.13,.37-.27,.56-.4h.02l.24-.18,.11-.08,.17-.13,.03-.02c.13-.1,.27-.2,.41-.3l.03-.03,.03-.02c.19-.14,.37-.28,.55-.4,.33-.24,.65-.46,.97-.7,.19-.15,.38-.29,.57-.43,.16-.12,.31-.23,.47-.35l.04-.03,.05-.04c.3-.23,.6-.44,.9-.67l.04-.03,.12-.09,.05-.04,.03-.02,.08-.06,.09-.07c.14-.11,.28-.21,.42-.32l.04-.03,.04-.03c.77-.58,1.69-1.28,2.62-2.01h.02v-.02c.07-.05,.13-.1,.19-.15l.35-.25,.06-.06c.81-.63,1.5-1.17,2.15-1.69,.07-.06,.16-.13,.24-.2l.16-.12,.02-.02,.02-.02,.44-.36c.26-.21,.54-.42,.81-.65l.34-.27c.34-.28,.67-.54,1.01-.82,.16-.13,.31-.26,.46-.39,.1-.08,.19-.17,.29-.24l.03-.03,.03-.02c.64-.52,1.27-1.05,1.91-1.58,.62-.52,1.24-1.06,1.87-1.58,.56-.47,1.12-.96,1.68-1.44,.63-.54,1.25-1.08,1.87-1.62l.05-.05,.04-.03c.57-.5,1.14-1.01,1.7-1.51,.6-.53,1.14-1.03,1.66-1.49,.68-.62,1.38-1.25,2.07-1.9l.03-.02,.02-.02s.08-.08,.13-.12l.17-.16h.02v-.03c.74-.67,1.48-1.36,2.21-2.04l.04-.05,.03-.02c.11-.11,.22-.21,.32-.31l.32-.31,.02-.02,.03-.03c.18-.17,.37-.35,.55-.52,.28-.26,.56-.52,.83-.79l.65-.62,.03-.03,.02-.03,.48-.46,.38-.37c.13-.14,.26-.27,.39-.39l.03-.02,.02-.03c.14-.13,.27-.26,.41-.4,.15-.15,.3-.29,.44-.43l.27-.26,.13-.13c.24-.25,.49-.49,.73-.74l.34-.34c.06-.06,.12-.12,.17-.18l.08-.08,1.78-1.76V29.36c0-16.19-13.34-29.36-29.74-29.36Zm23.65,497.35c-.09,.1-.18,.19-.27,.29-.01,.02-.03,.04-.05,.06-.03,.03-.06,.06-.1,.09-.02,.02-.04,.05-.06,.07-.05,.05-.09,.1-.14,.14-.24,.23-.47,.46-.7,.69h0c-.13,.13-.26,.26-.39,.38-.29,.28-.57,.56-.86,.84-.27,.26-.54,.53-.81,.79l-.48,.47c-.22,.22-.44,.42-.66,.64-.45,.43-.92,.87-1.37,1.3-.24,.23-.46,.44-.7,.66h0v.02c-.72,.67-1.44,1.33-2.16,1.99-.13,.12-.26,.24-.39,.36-.68,.63-1.37,1.25-2.05,1.88-.53,.48-1.07,.97-1.61,1.44-.56,.5-1.12,1.01-1.69,1.5-.62,.54-1.25,1.1-1.88,1.64-.55,.47-1.1,.94-1.64,1.4-.62,.52-1.23,1.05-1.85,1.56-.62,.52-1.24,1.04-1.87,1.55-.27,.22-.52,.43-.79,.65-.44,.36-.89,.72-1.34,1.08-.26,.22-.52,.43-.78,.64-.15,.12-.3,.24-.45,.36-.14,.11-.27,.22-.41,.33-.79,.63-1.58,1.25-2.38,1.87h0c-.11,.1-.22,.19-.33,.27-.85,.66-1.7,1.31-2.56,1.96-.17,.13-.35,.26-.52,.39-.1,.08-.2,.15-.29,.23-.33,.25-.67,.48-1,.74-.36,.27-.71,.53-1.07,.8-.5,.37-1,.73-1.5,1.1-.26,.19-.52,.38-.77,.56-.03,.02-.06,.03-.08,.06-.23,.16-.45,.33-.68,.48-.83,.6-1.66,1.19-2.5,1.78-.06,.04-.12,.09-.19,.13,0,0-.03,.02-.04,.03-.41,.29-.83,.57-1.24,.86-.54,.38-1.08,.75-1.62,1.12-.04,.03-.08,.06-.12,.09-.21,.15-.43,.28-.64,.42-.37,.25-.74,.5-1.1,.75-.36,.24-.71,.47-1.06,.71-.52,.34-1.04,.67-1.55,1.02-.34,.22-.69,.44-1.03,.67-.02,.01-.05,.03-.07,.05-1.12,.73-2.25,1.44-3.37,2.15-.07,.04-.14,.09-.21,.13-.05,.04-.1,.06-.15,.1-.76,.46-1.52,.94-2.27,1.4-.09,.06-.17,.11-.26,.16-.25,.15-.51,.31-.76,.45-.39,.24-.78,.47-1.17,.71-.25,.15-.49,.3-.74,.44-.23,.14-.45,.29-.68,.42h-.01c-.23,.14-.46,.28-.69,.4-.24,.14-.46,.27-.69,.4-.46,.27-.91,.53-1.37,.8-1.01,.58-2.02,1.16-3.04,1.74-.12,.06-.23,.13-.36,.2-.16,.09-.33,.18-.5,.28-.73,.39-1.45,.8-2.18,1.2-.26,.14-.52,.28-.78,.41-.47,.26-.95,.51-1.43,.77-.3,.16-.59,.33-.89,.48-.67,.35-1.34,.69-2.01,1.04-.28,.15-.56,.3-.84,.44-.09,.05-.19,.1-.28,.14h0s-.01,.02-.02,.02c-.86,.43-1.71,.87-2.58,1.29-.13,.07-.26,.13-.39,.2-.79,.39-1.59,.78-2.39,1.17-.54,.27-1.08,.54-1.63,.8-.73,.36-1.46,.69-2.19,1.04-.78,.37-1.58,.72-2.36,1.08-.36,.17-.71,.34-1.07,.49-1.01,.45-2.04,.91-3.06,1.35-.45,.19-.9,.39-1.35,.58-.23,.1-.45,.21-.68,.3-.59,.26-1.18,.5-1.78,.75-.3,.13-.61,.26-.92,.38-.47,.2-.94,.4-1.42,.58-.43,.18-.85,.36-1.28,.53-.47,.18-.94,.38-1.41,.56-.27,.1-.53,.21-.8,.31-.17,.07-.36,.14-.54,.21-.5,.2-1.01,.39-1.51,.59-.54,.21-1.08,.4-1.62,.61-.2,.07-.4,.14-.6,.22-.54,.21-1.09,.4-1.65,.6-.92,.34-1.85,.67-2.78,1-.69,.25-1.39,.48-2.08,.73-.62,.21-1.24,.42-1.86,.63-.21,.08-.42,.15-.63,.22-.24,.08-.47,.15-.71,.23-.13,.05-.26,.09-.39,.13-.62,.21-1.24,.4-1.86,.61-.29,.09-.58,.19-.88,.28-.19,.06-.38,.12-.58,.18-.15,.05-.3,.1-.46,.15-.11,.04-.23,.07-.34,.11-.11,.03-.21,.07-.31,.09-.39,.13-.79,.25-1.19,.36-.44,.14-.88,.28-1.32,.4-2.08,.61-4.16,1.21-6.25,1.79-.64,.18-1.27,.35-1.91,.51-1.03,.28-2.07,.54-3.1,.8-.55,.14-1.11,.29-1.67,.41-.48,.12-.95,.24-1.42,.35-.68,.17-1.36,.34-2.05,.49-.68,.16-1.37,.32-2.05,.46-.49,.1-.97,.21-1.45,.32-.59,.13-1.17,.25-1.76,.38-.28,.06-.56,.11-.85,.17-.67,.15-1.34,.28-2.02,.4-.8,.17-1.6,.34-2.41,.48-.54,.1-1.08,.21-1.61,.31-2.41,.44-4.83,.85-7.26,1.22-.14,.03-.27,.05-.41,.07-.12,.02-.23,.03-.35,.05-.88,.14-1.76,.27-2.63,.39-.06,0-.13,.02-.19,.03-.4,.06-.81,.11-1.21,.16-.19,.03-.39,.06-.59,.09-.6,.08-1.19,.16-1.79,.24s-1.2,.15-1.8,.23c-.15,0-.3,.03-.46,.05-.11,.01-.22,.02-.33,.04-.34,.04-.67,.08-1.01,.12-.6,.07-1.2,.14-1.81,.2-.47,.06-.94,.11-1.41,.16-1.41,.15-2.83,.28-4.25,.39-.27,.02-.55,.05-.83,.07-.14,.01-.29,.03-.43,.04-.67,.06-1.35,.11-2.02,.16-.39,.03-.78,.06-1.18,.09-.35,.02-.7,.05-1.04,.07-.14,0-.28,.02-.41,.03-.47,.03-.95,.06-1.42,.09-.48,.03-.96,.05-1.44,.08-.44,.02-.89,.05-1.33,.07-.62,.03-1.24,.06-1.86,.09-.42,.02-.84,.03-1.26,.05l-.61,.03h-.3c-.16,.01-.32,.01-.48,.02-.29,0-.57,.02-.86,.02-.67,.03-1.35,.04-2.02,.05-.59,.02-1.19,.03-1.8,.04-1.44,.03-2.88,.04-4.33,.04h-.09c-1.44,0-2.89,0-4.34-.04-.59,0-1.19-.02-1.79-.04-.67,0-1.34-.02-2.01-.05-.29,0-.58-.01-.86-.02-.16,0-.32,0-.48-.02h-.31c-.21-.01-.42-.02-.63-.03-.21-.01-.42-.02-.63-.03-.82-.03-1.64-.07-2.47-.11-.44-.02-.88-.05-1.32-.07-.49-.03-.97-.05-1.45-.08-.47-.03-.95-.06-1.42-.09-.14,0-.27-.02-.4-.03-.35-.02-.7-.05-1.05-.07-.39-.03-.78-.06-1.18-.09-.67-.05-1.34-.1-2.01-.16-.15,0-.3-.03-.44-.04-.28-.02-.55-.05-.83-.07-1.42-.12-2.83-.25-4.25-.39-.47-.05-.94-.1-1.41-.16-.6-.06-1.2-.13-1.8-.2l-1.02-.12c-.11-.02-.22-.03-.34-.04-.14-.02-.3-.04-.45-.05-.6-.08-1.2-.15-1.8-.23-.6-.08-1.19-.16-1.79-.24-.2-.03-.39-.06-.59-.09-.4-.05-.8-.1-1.21-.16l-.18-.03c-.89-.13-1.76-.26-2.64-.39-.12-.02-.23-.03-.35-.05-.13-.02-.27-.04-.4-.07-2.43-.38-4.85-.78-7.26-1.22-.54-.1-1.08-.21-1.61-.31-.81-.15-1.61-.32-2.42-.48-.67-.13-1.35-.26-2.02-.4-.28-.06-.56-.11-.85-.17-.58-.13-1.16-.25-1.75-.38-.48-.11-.97-.22-1.45-.32-1.37-.31-2.74-.62-4.1-.96-.48-.11-.95-.23-1.42-.35-.56-.13-1.12-.28-1.68-.41-.52-.13-1.03-.26-1.55-.39-.51-.13-1.03-.27-1.54-.4-.64-.17-1.28-.34-1.92-.51-2.09-.57-4.17-1.17-6.25-1.79-.44-.13-.88-.27-1.31-.4-.4-.12-.8-.24-1.19-.36-.11-.02-.21-.06-.31-.09-.12-.04-.23-.07-.35-.11-.15-.05-.31-.1-.46-.15-.19-.06-.39-.12-.58-.18-.29-.09-.58-.19-.87-.28-.63-.21-1.25-.4-1.87-.61-.13-.04-.26-.08-.39-.13-.24-.08-.47-.15-.7-.23-.21-.07-.43-.14-.64-.22-.62-.21-1.24-.42-1.86-.63-.69-.25-1.39-.48-2.07-.73-.94-.33-1.86-.66-2.79-1-.55-.2-1.11-.4-1.65-.6-.2-.08-.4-.15-.59-.22-.54-.21-1.09-.4-1.62-.61-.51-.2-1.01-.39-1.52-.59-.18-.07-.36-.14-.54-.21l-.8-.31c-.47-.19-.94-.39-1.41-.56-.42-.18-.85-.36-1.28-.53-.47-.19-.95-.39-1.42-.58-.31-.12-.61-.25-.92-.38-.59-.25-1.18-.49-1.78-.75-.22-.09-.45-.2-.68-.3-.45-.19-.89-.38-1.34-.58-1.03-.44-2.05-.9-3.07-1.35-.35-.16-.71-.33-1.06-.49-.79-.36-1.58-.71-2.36-1.08-.74-.35-1.47-.68-2.19-1.04-.55-.26-1.1-.53-1.64-.8-.8-.39-1.6-.77-2.39-1.17-.13-.07-.26-.13-.39-.2-.86-.42-1.72-.86-2.58-1.29,0,0-.01,0-.02,0h0c-.09-.05-.18-.1-.27-.15-.28-.15-.57-.3-.85-.44-.67-.35-1.34-.69-2-1.04-.3-.16-.59-.33-.89-.48-.48-.26-.96-.51-1.44-.77-.25-.14-.51-.28-.77-.41-.74-.4-1.46-.81-2.2-1.21-.16-.09-.33-.18-.49-.27-.12-.07-.24-.14-.36-.2-1.01-.57-2.03-1.16-3.03-1.74-.46-.27-.92-.53-1.37-.8-.47-.27-.93-.53-1.39-.81-.23-.13-.46-.28-.69-.42-.25-.15-.49-.3-.74-.44-.39-.24-.78-.47-1.17-.71-.25-.15-.51-.31-.76-.45-.08-.05-.17-.1-.25-.16-.76-.46-1.52-.94-2.27-1.4-.06-.04-.11-.06-.16-.1-.06-.04-.13-.09-.2-.13-1.13-.71-2.25-1.42-3.37-2.15-.03-.02-.05-.04-.07-.05-.35-.23-.7-.45-1.04-.68-.51-.34-1.03-.67-1.54-1.01-.36-.24-.71-.47-1.06-.71-.37-.25-.74-.5-1.11-.75-.21-.15-.43-.28-.64-.42-.03-.03-.07-.06-.11-.09-.55-.37-1.09-.74-1.63-1.13-.41-.28-.83-.56-1.23-.85h-.01s-.02-.02-.03-.02h0c-.07-.05-.13-.1-.2-.14-.83-.58-1.66-1.17-2.49-1.78-.23-.16-.46-.33-.69-.48-.01-.01-.02-.03-.04-.03-.01,0-.02-.02-.03-.02h0c-.26-.2-.51-.39-.77-.57-.5-.36-1-.73-1.5-1.1-.36-.27-.72-.53-1.08-.81-.33-.25-.66-.48-.99-.73-.1-.08-.2-.15-.3-.23-.17-.13-.34-.26-.51-.39-.87-.65-1.72-1.3-2.57-1.96-.11-.08-.21-.17-.32-.26,0,0-.01,0-.01,0-.8-.61-1.59-1.23-2.38-1.87-.14-.11-.28-.22-.41-.33-.15-.12-.3-.24-.45-.36-.27-.21-.53-.42-.79-.64-.45-.36-.9-.71-1.34-1.08-.27-.22-.53-.43-.79-.65-.62-.51-1.24-1.03-1.87-1.55-.61-.51-1.23-1.04-1.84-1.56-.55-.46-1.1-.93-1.65-1.4-.63-.54-1.25-1.1-1.88-1.64-.56-.49-1.13-1-1.69-1.5-.54-.47-1.07-.96-1.61-1.44-.68-.62-1.37-1.24-2.05-1.87-.12-.12-.26-.25-.39-.37-.72-.66-1.43-1.32-2.14-1.99h-.02v-.02c-.23-.22-.46-.43-.69-.66-.46-.43-.92-.87-1.37-1.3-.23-.22-.44-.42-.66-.64-.17-.16-.32-.32-.49-.47-.27-.26-.54-.53-.81-.78h0c-.28-.29-.57-.57-.85-.85-.13-.13-.26-.26-.39-.38h0l-.56-.56-.06-.06c-.05-.05-.1-.11-.15-.16-.08-.07-.15-.14-.23-.22-.02-.01-.03-.03-.05-.05h0c-.1-.11-.19-.2-.28-.3V29.36c0-1.61,.17-3.19,.48-4.71,.16-.75,.35-1.49,.58-2.22,.35-1.11,.77-2.17,1.27-3.19,.43-.89,.92-1.75,1.47-2.56,.9-1.38,1.95-2.67,3.13-3.82,1.07-1.06,2.24-2.01,3.5-2.85,.19-.13,.38-.26,.58-.38,.76-.48,1.56-.93,2.38-1.31,.01-.01,.01,0,.01,0h0c.33-.17,.67-.3,1.01-.45,.07-.03,.13-.06,.2-.09,.34-.14,.69-.27,1.04-.39,.09-.03,.19-.07,.28-.1,.23-.08,.46-.17,.69-.24,.74-.23,1.49-.42,2.26-.57,1.54-.31,3.14-.47,4.77-.47H376.21c1.63,0,3.23,.17,4.77,.47,.77,.16,1.52,.35,2.26,.57,.74,.23,1.47,.49,2.17,.79h0c.35,.15,.7,.3,1.04,.46,0,.01,.01,0,.01,0,.34,.17,.68,.34,1.01,.52h.01c.33,.18,.66,.36,.98,.56h0c.32,.19,.64,.39,.95,.6h.01c.31,.21,.62,.42,.92,.65,0,0,0,.01,.01,0,.3,.23,.59,.45,.88,.69,0,0,.01,0,.01,0,.29,.24,.57,.48,.85,.74h.01c.28,.25,.55,.5,.81,.77t.01,.01c.27,.26,.53,.52,.78,.8h0c.26,.29,.51,.56,.75,.85h0c.24,.3,.47,.58,.7,.88h0c.23,.31,.45,.61,.66,.92h0c.21,.32,.42,.63,.61,.95h0c.2,.33,.39,.65,.57,.98h0c.09,.17,.17,.33,.25,.49,.07,.13,.14,.26,.21,.39,.03,.06,.06,.12,.09,.19,.14,.28,.27,.56,.39,.86,.08,.17,.16,.36,.22,.53,.1,.21,.18,.42,.26,.63h0c.1,.3,.2,.57,.29,.87,.03,.07,.05,.15,.08,.23,.05,.16,.1,.32,.14,.47,.06,.21,.12,.41,.17,.62h.01v.03c.08,.3,.15,.59,.21,.89,.05,.23,.1,.45,.13,.68,.02,.03,.02,.07,.03,.11,.03,.17,.06,.33,.09,.49v.03c.06,.36,.1,.71,.14,1.08,.03,.25,.05,.49,.07,.74,0,.02,.01,.05,0,.07,.02,.17,.03,.35,.04,.51,.02,.4,.03,.8,.03,1.2V497.35Z"/><path class="cls-1" d="M376.21,0H29.74C13.34,0,0,13.17,0,29.36V499.74l1.65,1.73c.13,.14,.26,.27,.39,.39l.32,.33c.25,.25,.5,.5,.75,.74l.13,.14,.27,.26c.14,.14,.29,.29,.43,.43,.14,.13,.28,.27,.41,.4l.03,.03,.02,.02c.12,.12,.24,.24,.37,.36,.14,.15,.29,.3,.44,.43v.02h.03l.17,.18c.1,.1,.19,.2,.3,.3l.33,.32,.32,.31c.35,.35,.71,.69,1.07,1.03l.33,.32h.02v.02l.32,.31c.11,.1,.22,.21,.34,.32l.04,.04c.72,.68,1.46,1.37,2.19,2.04,.08,.08,.16,.15,.25,.23,.03,.03,.07,.07,.1,.1l.04,.03,.03,.04,1,.91c.35,.32,.7,.64,1.05,.96l.03,.02,.02,.02,.52,.47c.37,.33,.74,.66,1.11,.99,.55,.49,1.1,.99,1.66,1.47l.05,.04c.65,.57,1.28,1.13,1.92,1.68,.33,.29,.67,.58,1.01,.87,.22,.19,.44,.37,.65,.55l.02,.02h.02l1.03,.89,.81,.68,.02,.02h.02c.64,.54,1.27,1.07,1.9,1.58,.09,.08,.18,.16,.28,.23,.17,.15,.35,.3,.52,.44,.34,.28,.68,.55,1.02,.82l.33,.27c.28,.23,.56,.45,.84,.68l.19,.15,.23,.19h.02l.02,.03,.15,.12c.09,.07,.18,.14,.26,.21,.67,.53,1.4,1.11,2.28,1.79l.1,.08c.11,.09,.22,.17,.32,.25l.04,.04c1.06,.82,1.88,1.44,2.65,2.03l.03,.02,.04,.02c.13,.1,.27,.21,.41,.32l.08,.06,.06,.04,.02,.02,.24,.18,.06,.04c.29,.22,.58,.43,.86,.65h.02v.02l.36,.26,.75,.56c.38,.28,.76,.55,1.15,.83l.39,.3c.11,.08,.22,.16,.34,.25,.14,.1,.28,.21,.42,.31l.22,.16,.02,.02c.19,.14,.39,.28,.58,.4,.81,.59,1.67,1.2,2.53,1.81l.07,.05h.01s.1,.07,.16,.12c.03,.02,.06,.04,.09,.05,.23,.17,.47,.34,.71,.49,.15,.11,.3,.21,.45,.32l.37,.26c.4,.28,.8,.56,1.21,.84,.07,.05,.16,.11,.25,.17,.11,.08,.22,.15,.32,.22,.07,.05,.14,.09,.2,.14l.07,.05,.07,.04c.27,.18,.54,.37,.8,.54l.27,.18h.01l.02,.02c.16,.11,.32,.22,.48,.33,.19,.13,.38,.26,.58,.39,.53,.36,1.04,.69,1.56,1.03,.33,.22,.65,.42,.98,.64,.06,.04,.12,.08,.19,.13,1.08,.7,2.19,1.41,3.39,2.16,.04,.02,.08,.05,.12,.07v.02h.02c.11,.07,.22,.14,.34,.21,.72,.45,1.44,.9,2.17,1.35,.14,.09,.27,.17,.42,.25,.11,.07,.22,.14,.34,.21,.11,.07,.21,.13,.32,.2h.02l.65,.4,.53,.32,.02,.02h.03c.1,.07,.2,.13,.3,.2,.14,.08,.28,.17,.42,.25l.13,.08c.2,.13,.41,.26,.62,.38l.65,.38,.71,.42h.02l.02,.02,.51,.3c.28,.16,.57,.33,.85,.49,.99,.57,2.04,1.17,3.11,1.78l.21,.12,.13,.07h.01l.02,.02c.1,.06,.2,.11,.3,.17l.19,.1h.01l.02,.02,.5,.28c.58,.32,1.15,.64,1.74,.96,.17,.09,.35,.19,.54,.29l.23,.13c.49,.27,1,.53,1.49,.8,.12,.06,.25,.13,.38,.21,.17,.09,.34,.18,.51,.27,.68,.37,1.36,.72,2.04,1.07l.3,.16,1.12,1.12h1.07c.44,.24,.87,.44,1.31,.67,.09,.04,.19,.09,.28,.13l.07,.03,.03,.03h.03c.81,.4,1.62,.81,2.43,1.2h.04c.26,.14,.51,.27,.77,.39,.29,.15,.58,.29,.87,.42,.73,.36,1.48,.71,2.24,1.07,.71,.33,1.43,.65,2.14,.98l.27,.12,.04,.02c.35,.17,.71,.33,1.07,.49,.99,.44,2.01,.89,3.02,1.33l.09,.04h.03c.45,.21,.9,.4,1.34,.59l.18,.08c.18,.08,.36,.16,.55,.24,.59,.26,1.18,.5,1.78,.75,.23,.1,.45,.19,.68,.29l.28,.11,.6,.25c.27,.11,.53,.22,.79,.33l.07,.03,.06,.03c.27,.1,.53,.21,.8,.33l.4,.16,.03,.02h.04c.23,.1,.46,.2,.69,.29,.24,.1,.48,.2,.72,.29l.42,.17,.4,.16,.05,.02h.05c.14,.07,.29,.13,.44,.18l.07,.03c.48,.19,.97,.39,1.46,.56,.36,.15,.72,.29,1.08,.41,.19,.07,.38,.15,.57,.22l.04,.02h.04l.31,.12,.25,.1c.5,.19,1.01,.37,1.51,.55l.18,.06,.32,.12c.84,.31,1.67,.61,2.52,.91,.47,.17,.95,.34,1.43,.49l.68,.24,.6,.21c.44,.16,.88,.31,1.33,.45l.33,.12,.29,.09h.02l.02,.02,.37,.12,.33,.11,.15,.05,.25,.08,.3,.1c.53,.18,1.06,.35,1.59,.52h.04l.15,.06c.24,.08,.47,.15,.71,.22,.16,.06,.33,.11,.49,.16l.09,.02,.08,.03c.13,.05,.26,.09,.39,.13l.09,.03,.1,.03,.09,.03,.18,.06,.08,.02c.07,.02,.13,.04,.2,.06,.39,.12,.77,.24,1.16,.36,.43,.14,.9,.29,1.4,.42,2.12,.63,4.25,1.24,6.34,1.82,.65,.18,1.29,.35,1.93,.51h.03c1.1,.31,2.17,.58,3.19,.83l.06,.02c.55,.14,1.1,.28,1.64,.41,.49,.11,.94,.23,1.4,.34h.04c1.4,.35,2.82,.67,4.21,.99h.04l.68,.16c.25,.05,.5,.11,.75,.16,.42,.1,.84,.19,1.27,.28l.51,.11c.19,.04,.37,.08,.55,.11,.11,.02,.21,.04,.31,.07,.71,.15,1.41,.29,2.08,.41h.02l.55,.12c.64,.13,1.28,.26,1.92,.39h.04c.26,.05,.53,.1,.8,.15,.27,.06,.54,.11,.81,.16,2.44,.44,4.93,.87,7.39,1.25,.15,.02,.3,.04,.44,.06,.13,.03,.26,.05,.39,.06,.87,.14,1.74,.27,2.61,.4,.06,0,.13,.02,.19,.03h.02c.31,.05,.63,.09,.94,.13l.35,.05,.3,.04,.27,.04,.23,.03c.54,.07,1.08,.15,1.62,.22l.26,.03c.54,.07,1.06,.14,1.59,.2h.05l.06,.02c.06,0,.13,0,.19,.02l.15,.02,.16,.02h.11l.11,.02c.15,.02,.31,.04,.46,.06,.18,.02,.37,.04,.55,.06h.03l.78,.09,1.01,.11c.51,.06,1,.12,1.49,.17,1.34,.14,2.76,.27,4.33,.4h.03l.36,.03c.16,.02,.32,.03,.47,.04l.13,.02c.1,0,.19,0,.29,.02,.67,.06,1.35,.11,2.02,.16h.05l.3,.03,.89,.06h.06c.16,0,.33,.03,.49,.04,.17,0,.33,.02,.49,.03,.15,.01,.31,.03,.46,.03,.47,.04,.94,.07,1.41,.1h.04c.27,0,.53,.03,.78,.04,.23,.01,.45,.02,.68,.04h.04c.21,.01,.42,.02,.63,.03,.23,.02,.47,.03,.7,.04,1.18,.06,2.5,.13,3.81,.17h.39l.17,.02h.23c.29,.02,.6,.03,.91,.03,.46,.02,.92,.03,1.38,.04h.69c.29,.02,.58,.03,.87,.03,.3,.01,.61,.02,.92,.02,1.79,.03,3.16,.04,4.45,.04h.09c1.3,0,2.66-.01,4.43-.04,.33,0,.64-.01,.96-.02,.28,0,.57,0,.86-.02h.68c.46-.02,.92-.03,1.38-.05,.3,0,.6,0,.9-.03h.69l.11-.02c1.23-.04,2.4-.1,3.81-.17,.24-.01,.47-.02,.71-.04l.62-.03h.05c.22-.02,.45-.03,.67-.04,.26,0,.52-.03,.77-.04h.05c.45-.03,.92-.06,1.42-.1,.15,0,.3-.02,.45-.03,.17,0,.34-.02,.51-.03,.16-.01,.32-.03,.48-.04h.04l.71-.05,.47-.03h.07c.67-.06,1.35-.11,2.02-.17,.1-.01,.19-.01,.29-.02h.1l.03-.02c.17,0,.33-.02,.49-.04,.12,0,.23-.02,.34-.03,1.59-.13,3.01-.27,4.37-.4,.49-.05,.99-.11,1.49-.17l.99-.11,.8-.08h.02c.19-.03,.37-.05,.55-.07,.16-.02,.31-.04,.46-.06h.11l.14-.03h.13l.13-.03c.08,0,.16-.02,.25-.03h.07c.53-.07,1.06-.14,1.59-.21l.26-.03c.61-.08,1.21-.16,1.81-.25h.07l.46-.07h.11l.38-.07c.29-.04,.59-.08,.89-.12h.02c.06-.01,.12-.02,.18-.03,.87-.13,1.74-.26,2.61-.4,.13,0,.25-.03,.38-.05l.39-.06h.05c2.46-.39,4.96-.82,7.41-1.26,.27-.05,.54-.11,.81-.16s.53-.1,.8-.15h.04c.64-.13,1.28-.26,1.92-.39l.55-.12c.69-.14,1.39-.27,2.08-.41,.12-.03,.22-.05,.32-.07,.18-.03,.37-.07,.55-.11l.52-.11c.43-.09,.85-.18,1.27-.28,.25-.05,.5-.11,.75-.16l.68-.15h.04c1.39-.33,2.81-.65,4.2-.99,.49-.12,.95-.23,1.42-.35,.57-.14,1.13-.28,1.68-.42h.07c.99-.26,2.06-.53,3.16-.83,.66-.18,1.31-.35,1.96-.52,2.1-.57,4.23-1.18,6.34-1.82,.5-.14,.96-.29,1.41-.42,.4-.12,.79-.24,1.17-.37,.06,0,.12-.03,.17-.05l.14-.03,.16-.06,.07-.02,.09-.03,.1-.03c.12-.04,.23-.08,.35-.12l.1-.03,.12-.04c.15-.04,.31-.09,.46-.14,.24-.08,.47-.15,.71-.23l.17-.05h.03c.55-.19,1.09-.37,1.63-.54l.25-.08,.05-.02h.05l.15-.07,.16-.05c.24-.08,.47-.16,.7-.23h.02l.03-.02,.29-.1,.34-.11c.41-.14,.82-.29,1.24-.42l.65-.23,.76-.27c.46-.16,.92-.32,1.38-.47,1.01-.37,1.95-.7,2.84-1.03l.39-.14c.43-.16,.85-.31,1.27-.47h.05c.18-.08,.36-.14,.54-.21h.04l.04-.03c.18-.07,.37-.14,.56-.22,.36-.13,.73-.27,1.09-.41,.48-.18,.97-.38,1.46-.56l.06-.02c.18-.07,.35-.14,.52-.21,.28-.1,.55-.21,.82-.32,.26-.1,.5-.2,.74-.3,.23-.09,.46-.19,.69-.28,.33-.13,.64-.26,.95-.39l.41-.17,.59-.25c.28-.11,.56-.23,.83-.34l.17-.07c.27-.11,.54-.22,.81-.34,.61-.25,1.19-.49,1.78-.75,.22-.09,.44-.19,.66-.29l.07-.03c.25-.11,.51-.22,.76-.33,.18-.09,.37-.17,.55-.25h.03l.03-.02,.06-.03c1.02-.44,2.05-.9,3.06-1.35,.36-.16,.72-.33,1.09-.5h.03c.28-.14,.57-.27,.86-.4,.51-.23,1.02-.45,1.53-.7,.75-.35,1.51-.7,2.25-1.07,.31-.15,.64-.31,.96-.46,.23-.11,.45-.23,.68-.34,.82-.39,1.63-.79,2.44-1.18l.05-.03,.04-.02,.05-.03c.1-.04,.19-.09,.28-.14,.85-.41,1.69-.84,2.45-1.22,.14-.07,.27-.14,.41-.22l.04-.02,.07-.04,.42-.22,.41-.22c.68-.35,1.36-.7,2.03-1.06,.19-.1,.36-.19,.52-.28,.13-.07,.26-.15,.39-.22,.49-.26,.99-.52,1.49-.8l.23-.12c.18-.1,.37-.2,.55-.3,.46-.25,.91-.49,1.35-.74l.84-.46c.17-.1,.35-.2,.52-.29h.02l.16-.1,.13-.08,.06-.03,.05-.03c1.03-.58,2.06-1.17,3.09-1.77,.24-.14,.48-.28,.71-.41,.22-.13,.44-.25,.65-.38l.04-.02,.03-.02c.26-.16,.53-.32,.8-.47l.53-.31c.21-.12,.43-.26,.65-.39l.1-.06c.14-.09,.28-.18,.43-.26,.1-.07,.2-.13,.3-.19h.02l.03-.03,.07-.04c.35-.22,.71-.43,1.07-.65h.03l.03-.03c.21-.13,.42-.26,.64-.39,.15-.09,.3-.18,.44-.28l.08-.05c.7-.43,1.41-.87,2.11-1.3,.11-.07,.21-.13,.31-.2l.03-.02s.07-.04,.11-.07c1.22-.76,2.35-1.48,3.44-2.2l.14-.09,.03-.02,.93-.6,.77-.51,.8-.52c.21-.14,.4-.27,.6-.39,.16-.11,.31-.22,.47-.33l.04-.02,.53-.36,.57-.39,.02-.02h.02c.08-.07,.17-.13,.26-.19,.09-.06,.19-.13,.29-.19,.11-.08,.21-.15,.3-.21,.39-.28,.79-.55,1.19-.83l.35-.24c.4-.28,.8-.55,1.19-.83,.03-.02,.06-.03,.08-.05,.07-.05,.13-.09,.17-.12h.01l.06-.05c.86-.6,1.72-1.21,2.54-1.81,.19-.13,.37-.27,.56-.4h.02l.24-.18,.11-.08,.17-.13,.03-.02c.13-.1,.27-.2,.41-.3l.03-.03,.03-.02c.19-.14,.37-.28,.55-.4,.33-.24,.65-.46,.97-.7,.19-.15,.38-.29,.57-.43,.16-.12,.31-.23,.47-.35l.04-.03,.05-.04c.3-.23,.6-.44,.9-.67l.04-.03,.12-.09,.05-.04,.03-.02,.08-.06,.09-.07c.14-.11,.28-.21,.42-.32l.04-.03,.04-.03c.77-.58,1.69-1.28,2.62-2.01h.02v-.02c.07-.05,.13-.1,.19-.15l.35-.25,.06-.06c.81-.63,1.5-1.17,2.15-1.69,.07-.06,.16-.13,.24-.2l.16-.12,.02-.02,.02-.02,.44-.36c.26-.21,.54-.42,.81-.65l.34-.27c.34-.28,.67-.54,1.01-.82,.16-.13,.31-.26,.46-.39,.1-.08,.19-.17,.29-.24l.03-.03,.03-.02c.64-.52,1.27-1.05,1.91-1.58,.62-.52,1.24-1.06,1.87-1.58,.56-.47,1.12-.96,1.68-1.44,.63-.54,1.25-1.08,1.87-1.62l.05-.05,.04-.03c.57-.5,1.14-1.01,1.7-1.51,.6-.53,1.14-1.03,1.66-1.49,.68-.62,1.38-1.25,2.07-1.9l.03-.02,.02-.02s.08-.08,.13-.12l.17-.16h.02v-.03c.74-.67,1.48-1.36,2.21-2.04l.04-.05,.03-.02c.11-.11,.22-.21,.32-.31l.32-.31,.02-.02,.03-.03c.18-.17,.37-.35,.55-.52,.28-.26,.56-.52,.83-.79l.65-.62,.03-.03,.02-.03,.48-.46,.38-.37c.13-.14,.26-.27,.39-.39l.03-.02,.02-.03c.14-.13,.27-.26,.41-.4,.15-.15,.3-.29,.44-.43l.27-.26,.13-.13c.24-.25,.49-.49,.73-.74l.34-.34c.06-.06,.12-.12,.17-.18l.08-.08,1.78-1.76V29.36c0-16.19-13.34-29.36-29.74-29.36Zm23.65,497.35c-.09,.1-.18,.19-.27,.29-.01,.02-.03,.04-.05,.06-.03,.03-.06,.06-.1,.09-.02,.02-.04,.05-.06,.07-.05,.05-.09,.1-.14,.14-.24,.23-.47,.46-.7,.69h0c-.13,.13-.26,.26-.39,.38-.29,.28-.57,.56-.86,.84-.27,.26-.54,.53-.81,.79l-.48,.47c-.22,.22-.44,.42-.66,.64-.45,.43-.92,.87-1.37,1.3-.24,.23-.46,.44-.7,.66h0v.02c-.72,.67-1.44,1.33-2.16,1.99-.13,.12-.26,.24-.39,.36-.68,.63-1.37,1.25-2.05,1.88-.53,.48-1.07,.97-1.61,1.44-.56,.5-1.12,1.01-1.69,1.5-.62,.54-1.25,1.1-1.88,1.64-.55,.47-1.1,.94-1.64,1.4-.62,.52-1.23,1.05-1.85,1.56-.62,.52-1.24,1.04-1.87,1.55-.27,.22-.52,.43-.79,.65-.44,.36-.89,.72-1.34,1.08-.26,.22-.52,.43-.78,.64-.15,.12-.3,.24-.45,.36-.14,.11-.27,.22-.41,.33-.79,.63-1.58,1.25-2.38,1.87h0c-.11,.1-.22,.19-.33,.27-.85,.66-1.7,1.31-2.56,1.96-.17,.13-.35,.26-.52,.39-.1,.08-.2,.15-.29,.23-.33,.25-.67,.48-1,.74-.36,.27-.71,.53-1.07,.8-.5,.37-1,.73-1.5,1.1-.26,.19-.52,.38-.77,.56-.03,.02-.06,.03-.08,.06-.23,.16-.45,.33-.68,.48-.83,.6-1.66,1.19-2.5,1.78-.06,.04-.12,.09-.19,.13,0,0-.03,.02-.04,.03-.41,.29-.83,.57-1.24,.86-.54,.38-1.08,.75-1.62,1.12-.04,.03-.08,.06-.12,.09-.21,.15-.43,.28-.64,.42-.37,.25-.74,.5-1.1,.75-.36,.24-.71,.47-1.06,.71-.52,.34-1.04,.67-1.55,1.02-.34,.22-.69,.44-1.03,.67-.02,.01-.05,.03-.07,.05-1.12,.73-2.25,1.44-3.37,2.15-.07,.04-.14,.09-.21,.13-.05,.04-.1,.06-.15,.1-.76,.46-1.52,.94-2.27,1.4-.09,.06-.17,.11-.26,.16-.25,.15-.51,.31-.76,.45-.39,.24-.78,.47-1.17,.71-.25,.15-.49,.3-.74,.44-.23,.14-.45,.29-.68,.42h-.01c-.23,.14-.46,.28-.69,.4-.24,.14-.46,.27-.69,.4-.46,.27-.91,.53-1.37,.8-1.01,.58-2.02,1.16-3.04,1.74-.12,.06-.23,.13-.36,.2-.16,.09-.33,.18-.5,.28-.73,.39-1.45,.8-2.18,1.2-.26,.14-.52,.28-.78,.41-.47,.26-.95,.51-1.43,.77-.3,.16-.59,.33-.89,.48-.67,.35-1.34,.69-2.01,1.04-.28,.15-.56,.3-.84,.44-.09,.05-.19,.1-.28,.14h0s-.01,.02-.02,.02c-.86,.43-1.71,.87-2.58,1.29-.13,.07-.26,.13-.39,.2-.79,.39-1.59,.78-2.39,1.17-.54,.27-1.08,.54-1.63,.8-.73,.36-1.46,.69-2.19,1.04-.78,.37-1.58,.72-2.36,1.08-.36,.17-.71,.34-1.07,.49-1.01,.45-2.04,.91-3.06,1.35-.45,.19-.9,.39-1.35,.58-.23,.1-.45,.21-.68,.3-.59,.26-1.18,.5-1.78,.75-.3,.13-.61,.26-.92,.38-.47,.2-.94,.4-1.42,.58-.43,.18-.85,.36-1.28,.53-.47,.18-.94,.38-1.41,.56-.27,.1-.53,.21-.8,.31-.17,.07-.36,.14-.54,.21-.5,.2-1.01,.39-1.51,.59-.54,.21-1.08,.4-1.62,.61-.2,.07-.4,.14-.6,.22-.54,.21-1.09,.4-1.65,.6-.92,.34-1.85,.67-2.78,1-.69,.25-1.39,.48-2.08,.73-.62,.21-1.24,.42-1.86,.63-.21,.08-.42,.15-.63,.22-.24,.08-.47,.15-.71,.23-.13,.05-.26,.09-.39,.13-.62,.21-1.24,.4-1.86,.61-.29,.09-.58,.19-.88,.28-.19,.06-.38,.12-.58,.18-.15,.05-.3,.1-.46,.15-.11,.04-.23,.07-.34,.11-.11,.03-.21,.07-.31,.09-.39,.13-.79,.25-1.19,.36-.44,.14-.88,.28-1.32,.4-2.08,.61-4.16,1.21-6.25,1.79-.64,.18-1.27,.35-1.91,.51-1.03,.28-2.07,.54-3.1,.8-.55,.14-1.11,.29-1.67,.41-.48,.12-.95,.24-1.42,.35-.68,.17-1.36,.34-2.05,.49-.68,.16-1.37,.32-2.05,.46-.49,.1-.97,.21-1.45,.32-.59,.13-1.17,.25-1.76,.38-.28,.06-.56,.11-.85,.17-.67,.15-1.34,.28-2.02,.4-.8,.17-1.6,.34-2.41,.48-.54,.1-1.08,.21-1.61,.31-2.41,.44-4.83,.85-7.26,1.22-.14,.03-.27,.05-.41,.07-.12,.02-.23,.03-.35,.05-.88,.14-1.76,.27-2.63,.39-.06,0-.13,.02-.19,.03-.4,.06-.81,.11-1.21,.16-.19,.03-.39,.06-.59,.09-.6,.08-1.19,.16-1.79,.24s-1.2,.15-1.8,.23c-.15,0-.3,.03-.46,.05-.11,.01-.22,.02-.33,.04-.34,.04-.67,.08-1.01,.12-.6,.07-1.2,.14-1.81,.2-.47,.06-.94,.11-1.41,.16-1.41,.15-2.83,.28-4.25,.39-.27,.02-.55,.05-.83,.07-.14,.01-.29,.03-.43,.04-.67,.06-1.35,.11-2.02,.16-.39,.03-.78,.06-1.18,.09-.35,.02-.7,.05-1.04,.07-.14,0-.28,.02-.41,.03-.47,.03-.95,.06-1.42,.09-.48,.03-.96,.05-1.44,.08-.44,.02-.89,.05-1.33,.07-.62,.03-1.24,.06-1.86,.09-.42,.02-.84,.03-1.26,.05l-.61,.03h-.3c-.16,.01-.32,.01-.48,.02-.29,0-.57,.02-.86,.02-.67,.03-1.35,.04-2.02,.05-.59,.02-1.19,.03-1.8,.04-1.44,.03-2.88,.04-4.33,.04h-.09c-1.44,0-2.89,0-4.34-.04-.59,0-1.19-.02-1.79-.04-.67,0-1.34-.02-2.01-.05-.29,0-.58-.01-.86-.02-.16,0-.32,0-.48-.02h-.31c-.21-.01-.42-.02-.63-.03-.21-.01-.42-.02-.63-.03-.82-.03-1.64-.07-2.47-.11-.44-.02-.88-.05-1.32-.07-.49-.03-.97-.05-1.45-.08-.47-.03-.95-.06-1.42-.09-.14,0-.27-.02-.4-.03-.35-.02-.7-.05-1.05-.07-.39-.03-.78-.06-1.18-.09-.67-.05-1.34-.1-2.01-.16-.15,0-.3-.03-.44-.04-.28-.02-.55-.05-.83-.07-1.42-.12-2.83-.25-4.25-.39-.47-.05-.94-.1-1.41-.16-.6-.06-1.2-.13-1.8-.2l-1.02-.12c-.11-.02-.22-.03-.34-.04-.14-.02-.3-.04-.45-.05-.6-.08-1.2-.15-1.8-.23-.6-.08-1.19-.16-1.79-.24-.2-.03-.39-.06-.59-.09-.4-.05-.8-.1-1.21-.16l-.18-.03c-.89-.13-1.76-.26-2.64-.39-.12-.02-.23-.03-.35-.05-.13-.02-.27-.04-.4-.07-2.43-.38-4.85-.78-7.26-1.22-.54-.1-1.08-.21-1.61-.31-.81-.15-1.61-.32-2.42-.48-.67-.13-1.35-.26-2.02-.4-.28-.06-.56-.11-.85-.17-.58-.13-1.16-.25-1.75-.38-.48-.11-.97-.22-1.45-.32-1.37-.31-2.74-.62-4.1-.96-.48-.11-.95-.23-1.42-.35-.56-.13-1.12-.28-1.68-.41-.52-.13-1.03-.26-1.55-.39-.51-.13-1.03-.27-1.54-.4-.64-.17-1.28-.34-1.92-.51-2.09-.57-4.17-1.17-6.25-1.79-.44-.13-.88-.27-1.31-.4-.4-.12-.8-.24-1.19-.36-.11-.02-.21-.06-.31-.09-.12-.04-.23-.07-.35-.11-.15-.05-.31-.1-.46-.15-.19-.06-.39-.12-.58-.18-.29-.09-.58-.19-.87-.28-.63-.21-1.25-.4-1.87-.61-.13-.04-.26-.08-.39-.13-.24-.08-.47-.15-.7-.23-.21-.07-.43-.14-.64-.22-.62-.21-1.24-.42-1.86-.63-.69-.25-1.39-.48-2.07-.73-.94-.33-1.86-.66-2.79-1-.55-.2-1.11-.4-1.65-.6-.2-.08-.4-.15-.59-.22-.54-.21-1.09-.4-1.62-.61-.51-.2-1.01-.39-1.52-.59-.18-.07-.36-.14-.54-.21l-.8-.31c-.47-.19-.94-.39-1.41-.56-.42-.18-.85-.36-1.28-.53-.47-.19-.95-.39-1.42-.58-.31-.12-.61-.25-.92-.38-.59-.25-1.18-.49-1.78-.75-.22-.09-.45-.2-.68-.3-.45-.19-.89-.38-1.34-.58-1.03-.44-2.05-.9-3.07-1.35-.35-.16-.71-.33-1.06-.49-.79-.36-1.58-.71-2.36-1.08-.74-.35-1.47-.68-2.19-1.04-.55-.26-1.1-.53-1.64-.8-.8-.39-1.6-.77-2.39-1.17-.13-.07-.26-.13-.39-.2-.86-.42-1.72-.86-2.58-1.29,0,0-.01,0-.02,0h0c-.09-.05-.18-.1-.27-.15-.28-.15-.57-.3-.85-.44-.67-.35-1.34-.69-2-1.04-.3-.16-.59-.33-.89-.48-.48-.26-.96-.51-1.44-.77-.25-.14-.51-.28-.77-.41-.74-.4-1.46-.81-2.2-1.21-.16-.09-.33-.18-.49-.27-.12-.07-.24-.14-.36-.2-1.01-.57-2.03-1.16-3.03-1.74-.46-.27-.92-.53-1.37-.8-.47-.27-.93-.53-1.39-.81-.23-.13-.46-.28-.69-.42-.25-.15-.49-.3-.74-.44-.39-.24-.78-.47-1.17-.71-.25-.15-.51-.31-.76-.45-.08-.05-.17-.1-.25-.16-.76-.46-1.52-.94-2.27-1.4-.06-.04-.11-.06-.16-.1-.06-.04-.13-.09-.2-.13-1.13-.71-2.25-1.42-3.37-2.15-.03-.02-.05-.04-.07-.05-.35-.23-.7-.45-1.04-.68-.51-.34-1.03-.67-1.54-1.01-.36-.24-.71-.47-1.06-.71-.37-.25-.74-.5-1.11-.75-.21-.15-.43-.28-.64-.42-.03-.03-.07-.06-.11-.09-.55-.37-1.09-.74-1.63-1.13-.41-.28-.83-.56-1.23-.85h-.01s-.02-.02-.03-.02h0c-.07-.05-.13-.1-.2-.14-.83-.58-1.66-1.17-2.49-1.78-.23-.16-.46-.33-.69-.48-.01-.01-.02-.03-.04-.03-.01,0-.02-.02-.03-.02h0c-.26-.2-.51-.39-.77-.57-.5-.36-1-.73-1.5-1.1-.36-.27-.72-.53-1.08-.81-.33-.25-.66-.48-.99-.73-.1-.08-.2-.15-.3-.23-.17-.13-.34-.26-.51-.39-.87-.65-1.72-1.3-2.57-1.96-.11-.08-.21-.17-.32-.26,0,0-.01,0-.01,0-.8-.61-1.59-1.23-2.38-1.87-.14-.11-.28-.22-.41-.33-.15-.12-.3-.24-.45-.36-.27-.21-.53-.42-.79-.64-.45-.36-.9-.71-1.34-1.08-.27-.22-.53-.43-.79-.65-.62-.51-1.24-1.03-1.87-1.55-.61-.51-1.23-1.04-1.84-1.56-.55-.46-1.1-.93-1.65-1.4-.63-.54-1.25-1.1-1.88-1.64-.56-.49-1.13-1-1.69-1.5-.54-.47-1.07-.96-1.61-1.44-.68-.62-1.37-1.24-2.05-1.87-.12-.12-.26-.25-.39-.37-.72-.66-1.43-1.32-2.14-1.99h-.02v-.02c-.23-.22-.46-.43-.69-.66-.46-.43-.92-.87-1.37-1.3-.23-.22-.44-.42-.66-.64-.17-.16-.32-.32-.49-.47-.27-.26-.54-.53-.81-.78h0c-.28-.29-.57-.57-.85-.85-.13-.13-.26-.26-.39-.38h0l-.56-.56-.06-.06c-.05-.05-.1-.11-.15-.16-.08-.07-.15-.14-.23-.22-.02-.01-.03-.03-.05-.05h0c-.1-.11-.19-.2-.28-.3V29.36c0-1.61,.17-3.19,.48-4.71,.16-.75,.35-1.49,.58-2.22,.35-1.11,.77-2.17,1.27-3.19,.43-.89,.92-1.75,1.47-2.56,.9-1.38,1.95-2.67,3.13-3.82,1.07-1.06,2.24-2.01,3.5-2.85,.19-.13,.38-.26,.58-.38,.76-.48,1.56-.93,2.38-1.31,.01-.01,.01,0,.01,0h0c.33-.17,.67-.3,1.01-.45,.07-.03,.13-.06,.2-.09,.34-.14,.69-.27,1.04-.39,.09-.03,.19-.07,.28-.1,.23-.08,.46-.17,.69-.24,.74-.23,1.49-.42,2.26-.57,1.54-.31,3.14-.47,4.77-.47H376.21c1.63,0,3.23,.17,4.77,.47,.77,.16,1.52,.35,2.26,.57,.74,.23,1.47,.49,2.17,.79h0c.35,.15,.7,.3,1.04,.46,0,.01,.01,0,.01,0,.34,.17,.68,.34,1.01,.52h.01c.33,.18,.66,.36,.98,.56h0c.32,.19,.64,.39,.95,.6h.01c.31,.21,.62,.42,.92,.65,0,0,0,.01,.01,0,.3,.23,.59,.45,.88,.69,0,0,.01,0,.01,0,.29,.24,.57,.48,.85,.74h.01c.28,.25,.55,.5,.81,.77t.01,.01c.27,.26,.53,.52,.78,.8h0c.26,.29,.51,.56,.75,.85h0c.24,.3,.47,.58,.7,.88h0c.23,.31,.45,.61,.66,.92h0c.21,.32,.42,.63,.61,.95h0c.2,.33,.39,.65,.57,.98h0c.09,.17,.17,.33,.25,.49,.07,.13,.14,.26,.21,.39,.03,.06,.06,.12,.09,.19,.14,.28,.27,.56,.39,.86,.08,.17,.16,.36,.22,.53,.1,.21,.18,.42,.26,.63h0c.1,.3,.2,.57,.29,.87,.03,.07,.05,.15,.08,.23,.05,.16,.1,.32,.14,.47,.06,.21,.12,.41,.17,.62h.01v.03c.08,.3,.15,.59,.21,.89,.05,.23,.1,.45,.13,.68,.02,.03,.02,.07,.03,.11,.03,.17,.06,.33,.09,.49v.03c.06,.36,.1,.71,.14,1.08,.03,.25,.05,.49,.07,.74,0,.02,.01,.05,0,.07,.02,.17,.03,.35,.04,.51,.02,.4,.03,.8,.03,1.2V497.35Z"/></g></g></svg>