<?xml version="1.0" encoding="utf-8"?>
<svg xmlns="http://www.w3.org/2000/svg" viewBox="0 0 100 100"><defs><style>.cls-1{fill:#f9f9f9;}.cls-2{fill:none;stroke:#1bc5db;stroke-miterlimit:10;stroke-width:3px;}.cls-3{fill:#fff;}</style></defs><g id="Layer_2" data-name="Layer 2"><circle class="cls-1" cx="50" cy="50" r="50"/><circle class="cls-2" cx="50" cy="50" r="43.53"/><polygon class="cls-1" points="34.22 3.7 31.64 14.16 68.19 14.16 66.75 4.27 56.41 2.38 34.22 3.7"/><polygon class="cls-1" points="34.22 85.52 34.92 94.85 49.88 97.83 66.67 94.13 67.31 85.52 34.22 85.52"/></g><g id="Layer_1" data-name="Layer 1"><path d="M7211.86,7238.78c-1.56.28-3.13.57-4.69.81a40.69,40.69,0,0,1-4.36.58,40.16,40.16,0,0,1-9.36-.33c-1.7-.31-3.4-.66-5.1-1a6.1,6.1,0,0,1-1.35-.5.64.64,0,0,1-.26-.5c0-.82-.06-1.64,0-2.45s.67-1.4,1.74-1.63c.13,0,.25,0,.38,0,1.73-.17,1.36.09,1.83-1.63a52.05,52.05,0,0,0,1.63-10.62,21,21,0,0,0-2.48-10.85c-1.76-3.51-3.59-7-5.32-10.49a59.61,59.61,0,0,1-4.7-13,34,34,0,0,1-.45-11.34,27.49,27.49,0,0,1,2.69-9.52,11.44,11.44,0,0,1,1.53-2.29,4.22,4.22,0,0,0,1-2.51c.23-2.33.5-4.67.77-7a1.85,1.85,0,0,1,2-1.65l13,.1,11.66.07a7.48,7.48,0,0,1,.82,0c.9.08,1.22.39,1.29,1.3.17,2.45.31,4.9.51,7.35a1.7,1.7,0,0,0,.49,1,12.69,12.69,0,0,1,3.23,6,36.43,36.43,0,0,1,.81,14.18,47.93,47.93,0,0,1-2.69,11.43c-1.17,3.14-2.68,6.15-4,9.23a129.53,129.53,0,0,0-4.73,12.13,13.32,13.32,0,0,0-.2,6.24c.53,3.21,1.14,6.4,1.72,9.6.09.48.19.95.24,1.43a.64.64,0,0,0,.63.63,13.65,13.65,0,0,1,2,.47,1.24,1.24,0,0,1,.92,1.29q0,.72,0,1.44c0,.93-.05,1.73-1.1,2.05ZM7200.32,7205l0,.15c.43-.09.87-.15,1.29-.27a10.17,10.17,0,0,0,5.39-3.4,14.07,14.07,0,0,0,2.48-4.62,60.35,60.35,0,0,0,2-7.39c.58-3.6.91-7.25,1.13-10.89a193,193,0,0,0-.1-21.78c-.09-1.55-.64-2.11-2.18-2.12s-3.36,0-5,0c-.19,0-.39,0-.64.06a2.06,2.06,0,0,0,.16.37,22,22,0,0,1,3.24,7.86,49.17,49.17,0,0,1,1.26,8.71,92.73,92.73,0,0,1-.19,14.53,49.2,49.2,0,0,1-2.42,11.81,10.44,10.44,0,0,1-4.43,5.76Zm-7.2-6.93c.69,0,.7,0,.6-.54a4.61,4.61,0,0,0-.19-.73c-.69-2.09-1.42-4.17-2.07-6.27a28.61,28.61,0,0,1-1.32-7.1c-.1-2.29-.18-4.58-.18-6.87a72.2,72.2,0,0,1,2.86-21.32c.15-.47,0-.56-.42-.56-1.33,0-2.65,0-4,0-.58,0-.76.22-.8.77a187.14,187.14,0,0,0-.24,24.61,50.4,50.4,0,0,0,2.35,13.29,26.75,26.75,0,0,0,3.73,7.46c.38.52.82,1,1.23,1.48l.11-.09Zm-1.11,36.43c.17-.46.36-.88.48-1.32a27.1,27.1,0,0,1,5.18-9.14,2,2,0,0,1,.53-.36,1.41,1.41,0,0,1,0,.25c-.25.36-.53.71-.76,1.08a21.49,21.49,0,0,0-3.17,9.84c0,.44.16.55.52.61a23.55,23.55,0,0,0,6.27.31,6.15,6.15,0,0,0,1-.23c-.09-.21-.14-.34-.2-.47-.67-1.23-1.35-2.46-2-3.7a5,5,0,0,1,0-4.66,18.56,18.56,0,0,1,3-4.27c.12-.15.24-.3.4-.48-.14,0-.16,0-.17,0s-.25.16-.36.25a4.64,4.64,0,0,1-4.94.83c-2.65-.88-3.91-4.55-2.22-6.76a1.5,1.5,0,0,0,.14-1.8,4.26,4.26,0,0,0-.69-1.19c-.82-.9-1.7-1.74-2.54-2.62a31.56,31.56,0,0,1-3.13-3.42c-1.12-1.58-2-3.35-3-5-.22-.39-.46-.77-.69-1.16l-.15.08c.43,1,.82,2,1.31,2.95,1.75,3.44,3.57,6.84,5.28,10.3a25.59,25.59,0,0,1,2.07,5c.43,1.72,1.05,3.11,2.69,3.92.4.2.19.43,0,.65-.92,1.15-1.92,2.23-2.74,3.45a24.23,24.23,0,0,0-2.86,5.93C7191,7234.17,7191,7234.23,7192,7234.46Zm-7.42-57.64-.15,0a1.48,1.48,0,0,0-.1.27c-.23,1.45-.57,2.89-.66,4.35a38.68,38.68,0,0,0,2.62,15.59,31.61,31.61,0,0,0,3.91,7.71,14.44,14.44,0,0,0,5,4.6,4.71,4.71,0,0,0,.52.21l.09-.15a18.65,18.65,0,0,1-1.55-1.53,31.27,31.27,0,0,1-4.38-7,48.34,48.34,0,0,1-3.34-10.2,82.89,82.89,0,0,1-1.79-11.94C7184.72,7178.11,7184.65,7177.47,7184.59,7176.82Zm30.09-.09-.25,0c0,.24,0,.49,0,.74-.08,2-.06,4.08-.26,6.1a60.23,60.23,0,0,1-1.06,7.47,50.56,50.56,0,0,1-3.72,10,28.06,28.06,0,0,1-5.06,7.92l-.55.6c.11.05.15.08.19.07a1.59,1.59,0,0,0,.3-.06,8.08,8.08,0,0,0,3.86-2.61,21,21,0,0,0,3.79-6.4,60.5,60.5,0,0,0,2.27-6.6,41.47,41.47,0,0,0,1.12-13C7215.17,7179.57,7214.88,7178.15,7214.68,7176.73Zm-26.35,15.05a4.3,4.3,0,0,0,.05.7c.44,1.88.8,3.78,1.38,5.62a21.16,21.16,0,0,0,3.81,7.39c2.61,3.09,5.18,3.77,8.87,2.58,3-1,4.63-3.32,5.61-6.19,0,0,0-.1-.07-.14a22.13,22.13,0,0,1-1.71,1.77,10.62,10.62,0,0,1-7.65,2.49,6.2,6.2,0,0,1-4.4-2.12,19.28,19.28,0,0,1-3.33-5.53C7190,7196.23,7189.21,7194.06,7188.33,7191.78Zm26.3-28.48a1.74,1.74,0,0,0-.08.42c.12,2.39.24,4.78.39,7.17a1.25,1.25,0,0,0,.36.61c.39.51,1,.95,1.16,1.51a21,21,0,0,1,.89,4.54,59.81,59.81,0,0,1-1.44,15.38c0,.21-.05.44-.08.65a2,2,0,0,0,.42-.8,56.5,56.5,0,0,0,2.46-12,30.45,30.45,0,0,0-1.52-13.22A12.5,12.5,0,0,0,7214.63,7163.3ZM7183,7194.42l.09,0c-.06-.36-.11-.73-.17-1.1l-.06-.31a54,54,0,0,1-1.35-12.55,44.32,44.32,0,0,1,.29-4.46,4.58,4.58,0,0,1,1.46-3.25,2.09,2.09,0,0,0,.79-1.78c.07-1.78.16-3.57.24-5.35,0-.43,0-.85,0-1.28l-.2-.09a26.29,26.29,0,0,0-1.82,2.88,24.19,24.19,0,0,0-2.1,8.57,49,49,0,0,0,2.56,18.22A3.3,3.3,0,0,0,7183,7194.42Zm3.49-6.83h.14c-.21-3.66-.41-7.31-.63-11a81.78,81.78,0,0,1,.26-11.07q.42-5.48.86-11a1.16,1.16,0,0,0-1.14,1.12c-.06.49-.05,1-.08,1.5-.28,4.49-.58,9-.82,13.46a65.84,65.84,0,0,0,.74,12.62C7186,7184.72,7186.28,7186.15,7186.51,7187.59Zm17.19,34.79-.17-.09a5.59,5.59,0,0,0-.74,1c-.63,1.36-1.24,2.74-1.79,4.14a3.38,3.38,0,0,0-.23,1.6,12.4,12.4,0,0,0,1.81,5.11c.63,1,1.33,1.63,2.59,1.24a8.1,8.1,0,0,1,1.21-.15c-.26-.34-.41-.51-.53-.7-.91-1.4-1.91-2.76-2.7-4.22a5.27,5.27,0,0,1-.61-2.52,20,20,0,0,1,.59-3.57A17,17,0,0,1,7203.7,7222.38Zm1.41-3.31-.18,0a11.79,11.79,0,0,1,0,1.88c-.24,1.36-.55,2.71-.89,4.05a7.29,7.29,0,0,0-.12,4.57,23.46,23.46,0,0,0,3.29,5.11.46.46,0,0,0,.42.16c.46-.15.91-.37,1.43-.59l-.54-.62a13.08,13.08,0,0,1-3.06-5.07,14.8,14.8,0,0,1,0-4.88,20.22,20.22,0,0,0,.08-2.58A16.54,16.54,0,0,0,7205.11,7219.07Zm-1.4-.2a4.1,4.1,0,0,0-8.2-.1,4.16,4.16,0,0,0,4.09,4.16A4.11,4.11,0,0,0,7203.71,7218.87Zm8.74,15.95v-.27c-.6-.17-1.21-.34-1.82-.49a.25.25,0,0,0-.19.13c-.42,1-1.37,1.17-2.26,1.37a38.51,38.51,0,0,1-7.58.67,37.18,37.18,0,0,1-8.16-.46c-1-.19-2.14-.38-2.62-1.57a.47.47,0,0,0-.35-.18,8.44,8.44,0,0,0-1.23.28c-.35.12-.41.38-.05.58a7.58,7.58,0,0,0,1.41.67,26.2,26.2,0,0,0,8,1.09c3,0,6.08-.19,9.11-.43a38.59,38.59,0,0,0,4.75-.9A4.22,4.22,0,0,0,7212.45,7234.82Zm-5.27-25.6c-1.11.61-2.06,1.16-3.05,1.66-2,1-4,1.78-6.29,1.16a29.57,29.57,0,0,1-3.4-1.27,18.71,18.71,0,0,1-1.9-1.05C7196.14,7214.53,7202.8,7214.45,7207.18,7209.22Zm-3.27,7.67c2-2,7.22-10.73,7.63-12.85-2.62,4.12-4.62,8.56-9,11Zm-12.19-8.9.13-.1c-3-3.1-4.78-7-6.71-10.77a31.25,31.25,0,0,0,5.62,11l-.33-.94Zm15,2.81-.16-.2a17.18,17.18,0,0,1-6.09,3.57c.35.21.7.26,1,.44a1.19,1.19,0,0,0,1.59-.19c.89-.79,1.78-1.58,2.64-2.4A15.32,15.32,0,0,0,7206.74,7210.8Zm-3.89-1.26-1,.27a5.42,5.42,0,0,1-3.58-.07c-.67-.32-1.28.09-1.89-.16C7197.79,7211.05,7201.7,7211.07,7202.85,7209.54Zm-7.65,13.26-1.72,4.25.12.06,2.64-3.61Z" transform="translate(-7149.39 -7149.5)"/><path d="M7187.77,7241.51a1,1,0,0,0,.55.7c1.27.36,2.21.54,3.66.88a69.09,69.09,0,0,0,7.53.78,46.18,46.18,0,0,0,7.32-.64c1.31-.27,2.64-.46,3.92-.81,1.83-.49,1.66-.08,1.54-2,0-.34-.05-.92-.32-.88l-.33.07c-1.17.24-2.33.53-3.51.71-1.76.26-3.52.52-5.29.65a38.66,38.66,0,0,1-8.8-.22c-2-.29-3.89-.77-5.83-1.2-.4-.08-.5.07-.49.41A10.26,10.26,0,0,0,7187.77,7241.51Z" transform="translate(-7149.39 -7149.5)"/><path d="M7213,7243.48c0-.82-.22-1-1-.78-1.06.26-2.11.55-3.17.79a40.73,40.73,0,0,1-5,.82s-2.42.22-2.43.21a49.69,49.69,0,0,1-7.07-.29c-1.22-.14-4.59-.87-5.69-1.14-.5-.12-1-.34-1.52-.44-.32-.06-.49.1-.52.46a3.69,3.69,0,0,0,3.18,4.07l2.86.44a43.57,43.57,0,0,0,12.23,0c1.37-.18,2.72-.76,4.15-.37a.41.41,0,0,0,.24,0c.63-.23,1.27-.43,1.88-.71C7212.74,7245.82,7213.11,7245.18,7213,7243.48Z" transform="translate(-7149.39 -7149.5)"/><path class="cls-3" d="M7200.32,7205l2-1.22a10.44,10.44,0,0,0,4.43-5.76,49.2,49.2,0,0,0,2.42-11.81,92.73,92.73,0,0,0,.19-14.53,49.17,49.17,0,0,0-1.26-8.71,22,22,0,0,0-3.24-7.86,2.06,2.06,0,0,1-.16-.37c.25,0,.45-.06.64-.06,1.68,0,3.36,0,5,0s2.09.57,2.18,2.12a193,193,0,0,1,.1,21.78c-.22,3.64-.55,7.29-1.13,10.89a60.35,60.35,0,0,1-2,7.39,14.07,14.07,0,0,1-2.48,4.62,10.17,10.17,0,0,1-5.39,3.4c-.42.12-.86.18-1.29.27Z" transform="translate(-7149.39 -7149.5)"/><path class="cls-3" d="M7193.12,7198l1.69,4.12-.11.09c-.41-.49-.85-1-1.23-1.48a26.75,26.75,0,0,1-3.73-7.46,50.4,50.4,0,0,1-2.35-13.29,187.14,187.14,0,0,1,.24-24.61c0-.55.22-.78.8-.77,1.32,0,2.64,0,4,0,.4,0,.57.09.42.56a72.2,72.2,0,0,0-2.86,21.32c0,2.29.08,4.58.18,6.87a28.61,28.61,0,0,0,1.32,7.1c.65,2.1,1.38,4.18,2.07,6.27a4.61,4.61,0,0,1,.19.73C7193.82,7198,7193.81,7198,7193.12,7198Z" transform="translate(-7149.39 -7149.5)"/><path class="cls-3" d="M7192,7234.46c-1-.23-1-.29-.71-1.16a24.23,24.23,0,0,1,2.86-5.93c.82-1.22,1.82-2.3,2.74-3.45.18-.22.39-.45,0-.65-1.64-.81-2.26-2.2-2.69-3.92a25.59,25.59,0,0,0-2.07-5c-1.71-3.46-3.53-6.86-5.28-10.3-.49-1-.88-2-1.31-2.95l.15-.08c.23.39.47.77.69,1.16,1,1.69,1.84,3.46,3,5a31.56,31.56,0,0,0,3.13,3.42c.84.88,1.72,1.72,2.54,2.62a4.26,4.26,0,0,1,.69,1.19,1.5,1.5,0,0,1-.14,1.8c-1.69,2.21-.43,5.88,2.22,6.76a4.64,4.64,0,0,0,4.94-.83c.11-.09.24-.17.36-.25s0,0,.17,0c-.16.18-.28.33-.4.48a18.56,18.56,0,0,0-3,4.27,5,5,0,0,0,0,4.66c.66,1.24,1.34,2.47,2,3.7.06.13.11.26.2.47a6.15,6.15,0,0,1-1,.23,23.55,23.55,0,0,1-6.27-.31c-.36-.06-.56-.17-.52-.61a21.49,21.49,0,0,1,3.17-9.84c.23-.37.51-.72.76-1.08a1.41,1.41,0,0,0,0-.25,2,2,0,0,0-.53.36,27.1,27.1,0,0,0-5.18,9.14C7192.37,7233.58,7192.18,7234,7192,7234.46Z" transform="translate(-7149.39 -7149.5)"/><path class="cls-3" d="M7184.59,7176.82c.06.65.13,1.29.18,1.93a82.89,82.89,0,0,0,1.79,11.94,48.34,48.34,0,0,0,3.34,10.2,31.27,31.27,0,0,0,4.38,7,18.65,18.65,0,0,0,1.55,1.53l-.09.15a4.71,4.71,0,0,1-.52-.21,14.44,14.44,0,0,1-5-4.6,31.61,31.61,0,0,1-3.91-7.71,38.68,38.68,0,0,1-2.62-15.59c.09-1.46.43-2.9.66-4.35a1.48,1.48,0,0,1,.1-.27Z" transform="translate(-7149.39 -7149.5)"/><path class="cls-3" d="M7214.68,7176.73c.2,1.42.49,2.84.59,4.26a41.47,41.47,0,0,1-1.12,13,60.5,60.5,0,0,1-2.27,6.6,21,21,0,0,1-3.79,6.4,8.08,8.08,0,0,1-3.86,2.61,1.59,1.59,0,0,1-.3.06s-.08,0-.19-.07l.55-.6a28.06,28.06,0,0,0,5.06-7.92,50.56,50.56,0,0,0,3.72-10,60.23,60.23,0,0,0,1.06-7.47c.2-2,.18-4.06.26-6.1,0-.25,0-.5,0-.74Z" transform="translate(-7149.39 -7149.5)"/><path class="cls-3" d="M7188.33,7191.78c.88,2.28,1.67,4.45,2.56,6.57a19.28,19.28,0,0,0,3.33,5.53,6.2,6.2,0,0,0,4.4,2.12,10.62,10.62,0,0,0,7.65-2.49,22.13,22.13,0,0,0,1.71-1.77s.09.1.07.14c-1,2.87-2.65,5.23-5.61,6.19-3.69,1.19-6.26.51-8.87-2.58a21.16,21.16,0,0,1-3.81-7.39c-.58-1.84-.94-3.74-1.38-5.62A4.3,4.3,0,0,1,7188.33,7191.78Z" transform="translate(-7149.39 -7149.5)"/><path class="cls-3" d="M7214.63,7163.3a12.5,12.5,0,0,1,2.56,4.27,30.45,30.45,0,0,1,1.52,13.22,56.5,56.5,0,0,1-2.46,12,2,2,0,0,1-.42.8c0-.21,0-.44.08-.65a59.81,59.81,0,0,0,1.44-15.38,21,21,0,0,0-.89-4.54c-.16-.56-.77-1-1.16-1.51a1.25,1.25,0,0,1-.36-.61c-.15-2.39-.27-4.78-.39-7.17A1.74,1.74,0,0,1,7214.63,7163.3Z" transform="translate(-7149.39 -7149.5)"/><path class="cls-3" d="M7183,7194.42a3.3,3.3,0,0,1-.27-.53,49,49,0,0,1-2.56-18.22,24.19,24.19,0,0,1,2.1-8.57,26.29,26.29,0,0,1,1.82-2.88l.2.09c0,.43,0,.85,0,1.28-.08,1.78-.17,3.57-.24,5.35a2.09,2.09,0,0,1-.79,1.78,4.58,4.58,0,0,0-1.46,3.25,44.32,44.32,0,0,0-.29,4.46,54,54,0,0,0,1.35,12.55l.06.31c.06.37.11.74.17,1.1Z" transform="translate(-7149.39 -7149.5)"/><path class="cls-3" d="M7186.51,7187.59c-.23-1.44-.48-2.87-.67-4.31a65.84,65.84,0,0,1-.74-12.62c.24-4.49.54-9,.82-13.46,0-.5,0-1,.08-1.5a1.16,1.16,0,0,1,1.14-1.12q-.44,5.49-.86,11a81.78,81.78,0,0,0-.26,11.07c.22,3.65.42,7.3.63,11Z" transform="translate(-7149.39 -7149.5)"/><path class="cls-3" d="M7203.7,7222.38a17,17,0,0,0-.57,1.8,20,20,0,0,0-.59,3.57,5.27,5.27,0,0,0,.61,2.52c.79,1.46,1.79,2.82,2.7,4.22.12.19.27.36.53.7a8.1,8.1,0,0,0-1.21.15c-1.26.39-2-.25-2.59-1.24a12.4,12.4,0,0,1-1.81-5.11,3.38,3.38,0,0,1,.23-1.6c.55-1.4,1.16-2.78,1.79-4.14a5.59,5.59,0,0,1,.74-1Z" transform="translate(-7149.39 -7149.5)"/><path class="cls-3" d="M7205.11,7219.07a16.54,16.54,0,0,1,.38,2.06,20.22,20.22,0,0,1-.08,2.58,14.8,14.8,0,0,0,0,4.88,13.08,13.08,0,0,0,3.06,5.07l.54.62c-.52.22-1,.44-1.43.59a.46.46,0,0,1-.42-.16,23.46,23.46,0,0,1-3.29-5.11,7.29,7.29,0,0,1,.12-4.57c.34-1.34.65-2.69.89-4.05a11.79,11.79,0,0,0,0-1.88Z" transform="translate(-7149.39 -7149.5)"/><path class="cls-3" d="M7203.71,7218.87a4.11,4.11,0,0,1-4.11,4.06,4.16,4.16,0,0,1-4.09-4.16,4.1,4.1,0,0,1,8.2.1Zm-7.54,0a3.33,3.33,0,0,0,3.45,3.44,3.52,3.52,0,0,0,3.52-3.44,3.61,3.61,0,0,0-3.52-3.55A3.43,3.43,0,0,0,7196.17,7218.83Z" transform="translate(-7149.39 -7149.5)"/><path class="cls-3" d="M7212.45,7234.82a4.22,4.22,0,0,1-1,.49,38.59,38.59,0,0,1-4.75.9c-3,.24-6.07.42-9.11.43a26.2,26.2,0,0,1-8-1.09,7.58,7.58,0,0,1-1.41-.67c-.36-.2-.3-.46.05-.58a8.44,8.44,0,0,1,1.23-.28.47.47,0,0,1,.35.18c.48,1.19,1.6,1.38,2.62,1.57a37.18,37.18,0,0,0,8.16.46,38.51,38.51,0,0,0,7.58-.67c.89-.2,1.84-.36,2.26-1.37a.25.25,0,0,1,.19-.13c.61.15,1.22.32,1.82.49Z" transform="translate(-7149.39 -7149.5)"/><path class="cls-3" d="M7207.18,7209.22c-4.38,5.23-11,5.31-14.64.5a18.71,18.71,0,0,0,1.9,1.05,29.57,29.57,0,0,0,3.4,1.27c2.26.62,4.31-.17,6.29-1.16C7205.12,7210.38,7206.07,7209.83,7207.18,7209.22Z" transform="translate(-7149.39 -7149.5)"/><path class="cls-3" d="M7203.91,7216.89l-1.33-1.81c4.34-2.48,6.34-6.92,9-11C7211.13,7206.16,7205.9,7214.94,7203.91,7216.89Z" transform="translate(-7149.39 -7149.5)"/><path class="cls-3" d="M7191.72,7208l-1.29-.82.33.94a31.25,31.25,0,0,1-5.62-11c1.93,3.78,3.67,7.67,6.71,10.77Z" transform="translate(-7149.39 -7149.5)"/><path class="cls-3" d="M7206.74,7210.8a15.32,15.32,0,0,1-1.05,1.22c-.86.82-1.75,1.61-2.64,2.4a1.19,1.19,0,0,1-1.59.19c-.27-.18-.62-.23-1-.44a17.18,17.18,0,0,0,6.09-3.57Z" transform="translate(-7149.39 -7149.5)"/><path class="cls-3" d="M7202.85,7209.54c-1.15,1.53-5.06,1.51-6.49,0,.61.25,1.22-.16,1.89.16a5.42,5.42,0,0,0,3.58.07Z" transform="translate(-7149.39 -7149.5)"/><path class="cls-3" d="M7195.2,7222.8l1,.7-2.64,3.61-.12-.06Z" transform="translate(-7149.39 -7149.5)"/><path d="M7196.17,7218.83a3.43,3.43,0,0,1,3.45-3.55,3.61,3.61,0,0,1,3.52,3.55,3.52,3.52,0,0,1-3.52,3.44A3.33,3.33,0,0,1,7196.17,7218.83Z" transform="translate(-7149.39 -7149.5)"/></g></svg>