<svg enable-background="new 0 0 1000 1000" height="1000" viewBox="0 0 1000 1000" width="1000" xmlns="http://www.w3.org/2000/svg"><path d="m0 0h1000v1000h-1000z" fill="#d2001e"/><path d="m770.87 540.88c-2.28-8.57-9.37-7.46-15.13-7.94-13.12-1.01-19.27.67-53.49-4.86l-21.77-5.12c-34.85-8.57-64.72-27.86-100.87-39.17-.63.47-2.34 2.22-3.02 2.64-10.21-4.79-25.8-2.42-32-3.95-27.72-13.42-55.43-16.45-60.66-17.42l-.92-.14-1.95-6.66s-80.38-11.84-98.13-13.38h-.02c5.9-36.65 22.87-73.56 31.12-91.71h.03l-.06-.1 22.66 1.68 4.37-9.98h-.03c1.59-3.65 3.5-8.23 6.65-12.71 2.92-4.13 6.28-3.89 7.23-6.91 1.21-3.71-2.77-15.47.1-26.08 1.67-7 4.8-10.67 3.8-16.21-3.24-18-27.47-32.82-43.96-32.83-32.05 0-41.25 27.67-40.46 48.52-33.7-11.36-106.17-2.58-106.17-2.58l-1.83 7.23s-10.85-2.06-16.7 4.16c-21.13 22.62-57 70.3-57 70.3-7.34.14-12.96 4.56-17.55 11.13-4.77 6.83-11.2 8.34-19.3 11.84-3 1.06-1.81 6.85.52 6.98 5.3.59 12.12-2.76 18.2-5.86-3.76 7.2-14.92 12.62-17.89 15.77-.9.95-1.09 1.66-.12 3.3 4.13 6.58 23.23 2.3 31.03-3.27 5.9-4.2 12.3-9.9 12.3-9.9s3.6-12.44 5.73-14.02c12.6-11.38 37.48-32.29 58.98-51.66 38.57 3.2 53.24 3.88 55.33 4.14l-20.29 8.22c-13.21 25.3-26.6 112.13-22.48 122.4.88-.03 4.07-2.68 5.8-2.5-3.07 11.33.13 43.56.13 43.56 2.7 29.9 12.29 69.7 16.22 78.3l7.55 1.64c1.21 10.35 11.8 38.4 17.9 51.77-22.5 1.1-52.4 32.83-77.97 56.18-15.53 14.2-31.62 4.86-35.74 2.32-4.31-2.66-9.59-3.23-13.92.2-.41.37-.86.82-1.29 1.3-.23.12-.34.24-.54.24l-.39-.1-.37-.22c-.73-.48-1.9.08-2.6 1.25l-1.6 2.53c-.75 1.16-.76 2.48 0 2.96l.86.6a71.55 71.55 0 0 0 -2.17 4.88l-.72-.24c-.82-.3-1.82.52-2.3 1.82l-.98 2.84c-.46 1.3-.2 2.59.64 2.9l.67.25c-4.2 10.45-13.23 15.43-17.92 26.55l-.96-.37c-.84-.27-1.83.54-2.3 1.86l-.99 2.81c-.44 1.3-.19 2.6.6 2.9l1.01.36a58.72 58.72 0 0 0 -1.67 8.79l-1.13-.06c-.84-.05-1.58 1.04-1.64 2.42l-.12 3c-.07 1.4.57 2.55 1.43 2.59l.94.04c-.11 2.63-.17 7.4-.05 10.35.3 6.38 11 9.48 14.05 3.54 26.32-51.27 107.65-62.29 173.25-94.52-.35-1.07-1.23-2.4-1.53-3.77a138.93 138.93 0 0 0 15.83-9.09l.11.1c3-1.72 5.6-3.4 7.56-4.92 6.25-4.86 9.17-9.65 10.3-14.8.33-1.45.52-2.92.6-4.43a99 99 0 0 0 .25-3.42c-.4-15.98-1-39.04-3.52-62.42 1.28-.15 5.64-1.44 5.64-1.44l-5.3-48.43-16.5-8.23 107.88.51s.18-.98 1.49-5.5c30.7 1.17 39.16.77 67.34 1.63 12.99.16 18.71 10 29.26 12.63 33.5 8.44 51.2-2.93 103.49 7.29 0 0 .08-.12 1.35.53 4.39 1.36 2.68 13.63 5.44 19.36 4.29 8.13 10.17 7.21 15.55 5.02l.69 1.5c.36.8 1.64.96 2.89.37l2.67-1.26c1.26-.6 1.95-1.7 1.6-2.49l-.72-1.56 3.81-1.88.7 1.53c.34.77 1.65.95 2.88.38l2.7-1.28c1.21-.59 1.95-1.7 1.55-2.47l-.66-1.55c11.88-5.6 23.37-10.81 33.67-15.75l.48 1.03c.37.8 1.65.97 2.9.38l2.67-1.26c1.25-.58 1.95-1.71 1.59-2.5l-.53-1.14 3.32-1.66.55 1.09c.38.77 1.68.9 2.9.27l2.63-1.36c1.23-.61 1.9-1.78 1.5-2.53l-.58-1.18 1.75-.99c2.89-2.16 4.3-3.27 3.87-4.9m83.41-98.74a44.16 44.16 0 0 0 -31.66-13.32 44.1 44.1 0 0 0 -31.65 13.32c-17.52 17.88-17.54 46.66 0 64.49a44.01 44.01 0 0 0 31.65 13.34c11.47 0 22.91-4.4 31.66-13.34 17.5-17.8 17.5-46.6 0-64.5" fill="#fff"/></svg>