<?xml version="1.0" encoding="utf-8"?>
<!-- Generator: Adobe Illustrator 25.2.1, SVG Export Plug-In . SVG Version: 6.00 Build 0)  -->
<svg version="1.1" id="Layer_1" xmlns="http://www.w3.org/2000/svg" xmlns:xlink="http://www.w3.org/1999/xlink" x="0px" y="0px"
	 viewBox="0 0 100 100" style="enable-background:new 0 0 100 100;" xml:space="preserve">
<style type="text/css">
	.st0{fill:transparent;}
	.st1{fill:#405463;}
	.st2{fill:#D32C20;}
	.st3{fill:#183E79;}
	.st4{fill:#138DC5;}
	.st5{fill:#F4C51D;}
	.st6{fill:#119144;}
	.st7{fill:#FFFFFF;}
	.st8{fill:#CED1D2;}
</style>
<g>
	<circle class="st0" cx="49.9" cy="50" r="49.3" fill="transparent"/>
</g>
<path class="st1" d="M22.2,20.3c0-0.2-0.2-0.3-0.4-0.2c-0.6,0.3-1.7,0.9-2.6,2c-0.2,0.2-0.3,0.5-0.3,0.8v64.4c0,0.3,0.1,0.6,0.4,0.8
	l2.4,2c0.2,0.1,0.5,0,0.5-0.2V20.3z"/>
<path class="st2" d="M31.7,34.1l-0.1-0.2c1.2-1.9,2.4-3.9,3.5-5.8c1.2-2,2.3-3.9,3.5-5.7L39,22l0.4,0.1c2.6,1.7,5.2,3.8,7.7,6l0,0.2
	l-0.4,0.2c-3.5,0.2-7.9,2.3-12.1,4.4c-0.8,0.4-1.7,0.8-2.5,1.2L31.7,34.1z"/>
<path class="st2" d="M70.8,36c-2.7,0-5.7-0.7-9.2-2.2l-0.5-0.4l0-0.2c1.7-1.6,3.1-2.8,4.4-4.3l0.3-0.1l0.4,0.2
	c2.2,2.3,4.8,4.3,7.7,6.3l0,0.2l-0.3,0.2C72.8,35.9,71.8,36,70.8,36z"/>
<path class="st3" d="M74.7,46.9c-1,0-1.9-0.4-2.4-1.2c-0.5-0.7-0.8-1.5-0.9-2.3l0.2-0.2l0.2-0.2c0.3,0,0.5,0,0.8,0
	c2.1,0,4.1-0.4,6.1-1.1l0.2,0.1l0.2,0.1c0,1-0.3,2-1,2.9C77.2,46.2,76,46.9,74.7,46.9z"/>
<path class="st4" d="M71.5,43.2l-0.2,0.2c-0.9-0.1-1.7-0.1-2.7-0.3l-0.4-0.2l0-0.2c2-2,3.8-4.3,5.5-7l0.3-0.2l0.4,0.1
	c2.5,1.6,5,3.1,7.8,4.6l0.1,0.3l-0.5,0.5c-0.9,0.5-1.9,0.9-3,1.3l-0.2-0.1L78.6,42c-0.1-1.2-0.7-2.2-1.7-2.8c-0.4-0.3-1-0.4-1.5-0.4
	c-1.1,0-2.1,0.6-2.8,1.5c-0.6,0.8-0.9,1.8-0.8,2.8L71.5,43.2z"/>
<path class="st3" d="M71,51c-2.7,0-5.2-0.7-8.4-2.5l-0.5-0.4l0-0.2c2-1.4,3.9-2.9,5.9-4.8l0.3-0.1l0.4,0.2c2.3,2.7,4.5,4.9,6.7,6.8
	l0,0.3L75,50.5C73.5,50.8,72.2,51,71,51L71,51z"/>
<path class="st5" d="M68,43c-0.8-0.1-1.7-0.4-2.7-0.6l-0.2-0.2l-0.2-0.2c-0.1-0.8-0.5-1.7-1.1-2.5c-1.1-1.7-2.5-2.7-3.5-2.7
	c-0.4,0-0.7,0.1-0.9,0.3c-0.5,0.4-0.7,1.3-0.5,2.4l-0.1,0.1l-0.1,0.1c-0.9-0.4-1.7-0.9-2.5-1.3l-0.6-0.5l0-0.2
	c2-1.5,3.6-2.7,5.3-4.1l0.3,0l0.5,0.4c2.3,3.4,4.5,6.3,6.7,8.9l0,0.2L68,43z"/>
<path class="st3" d="M63.4,45c-1.2,0-2.8-1.1-3.9-2.8c-0.5-0.7-0.8-1.6-1-2.5l0.1-0.1l0.1-0.1c1.5,0.7,3.7,1.7,6,2.5l0.2,0.2
	l0.2,0.2c0.1,1-0.3,1.9-1,2.3C64.1,44.9,63.8,45,63.4,45"/>
<path class="st2" d="M23.9,44.1c2.9-2.7,5.1-6.1,7.3-9.7l0.4-0.4l0.4,0c2.2,1.2,4.7,2.5,7.5,3.9l0.1,0.2l-0.5,0.5
	c-1,0.7-2.1,1.3-3.1,1.8l-0.2-0.1l-0.2-0.1c0-1.1-0.4-2-1.3-2.4c-0.3-0.1-0.6-0.2-1-0.2c-1.2,0-3,1-4.6,3.2c-0.5,0.7-0.9,1.6-1,2.6
	l-0.2,0.2l-0.2,0.2c-1.2,0.3-2.2,0.5-3.4,0.7l-0.4-0.1L23.9,44.1z"/>
<path class="st3" d="M32.2,50.7l0-0.2c2.2-3.2,3.9-6.2,5.3-8.8c0.6-1.1,1.1-2.1,1.7-3l0.5-0.5l0.3,0c3.9,1.9,6.4,3.4,8.6,5.1l0,0.2
	l-0.5,0.2c-3.7,0.6-7.2,2.6-10.4,4.4c-1.8,1-3.5,2-5.1,2.6L32.2,50.7z"/>
<path class="st6" d="M32.2,67.4l0-0.2c3-3.9,5.2-8,7.3-11.9l0.5-0.5l0.3,0c3,1.3,5.8,2.9,8.3,4.7l0,0.2l-0.5,0.3
	c-2.6,0.7-5,2.1-7.7,3.7c-2.5,1.5-5.1,3-7.9,3.9L32.2,67.4z"/>
<path class="st7" d="M48,56.1c-1.1,0-2-0.3-2.8-1c-0.8-0.6-1.2-1.6-1.2-2.7l0.2-0.3l0.2-0.3c2-0.9,4-1.3,5.9-1.3
	c0.7,0,1.3,0.1,2,0.2l0.2,0.2l0.2,0.2c0.1,1.3-0.3,2.6-1.2,3.6C50.6,55.6,49.3,56.1,48,56.1"/>
<path class="st2" d="M39.9,54.5c2.3-4.3,4.9-7.7,8.2-10.8l0.5-0.2l0.4,0.1c2.6,2.2,4.9,4.9,7.3,8.7l0,0.3l-0.3,0
	c-1-0.5-2.1-1.1-3.3-1.3L52.5,51l-0.2-0.2c-0.2-0.8-0.4-1.4-0.8-2c-0.6-0.9-1.6-1.4-2.6-1.4c-1.1,0-2.3,0.6-3.2,1.5
	c-0.8,0.9-1.3,1.9-1.4,3l-0.2,0.3L44,52.5c-1.1,0.5-2.4,1.3-3.7,2.3l-0.3,0L39.9,54.5z"/>
<path class="st4" d="M63.8,59.9c-1.1,0-2.6-1.3-3.8-3.1c-0.5-0.9-0.9-1.8-1-2.6l0.1-0.1l0.2-0.1c1.8,1,3.8,1.9,5.9,2.6l0.2,0.2
	l0.2,0.2c0,1.2-0.4,2.2-1,2.7C64.4,59.9,64.1,59.9,63.8,59.9"/>
<path class="st6" d="M32.1,67.1c-3-1.8-5.6-3.9-8-6.6l-0.4-0.1v8l0.1,0.2c0.5,0.1,1,0.1,1.5,0.1l0,0c1.8,0,3.9-0.4,6.3-1l0.4-0.3
	L32.1,67.1z"/>
<path class="st6" d="M62.6,62.8c-2.6-1.5-6.1-3.4-10.4-3.4c-1,0-2.1,0.1-3.2,0.3l-0.4-0.1l0-0.2c2-2.3,4.4-4.5,7.3-6.9l0.3,0
	l0.4,0.4c2.3,3.6,4.2,6.8,6.3,9.7l0,0.2L62.6,62.8z"/>
<path class="st6" d="M81.5,54.8l-0.4,0.4c-1.4,3.1-3.1,6.2-5,9.1l0,0.2l0.4,0.1c1.7-0.4,3.6-1.2,5.4-2.1l0.1-0.2
	C81.6,59.6,81.4,57.1,81.5,54.8"/>
<path class="st6" d="M71.5,65.3c-2.9,0-5.6-0.7-8.1-2l-0.5-0.5l0-0.2c2-1.5,3.8-3.1,5.5-4.8l0.4-0.1l0.4,0.2
	c2.2,2.5,4.5,4.7,6.9,6.5l0,0.2l-0.4,0.2C74.4,65.1,72.9,65.3,71.5,65.3L71.5,65.3z"/>
<path class="st7" d="M31.9,80.4c-0.8,0-1.6-0.3-2.3-0.7c-0.9-0.6-1.5-1.7-1.7-2.8l0.1-0.2l0.2-0.2c2.8-0.2,5.6-0.9,8.2-2.1l0.2,0.1
	l0.2,0.1c0,1-0.3,2.2-1,3.3C34.9,79.5,33.5,80.4,31.9,80.4L31.9,80.4z"/>
<path class="st7" d="M64,39.3c-1.5-2.2-3.5-3.5-4.7-2.4c-0.6,0.5-0.7,1.5-0.5,2.6c1.9,1,4.2,1.9,6.4,2.6C65,41.3,64.6,40.3,64,39.3"
	/>
<path class="st7" d="M65.4,74.1c-1.1,0-2.8-0.9-3.8-2.5c-0.6-0.9-1-2-1.2-2.9l0.1-0.1l0.1-0.1c1.1,0.4,2,0.9,2.9,1.3
	c1.1,0.5,2.1,1,3.1,1.4l0.2,0.3l0.2,0.2c0,1-0.3,1.9-0.9,2.3C66,74,65.7,74.1,65.4,74.1z"/>
<path class="st7" d="M75.2,61.2c-0.7,0-1.5-0.3-2-0.7c-0.8-0.6-1.2-1.5-1.3-2.5l0.2-0.2l0.2-0.2c2.1-0.1,4.2-0.6,6.4-1.5l0.2,0.1
	l0.2,0.1c0,1-0.3,2.2-0.8,3.1C77.4,60.5,76.4,61.2,75.2,61.2z"/>
<path class="st3" d="M61.8,48.1c-0.4-0.2-0.8-0.5-1.2-0.7c-3-1.7-6.7-3.9-10.6-3.9c-0.3,0-0.7,0-1,0l-0.4-0.1l0-0.2
	c2.2-2.1,4.5-3.7,6.7-5.4l0.3,0l0.6,0.5c1.5,2.1,2.9,4.4,4.4,6.8c0.5,0.9,1.1,1.8,1.6,2.6l0,0.2L61.8,48.1z"/>
<path class="st5" d="M56.2,52.5c-1.2-0.6-2.4-1.2-3.8-1.5c0.2,1.4-0.2,2.7-1.2,3.7c-1.4,1.4-4.2,1.8-6,0.4c-0.8-0.6-1.2-1.7-1.2-2.8
	c-1.3,0.6-2.8,1.5-4.2,2.5c3.3,1.4,6.1,3.1,8.7,4.9C50.6,57.4,53,55,56.2,52.5"/>
<path class="st3" d="M23.9,60.1c3.3-3,5.6-6,7.8-9l0.5-0.4l0.4,0c2.5,1.5,5.1,2.8,7.3,3.8l0.1,0.2l-0.5,0.5c-1.1,0.8-2.2,1.5-3.2,2
	l-0.2-0.1l-0.2-0.1c0-1-0.4-1.7-1.2-2.1c-0.4-0.3-0.9-0.4-1.5-0.4c-1.3,0-2.8,0.8-4,2.3c-0.7,0.8-1.2,1.9-1.3,2.9L27.8,60l-0.2,0.2
	c-1.2,0.2-2.2,0.3-3.5,0.3l-0.4-0.1L23.9,60.1z"/>
<path class="st3" d="M24.6,52.6c-0.2,0-0.4,0-0.6,0l-0.1-0.2v-8l0.4,0.1c2.1,2,5,4.1,7.9,5.9l0,0.2l-0.5,0.4
	C29,52.1,26.6,52.6,24.6,52.6"/>
<path class="st2" d="M68.3,29c-0.6,0-1.3,0-1.9-0.1L66,28.7l0-0.3c1.5-1.8,3.3-4,4.9-7.3l0.4-0.2l0.4,0.1c2,1.4,5.1,2.9,7.7,3.9
	l0.2,0.2L79,25.6c-0.8,0.6-1.7,1.1-2.6,1.6l-0.2-0.1L76.1,27c-0.2-1.1-1-2-2-2.5c-0.4-0.2-0.8-0.3-1.2-0.3c-1.2,0-2.4,0.8-3,2.1
	c-0.4,0.8-0.5,1.6-0.4,2.4l-0.1,0.2L69.2,29C68.9,29,68.6,29,68.3,29"/>
<path class="st3" d="M70,72.1c-1-0.1-1.9-0.2-3-0.6l-0.2-0.2L66.7,71c-0.1-0.6-0.4-1.5-1.2-2.5C64.3,67,62.9,66,61.9,66
	c-0.4,0-0.7,0.1-0.9,0.3c-0.4,0.3-0.5,1.1-0.3,2l-0.1,0.1l-0.1,0.1c-0.9-0.4-1.7-0.7-2.7-0.9l-0.5-0.3l0-0.2
	c1.9-1.7,3.7-3.1,5.4-4.3l0.3,0l0.5,0.5c2.4,3.4,4.7,6.1,7,8.5l0,0.2L70,72.1z"/>
<path class="st3" d="M71.3,57.9c-0.7,0-1.4-0.1-2.1-0.1l-0.4-0.2l0-0.2c2.1-2.1,4.1-4.3,6.2-6.9l0.4-0.3l0.3,0.1
	c1.7,1.5,3.6,2.9,5.6,4.2l0.1,0.3l-0.4,0.4c-0.7,0.4-1.5,0.8-2.2,1.1l-0.2-0.1l-0.2-0.1c-0.1-0.8-0.4-1.4-0.8-1.9
	c-0.5-0.4-1.1-0.7-1.7-0.7c-1,0-2.1,0.6-2.9,1.6c-0.6,0.7-0.9,1.6-0.9,2.4l-0.2,0.2l-0.2,0.2C71.7,57.9,71.5,57.9,71.3,57.9
	L71.3,57.9z"/>
<path class="st3" d="M82.4,40.3l-0.5,0.5c-2.6,3.8-4.7,6.7-6.5,9.1l0,0.3l0.3,0.1c2.1-0.6,4.3-1.5,6.1-2.5l0.2-0.3
	C82.3,45.2,82.5,42.8,82.4,40.3"/>
<path class="st3" d="M30.3,47.2c-0.6,0-1.1-0.2-1.6-0.5c-0.7-0.5-1.1-1.6-1.1-2.8l0.2-0.2l0.2-0.2c2.5-0.8,5.1-1.7,7.8-3.1l0.2,0.1
	l0.2,0.1c-0.1,1-0.4,2.2-1.1,3.3C33.6,45.9,31.9,47.2,30.3,47.2z"/>
<path class="st3" d="M48,40.4c-1.2,0-2.5-0.5-3.3-1.3c-0.8-0.8-1.3-1.7-1.3-2.8l0.2-0.2l0.2-0.2c1.4-0.5,2.7-0.7,4.1-0.7
	c1.3,0,2.5,0.2,3.8,0.6l0.2,0.2l0.2,0.2c0.1,1.2-0.3,2.2-1.1,3C50.3,40,49.2,40.4,48,40.4z"/>
<path class="st2" d="M23.8,36.4v-8l0.4,0.1c2,1.8,4.6,3.6,7.5,5.3l0.1,0.2l-0.4,0.4c-3,1.4-5.6,2.1-7.3,2.2L23.8,36.4z"/>
<path class="st2" d="M68.8,57.6l-0.4,0.1c-0.9-0.1-1.9-0.4-2.9-0.7l-0.2-0.2l-0.2-0.2c-0.1-0.8-0.4-1.6-0.8-2.3
	c-1.2-2.1-2.7-2.9-3.5-2.9c-0.4,0-0.8,0.2-1.1,0.5c-0.4,0.4-0.6,1.2-0.5,2.1l-0.2,0.1l-0.1,0.1c-0.4-0.2-0.9-0.5-1.3-0.7
	c-0.4-0.2-0.7-0.4-1.1-0.6l-0.4-0.4l0-0.3c1.7-1.4,3.3-2.5,4.9-3.7c0.2-0.2,0.4-0.3,0.6-0.5l0.3,0l0.5,0.4c1.6,2.6,3.8,5.8,6.3,8.9
	L68.8,57.6z"/>
<path class="st2" d="M40.7,72l-0.1-0.2c2-3.9,3.9-7.7,7.5-11.9l0.5-0.3l0.4,0.1c3,2.1,5.7,4.6,8.2,7.4l0,0.2l-0.3,0.1
	c-1-0.3-2.2-0.4-3.5-0.4l-0.2-0.2L53,66.7c-0.1-0.9-0.5-1.7-1.2-2.3c-0.7-0.6-1.4-0.9-2.1-0.9c-1.4,0-2.8,1-3.8,2.6
	c-0.6,0.9-1,1.9-1,2.8l-0.2,0.3l-0.2,0.3c-1.2,0.7-2.4,1.6-3.5,2.4L40.7,72z"/>
<path class="st2" d="M60.9,33.4c-1-0.4-2-0.9-2.9-1.4c-3.4-1.7-6.9-3.4-10.5-3.6l-0.4-0.2l0-0.2c2.1-2.2,4.8-4,6.7-5.3l0.3,0
	l0.6,0.6c1.8,2.4,3.3,4.9,4.7,7c0.6,1,1.2,1.9,1.8,2.8l0,0.2L60.9,33.4z"/>
<path class="st2" d="M79.4,25L79,25.6c-1.7,3.8-3.3,7-4.9,9.6l0,0.2l0.4,0.1c2.2-0.6,4.7-1.3,6.8-2.6l0.1-0.3c0,0,0,0,0,0
	C80.8,29.5,79.9,27,79.4,25"/>
<path class="st7" d="M30.1,30.5c-0.6,0-1.2-0.2-1.8-0.6c-0.6-0.4-0.9-1.3-0.9-2.3l0.2-0.2l0.2-0.2c1.9-0.7,3.4-1.6,4.9-2.4
	c0.8-0.5,1.7-0.9,2.5-1.4l0.2,0.1l0.2,0.1c0.1,1.1-0.3,2.5-0.9,3.6C33.5,29.2,31.8,30.5,30.1,30.5L30.1,30.5z"/>
<path class="st7" d="M77.5,75.2c-0.8,0-1.6-0.2-2.2-0.7c-0.9-0.6-1.4-1.5-1.6-2.4l0.1-0.2l0.2-0.2c2.4-0.3,4.6-1,6.5-1.6l0.2,0.1
	l0.2,0.1c0.3,1.1,0.1,2.4-0.4,3.4C79.9,74.6,78.8,75.2,77.5,75.2"/>
<path class="st4" d="M39.7,38.2l-0.1-0.2c2.3-3.8,4.6-6.9,7.1-9.5l0.4-0.2l0.4,0.2c3.1,2.9,5.7,5.8,8.1,9.1l0,0.2l-0.3,0
	c-1.2-0.7-2.1-1.2-3.2-1.6L51.8,36l-0.2-0.2c-0.1-0.8-0.5-1.6-1.1-2.2c-0.9-1-2-1.6-3.1-1.6c-1,0-1.9,0.4-2.6,1.3
	c-0.6,0.7-1,1.7-1.1,2.6l-0.2,0.2l-0.2,0.2c-1.2,0.4-2.2,1-3.4,1.8L39.7,38.2z"/>
<path class="st4" d="M71.4,72.1c-0.2,0-0.4,0-0.6,0L70.4,72l0-0.2c1.9-2,3.7-4.3,5.4-7l0.4-0.2l0.4,0.1c2.2,1.6,4.7,3,7.3,4.1
	l0.3,0.3l-0.3,0.2c-0.6,0.2-1.2,0.4-1.9,0.7c-0.3,0.1-0.6,0.2-0.9,0.3l-0.2-0.1L80.5,70c-0.3-0.8-0.8-1.4-1.5-1.8
	c-0.6-0.3-1.2-0.5-1.8-0.5c-1,0-2,0.5-2.6,1.4c-0.5,0.7-0.7,1.6-0.6,2.5l-0.2,0.2L73.7,72C72.9,72.1,72.2,72.1,71.4,72.1L71.4,72.1z
	"/>
<path class="st6" d="M73,32.2c-0.8,0-1.6-0.3-2.4-1c-0.7-0.6-1.2-1.4-1.4-2.3l0.1-0.2l0.1-0.2c2.4-0.1,4.6-0.7,6.6-1.6l0.2,0.1
	l0.2,0.1c0.1,0.8,0,1.6-0.3,2.3C75.5,31.2,74.3,32.2,73,32.2z"/>
<path class="st4" d="M77.9,54.1c-1.4-1.2-3.4-0.8-4.9,1c-0.6,0.8-1,1.7-1,2.7c2.1-0.1,4.3-0.6,6.7-1.6
	C78.7,55.3,78.4,54.6,77.9,54.1"/>
<path class="st3" d="M64.5,59.6c-1.1,0.7-3-0.8-4.3-2.9c-0.5-0.9-0.9-1.8-1-2.7c-1-0.5-2-1.1-3-1.6c2.4,3.8,4.5,7.2,6.7,10.3
	c2.1-1.5,3.9-3.2,5.9-5.2c-1.2-0.2-2.3-0.4-3.4-0.8C65.5,58.1,65.2,59.1,64.5,59.6"/>
<path class="st5" d="M44.8,33.1c-0.7,0.8-1.1,1.9-1.2,2.9c2.9-1,5.6-1,8.3-0.1c-0.1-0.9-0.5-1.8-1.2-2.5
	C48.9,31.4,46.4,31.2,44.8,33.1"/>
<path class="st5" d="M48.3,72.7c-0.6,0-1.1-0.1-1.7-0.4c-1.3-0.6-2-1.6-2.1-2.9l0.2-0.3l0.2-0.3c2.8-1.5,5.5-2.2,8.2-2.2l0.2,0.2
	l0.2,0.2c0.1,1.2-0.3,2.4-1.1,3.4C51.2,71.9,49.7,72.7,48.3,72.7z"/>
<path class="st5" d="M79.2,68.1c-1.8-1-3.6-0.5-4.6,1c-0.5,0.7-0.8,1.7-0.6,2.8c2.6-0.3,4.9-1,6.9-1.7C80.5,69.3,80,68.6,79.2,68.1"
	/>
<path class="st5" d="M78.7,77.8c-0.6-0.3-4.3-2.1-7.9-5.7L70.4,72L70,72.1c-2,2.1-3.8,3.7-5.9,5l-0.1,0.3c4.1,2.3,8.8,2.5,14.6,0.7
	L78.7,77.8z"/>
<path class="st5" d="M50.3,75.9c-1.4-0.6-2.9-1.3-4.4-2c-1.6-0.7-3.2-1.2-4.8-2l-0.3,0l-0.5,0.5c-0.1,0.3-0.3,0.5-0.4,0.8
	c-1.7,3.5-3.5,6.9-6.9,10.7l0,0.2c8.1-1.6,10.7-5.1,17.3-8.1L50.3,75.9z"/>
<path class="st6" d="M26.5,76.7c-0.8,0-1.5-0.1-2.3-0.1l-0.4-0.2l0.1-0.3c3.4-2.8,5.6-5.5,7.8-8.4l0.4-0.3l0.4,0
	c2.2,1.3,4.7,2.8,8.1,4.3l0.1,0.2l-0.5,0.5c-1,0.7-2.2,1.4-3.4,2l-0.2-0.1l-0.2-0.1c-0.1-1.1-0.7-2-1.6-2.4
	c-0.5-0.3-1.1-0.4-1.7-0.4c-1.6,0-3.3,0.9-4.2,2.3c-0.5,0.8-0.8,1.7-0.8,2.6l-0.2,0.2l-0.1,0.2C27.4,76.8,27,76.7,26.5,76.7"/>
<path class="st6" d="M39.7,38.2c-1.3,0.8-2.5,1.6-3.8,2.2c0,1-0.4,2.1-1.1,3.3c-1.8,2.9-4.3,4.1-6,2.8c-0.8-0.6-1.1-1.7-1-2.9
	c-1.4,0.4-2.5,0.6-4,0.8c1.9,1.9,4.8,4.2,8.4,6.3C35.6,45.9,37.6,41.5,39.7,38.2"/>
<path class="st6" d="M53.8,22.8c-0.9-0.5-1.9-0.9-3.2-1.3l-0.2-0.2l-0.2-0.2c-0.2-0.8-0.6-1.5-1.1-2.2c-0.9-1-1.9-1.6-2.9-1.6
	c-0.8,0-1.5,0.3-2.1,0.9c-0.6,0.6-1,1.6-1,2.6l-0.2,0.2l-0.2,0.2c-1,0.2-2,0.4-3.3,0.8L39,22l0-0.2c2.4-3.7,4.6-6.1,6.7-7.5l0.4-0.1
	l0.6,0.2c2.2,1.8,4.8,4.6,7.5,8.2l0,0.2L53.8,22.8z"/>
<path class="st6" d="M77.8,45c-1.3,2-4,2.3-5.3,0.6c-0.5-0.7-0.8-1.5-0.9-2.4c-1.2-0.1-2.1-0.1-3.2-0.3c2.3,2.7,4.6,5.2,7.1,7.3
	c2.1-2.7,4.4-6,7-9.9c-1.2,0.8-2.6,1.3-3.7,1.7C78.8,43,78.5,44,77.8,45"/>
<path class="st5" d="M57.7,67.7l-0.5-0.3l-0.3,0.1c-2.7,2.5-4.8,5.3-6.6,8.4l0.1,0.2c6-2.7,11.3-0.1,13.8,1.3l0.1-0.3
	C62.5,73.7,60.2,70.6,57.7,67.7"/>
<path class="st5" d="M30.9,63.7c-0.8,0-1.6-0.3-2.2-0.8c-0.7-0.6-1.1-1.5-1-2.7l0.2-0.2l0.2-0.2c2.8-0.5,5.3-1.4,7.9-2.7l0.2,0.1
	l0.2,0.1c0,1.2-0.5,2.6-1.4,4C33.8,62.8,32.4,63.7,30.9,63.7"/>
<path class="st3" d="M45.6,48.9c-0.9,1-1.4,2.2-1.4,3.3c3-1.3,5.7-1.7,8.3-1.2c-0.1-0.7-0.4-1.6-0.9-2.3
	C50.1,46.7,47.4,46.9,45.6,48.9"/>
<path class="st5" d="M84.1,69l-0.3,0.2c-1.1,3-3.1,6.4-5.1,8.6l0,0.2c5.2-1.7,8.5-1.9,8.5-1.9S85.7,72.7,84.1,69"/>
<path class="st5" d="M32.9,84c-3-2.1-5.9-4.4-8.7-7.4l-0.4-0.2v7.6c0,0,4,1.3,9.2,0.3L32.9,84z"/>
<path class="st3" d="M35,71.7c-2.1-1.1-4.8,0.1-6.1,2c-0.6,0.9-0.9,2-0.8,2.9c3.3-0.2,6.2-1.1,8.6-2.2C36.6,73.2,36,72.2,35,71.7"/>
<path class="st2" d="M36.7,74.4c0.1,1-0.2,2.1-1,3.3c-1.7,2.8-4.3,2.9-6,1.7c-0.9-0.6-1.5-1.7-1.6-2.9c-1.4,0.1-2.7,0-4.3-0.2
	c2.6,2.8,5.6,5.4,9.2,7.8c4-4.4,5.8-8.4,7.7-12.2C39.6,72.8,38.2,73.7,36.7,74.4"/>
<path class="st2" d="M80.4,73.5c-0.9,1.6-3.3,2-4.9,0.8c-1-0.7-1.4-1.6-1.6-2.5C72.7,72,71.6,72,70.4,72c4.2,4.1,8.3,6,8.3,6
	c2-2.1,4.2-5.7,5.3-9c-1,0.3-2,0.7-3.3,1.1C81.1,71.2,81,72.5,80.4,73.5"/>
<path class="st2" d="M34.8,54.8c-1.7-1-3.9-0.1-5.7,1.9c-0.8,1-1.3,2.2-1.3,3.3c2.8-0.5,5.4-1.3,8.2-2.8
	C36.1,56.2,35.7,55.4,34.8,54.8"/>
<path class="st2" d="M47.3,25.3c-1.1,0-2.3-0.4-3.2-1.2c-0.9-0.7-1.4-1.7-1.5-2.9l0.2-0.2l0.2-0.2c1.2-0.2,2.3-0.3,3.3-0.3
	c1.3,0,2.6,0.2,3.8,0.5l0.2,0.2l0.2,0.2c0.2,1.1-0.1,2.1-0.8,2.8C49.1,25,48.3,25.3,47.3,25.3L47.3,25.3z"/>
<path class="st7" d="M52,64.3c-2-1.8-4.6-0.8-6.2,1.8c-0.7,1.1-1.1,2.2-1.1,3.1c2.8-1.6,5.6-2.4,8.6-2.3
	C53.1,65.9,52.7,64.9,52,64.3"/>
<path class="st5" d="M64.6,54.2c-1.2-2-3.3-4-4.9-2.4c-0.5,0.5-0.7,1.4-0.5,2.3c1.9,1,4,2,6.2,2.8C65.4,56,65.1,55,64.6,54.2"/>
<path class="st4" d="M66.1,73.7c-0.9,0.6-3.1-0.3-4.4-2.3c-0.6-1-1.1-2-1.2-3c-1-0.4-2-0.8-3.3-1.1c3.1,3.6,5.4,7.1,6.9,10
	c2.3-1.4,4.3-3.2,6.3-5.4c-1.3-0.1-2.4-0.3-3.5-0.7C67,72.4,66.7,73.3,66.1,73.7"/>
<path class="st7" d="M31.7,34.1c2.9,1.6,5.8,3,8,4.1c2.3-3.9,4.8-7.1,7.4-9.8C42.7,28.3,36.9,31.6,31.7,34.1"/>
<path class="st7" d="M62.1,48.1c2,3.2,4.1,6.5,6.8,9.5c2.1-2.1,4.3-4.4,6.6-7.4C70.4,51.5,66.9,50.8,62.1,48.1"/>
<path class="st8" d="M81.5,32.7C81.5,32.7,81.5,32.7,81.5,32.7c-2.3,1.4-5,2.2-7.4,2.7c2.6,1.7,5.3,3.3,8.3,4.9
	C82.4,37.4,82,34.8,81.5,32.7L81.5,32.7z"/>
<path class="st8" d="M84.1,69c-1-2.3-1.6-4.6-2-6.8c-1.7,0.9-3.9,1.8-5.9,2.3C78.5,66.2,81.1,67.7,84.1,69"/>
<path class="st8" d="M81.5,54.8c0-3.1,0.3-5.6,0.6-7.3c-2.1,1.2-4.7,2.2-6.6,2.7C77.3,51.9,79.3,53.4,81.5,54.8"/>
<path class="st7" d="M61.2,33.4c2.4,3.6,4.8,6.7,7.1,9.5c1.9-1.9,3.8-4.3,5.8-7.5C70.2,36.4,65.8,35.5,61.2,33.4"/>
<path class="st2" d="M55.6,37.8c-1.3-0.8-2.4-1.4-3.7-1.8c0.1,1.2-0.2,2.4-1,3.2c-1.3,1.4-4.2,1.5-6-0.1c-0.9-0.8-1.3-1.9-1.2-2.9
	c-1.3,0.5-2.5,1.2-3.9,2.1c3.6,1.7,6.4,3.3,8.9,5.3C50.9,41.3,53.3,39.5,55.6,37.8"/>
<path class="st2" d="M32.2,67.4c3.1-4.1,5.4-8.2,7.8-12.6c-1.3,0.9-2.6,1.8-3.8,2.5c0,1.3-0.5,2.7-1.4,4c-1.7,2.6-4.4,2.9-5.9,1.6
	c-0.7-0.6-1-1.6-1-2.7c-1.4,0.2-2.6,0.3-4,0.4C26.1,63,28.7,65.3,32.2,67.4"/>
<path class="st3" d="M23.9,28.1c2-2,4.8-6.2,6.8-9.8l0.4-0.4l0.3,0c2.5,1,5,2.4,7.5,4l0,0.2l-0.4,0.3c-1,0.3-2,0.7-3,1.2l-0.2-0.1
	l-0.2-0.1c-0.1-0.8-0.4-1.4-0.9-1.7c-0.4-0.2-0.8-0.3-1.2-0.3c-1.5,0-3.1,1.1-4.2,2.8c-0.6,1-1,2-1.1,3.1l-0.2,0.2l-0.2,0.2
	c-1,0.4-2,0.7-3.3,1l-0.4-0.1L23.9,28.1z"/>
<path class="st2" d="M64.2,44.6c-1.1,0.7-3.1-0.4-4.5-2.5c-0.5-0.7-0.8-1.6-1-2.5c-1.2-0.6-2.3-1.2-3.2-1.7c2.2,3,4.2,6.6,6.5,10.2
	c2.2-1.6,4.2-3.1,6.2-5.2c-1-0.2-2.1-0.4-3.2-0.8C65.2,43.2,65,44.1,64.2,44.6"/>
<path class="st2" d="M65.6,28.8c-0.8-0.1-1.5-0.4-2.3-0.7l-0.2-0.3l-0.3-0.3c-0.3-0.9-0.8-1.8-1.4-2.8c-0.9-1.3-2.3-2.7-3.3-2.7
	c-0.3,0-0.5,0.1-0.7,0.3c-0.3,0.3-0.3,1.2,0,2.2l-0.1,0.1l-0.1,0.1c-0.5-0.3-2-1.3-2.4-1.5l-0.6-0.6l0-0.2c0.4-0.2,0.7-0.5,1.1-0.7
	c1-0.7,2-1.4,3.1-2l0.4,0l0.5,0.3c1.4,1.6,2.8,3.3,3.9,4.8c1,1.3,1.8,2.5,2.7,3.4l0,0.3L65.6,28.8z"/>
<path class="st2" d="M78,59.3c-1.2,2-3.4,2.1-4.7,1c-0.8-0.7-1.2-1.6-1.2-2.5c-1.1,0.1-2.2,0-3.2-0.2c2.1,2.5,4.5,4.8,7.3,6.9
	c2.1-3.2,3.9-6.6,5.3-9.7c-0.9,0.5-1.8,1-2.7,1.3C78.8,57.2,78.6,58.3,78,59.3"/>
<path class="st2" d="M62.2,30.5c-1.1,0-2.7-1.6-3.8-3.2c-0.6-0.9-1-1.7-1.3-2.4l0.1-0.1l0.1-0.1c1.8,1.1,3.6,2.2,5.5,2.9l0.3,0.3
	l0.2,0.3c0.2,0.8,0.1,1.5-0.3,2C62.9,30.4,62.6,30.5,62.2,30.5z"/>
<path class="st2" d="M65.7,68.4c-1.8-2.3-3.7-3.1-4.8-2.2c-0.5,0.4-0.6,1.3-0.4,2.3c2.5,1,4.4,2.1,6.4,2.8
	C66.8,70.4,66.4,69.4,65.7,68.4"/>
<path class="st2" d="M78.7,42.1c0-1.2-0.7-2.3-1.8-3.1c-1.3-0.8-3.3-0.6-4.5,1.1c-0.6,0.9-0.9,2-0.9,3.1
	C73.8,43.3,76.1,43.1,78.7,42.1"/>
<path class="st8" d="M32.2,67.4c-3.3,1-6.3,1.4-8.4,1v8C27.5,73.3,29.9,70.3,32.2,67.4"/>
<path class="st8" d="M31.7,34.1c-2.8,1.3-5.9,2.4-7.9,2.4v8C27,41.6,29.3,37.9,31.7,34.1"/>
<path class="st8" d="M32.2,50.7c-3.7,1.5-6.4,1.9-8.4,1.7v8C27.5,57.1,29.9,53.8,32.2,50.7"/>
<path class="st7" d="M32.2,67.4c2.7,1.6,5.7,3.2,8.6,4.6c1.9-3.8,3.9-7.9,7.9-12.4C43.3,60.8,38.2,65.6,32.2,67.4"/>
<path class="st7" d="M48.5,43.4c-6,0.8-11.7,5.4-16.4,7.3c2.6,1.6,5.4,3,7.8,4C42.7,49.7,45.6,46.2,48.5,43.4"/>
<path class="st7" d="M62.9,62.8c2.3,3.4,4.8,6.5,7.5,9.2c2.1-2.3,4-4.8,5.8-7.4C72,65.5,67.4,65.4,62.9,62.8"/>
<path class="st8" d="M48.5,43.4c2.8,2.2,5.1,5,7.7,9c2.1-1.7,4-3.1,5.8-4.4C58.5,46.1,53.7,42.7,48.5,43.4"/>
<path class="st8" d="M55.6,37.8c1.9-1.4,3.8-2.8,5.6-4.4c-4.5-2-9.3-5.1-14.1-5.1C50.1,31.1,53,34.3,55.6,37.8"/>
<path class="st7" d="M48.6,59.6c3.4,2.4,6.3,5.1,8.6,7.8c2-1.8,3.9-3.3,5.7-4.6C59.5,60.9,55.1,58.2,48.6,59.6"/>
<path class="st3" d="M57.2,67.4c-1.3-0.4-2.7-0.5-4-0.5c0.1,1.3-0.3,2.5-1,3.5c-1.5,1.9-3.5,2.8-5.5,1.9c-1.2-0.6-2.1-1.6-2-3
	c-1.3,0.7-2.6,1.8-4,2.8c3.3,1.6,6.7,2.8,9.6,4.1C52.4,72.4,54.8,69.6,57.2,67.4"/>
<path class="st7" d="M34.5,37.7c-1.9-0.9-4.4,1.1-5.7,3c-0.6,0.9-0.9,1.9-1,2.9c2.6-0.7,5.3-1.7,8.1-3.3
	C35.9,39.1,35.5,38.2,34.5,37.7"/>
<path class="st7" d="M74.1,24.3c-1.7-0.8-3.6,0.1-4.4,1.9c-0.4,0.9-0.5,1.8-0.4,2.6c2.4-0.1,4.8-0.7,7-1.7
	C76.1,25.9,75.3,24.9,74.1,24.3"/>
<path class="st3" d="M50.3,21.3c-0.2-0.9-0.7-1.8-1.2-2.5c-1.4-1.6-3.5-2.4-5.3-0.7c-0.7,0.7-1.1,1.8-1,2.9
	C45.5,20.6,47.9,20.6,50.3,21.3"/>
<path class="st5" d="M61.6,24.7c-1.3-1.8-3.2-3.5-4.3-2.4c-0.4,0.4-0.4,1.4,0,2.4c1.9,1.2,3.8,2.4,5.9,3.1
	C62.9,26.9,62.3,25.8,61.6,24.7"/>
<path class="st5" d="M34.4,21.5c-1.6-0.9-4.1,0.1-5.7,2.5c-0.7,1.1-1.1,2.3-1.1,3.4c3.1-1.1,5.2-2.7,7.8-4
	C35.3,22.5,35,21.8,34.4,21.5"/>
<path class="st3" d="M66,28.7c-1-0.1-1.9-0.5-2.8-0.8c0.2,0.9,0.2,1.6-0.2,2.1c-0.9,1.2-3-0.7-4.4-2.8c-0.5-0.8-1-1.6-1.3-2.5
	c-1.2-0.8-2-1.3-3.2-2c2.9,3.8,5.3,7.9,7.1,10.6C63,31.8,64.4,30.4,66,28.7"/>
<path class="st5" d="M54.1,22.8c-1.2-0.7-2.6-1.1-3.8-1.5c0.2,1.1,0.1,2.1-0.7,2.9c-1.3,1.3-3.7,1.1-5.3-0.3
	c-0.9-0.8-1.4-1.8-1.4-2.9c-1.2,0.2-2.4,0.5-3.8,0.9c2.7,1.8,5.5,3.9,8.1,6.3C49.1,26.2,51.6,24.4,54.1,22.8"/>
<path class="st5" d="M74.1,35.4c1.7-2.7,3.4-6.1,5.3-10.4c-1,0.8-2.1,1.5-3.2,2c0.1,0.8,0,1.6-0.3,2.4c-1,2.6-3.1,3.4-5.3,1.6
	c-0.7-0.6-1.2-1.4-1.4-2.3c-1.1,0.1-2.2,0-3.3-0.1C68.4,31.2,71.1,33.4,74.1,35.4"/>
<path class="st6" d="M39,22c-1.3,0.4-2.5,0.9-3.6,1.4c0.1,1.1-0.2,2.4-0.9,3.7c-1.6,2.8-4.2,4-6,2.7c-0.6-0.5-0.9-1.3-0.9-2.4
	c-1.2,0.4-2.2,0.8-3.8,1.1c2,1.9,4.7,3.8,7.9,5.6C34.3,29.9,36.6,25.6,39,22"/>
<path class="st8" d="M31.1,17.9c2.5,1,5.2,2.4,7.8,4.1c2.2-3.4,4.5-6.3,7-7.8C41.3,13.5,36.7,14.3,31.1,17.9"/>
<path class="st8" d="M78.4,17.7c0,0-3.8,2.2-7.3,3.2c2,1.4,5.4,3.2,8.2,4.2C78.5,20.9,78.4,17.7,78.4,17.7"/>
<path class="st8" d="M58.8,19.8c2.9,3,5.2,6.8,7.2,8.9c1.9-2.2,3.6-4.5,5.2-7.8C67.7,21.8,63.6,21.6,58.8,19.8"/>
<path class="st8" d="M54.1,22.8c1.5-1,2.9-2.1,4.7-3c-4.9-1.8-8-4.9-12.8-5.6C48.5,16.1,51.5,19.4,54.1,22.8"/>
<path class="st8" d="M31.1,17.9c-3.7,2.4-7.3,2.6-7.3,2.6v8C26.1,26.3,29.2,21.3,31.1,17.9"/>
</svg>
